<?xml version="1.0" encoding="utf-8"?>
<svg version="1.1" xmlns:xlink="http://www.w3.org/1999/xlink" width="615px" height="50px" xmlns="http://www.w3.org/2000/svg">
  <g transform="matrix(1 0 0 1 -301 -173 )">
    <path d="M 0 2.67857142857142  C 0 1.9345238095238  0.261284722222229 1.30208333333334  0.783854166666686 0.78125  C 1.30642361111109 0.260416666666657  1.94097222222223 0  2.6875 0  L 27.7708333333333 0  C 28.5173611111111 0  29.3385416666667 0.186011904761898  30.234375 0.558035714285722  C 31.1302083333333 0.930059523809518  31.8394097222222 1.3764880952381  32.3619791666667 1.89732142857142  L 41.0963541666667 10.6026785714286  C 41.6189236111111 11.1235119047619  42.0668402777778 11.8303571428571  42.4401041666667 12.7232142857143  C 42.8133680555555 13.6160714285714  43 14.4345238095238  43 15.1785714285714  L 43 47.3214285714286  C 43 48.0654761904762  42.7387152777778 48.6979166666667  42.2161458333333 49.21875  C 41.6935763888889 49.7395833333333  41.0590277777778 50  40.3125 50  L 2.6875 50  C 1.94097222222223 50  1.30642361111109 49.7395833333333  0.783854166666686 49.21875  C 0.261284722222229 48.6979166666667  0 48.0654761904762  0 47.3214285714286  L 0 2.67857142857142  Z M 599.770833333333 0  C 600.517361111111 0  601.338541666667 0.186011904761898  602.234375 0.558035714285722  C 603.130208333333 0.930059523809518  603.839409722222 1.3764880952381  604.361979166667 1.89732142857142  L 613.096354166667 10.6026785714286  C 613.618923611111 11.1235119047619  614.066840277778 11.8303571428571  614.440104166667 12.7232142857143  C 614.813368055556 13.6160714285714  615 14.4345238095238  615 15.1785714285714  L 615 47.3214285714286  C 615 48.0654761904762  614.738715277778 48.6979166666667  614.216145833333 49.21875  C 613.693576388889 49.7395833333333  613.059027777778 50  612.3125 50  L 574.6875 50  C 573.940972222222 50  573.306423611111 49.7395833333333  572.783854166667 49.21875  C 572.261284722222 48.6979166666667  572 48.0654761904762  572 47.3214285714286  L 572 2.67857142857142  C 572 1.9345238095238  572.261284722222 1.30208333333334  572.783854166667 0.78125  C 573.306423611111 0.260416666666657  573.940972222222 0  574.6875 0  L 599.770833333333 0  Z M 143 2.67857142857142  C 143 1.9345238095238  143.261284722222 1.30208333333334  143.783854166667 0.78125  C 144.306423611111 0.260416666666657  144.940972222222 0  145.6875 0  L 170.770833333333 0  C 171.517361111111 0  172.338541666667 0.186011904761898  173.234375 0.558035714285722  C 174.130208333333 0.930059523809518  174.839409722222 1.3764880952381  175.361979166667 1.89732142857142  L 184.096354166667 10.6026785714286  C 184.618923611111 11.1235119047619  185.066840277778 11.8303571428571  185.440104166667 12.7232142857143  C 185.813368055556 13.6160714285714  186 14.4345238095238  186 15.1785714285714  L 186 47.3214285714286  C 186 48.0654761904762  185.738715277778 48.6979166666667  185.216145833333 49.21875  C 184.693576388889 49.7395833333333  184.059027777778 50  183.3125 50  L 145.6875 50  C 144.940972222222 50  144.306423611111 49.7395833333333  143.783854166667 49.21875  C 143.261284722222 48.6979166666667  143 48.0654761904762  143 47.3214285714286  L 143 2.67857142857142  Z M 286.783854166667 0.78125  C 287.306423611111 0.260416666666657  287.940972222222 0  288.6875 0  L 313.770833333333 0  C 314.517361111111 0  315.338541666667 0.186011904761898  316.234375 0.558035714285722  C 317.130208333333 0.930059523809518  317.839409722222 1.3764880952381  318.361979166667 1.89732142857142  L 327.096354166667 10.6026785714286  C 327.618923611111 11.1235119047619  328.066840277778 11.8303571428571  328.440104166667 12.7232142857143  C 328.813368055556 13.6160714285714  329 14.4345238095238  329 15.1785714285714  L 329 47.3214285714286  C 329 48.0654761904762  328.738715277778 48.6979166666667  328.216145833333 49.21875  C 327.693576388889 49.7395833333333  327.059027777778 50  326.3125 50  L 288.6875 50  C 287.940972222222 50  287.306423611111 49.7395833333333  286.783854166667 49.21875  C 286.261284722222 48.6979166666667  286 48.0654761904762  286 47.3214285714286  L 286 2.67857142857142  C 286 1.9345238095238  286.261284722222 1.30208333333334  286.783854166667 0.78125  Z M 431.6875 0  L 456.770833333333 0  C 457.517361111111 0  458.338541666667 0.186011904761898  459.234375 0.558035714285722  C 460.130208333333 0.930059523809518  460.839409722222 1.3764880952381  461.361979166667 1.89732142857142  L 470.096354166667 10.6026785714286  C 470.618923611111 11.1235119047619  471.066840277778 11.8303571428571  471.440104166667 12.7232142857143  C 471.813368055556 13.6160714285714  472 14.4345238095238  472 15.1785714285714  L 472 47.3214285714286  C 472 48.0654761904762  471.738715277778 48.6979166666667  471.216145833333 49.21875  C 470.693576388889 49.7395833333333  470.059027777778 50  469.3125 50  L 431.6875 50  C 430.940972222222 50  430.306423611111 49.7395833333333  429.783854166667 49.21875  C 429.261284722222 48.6979166666667  429 48.0654761904762  429 47.3214285714286  L 429 2.67857142857142  C 429 1.9345238095238  429.261284722222 1.30208333333334  429.783854166667 0.78125  C 430.306423611111 0.260416666666657  430.940972222222 0  431.6875 0  Z M 27.7708333333333 18  C 27.0243055555555 17.8571428571429  26.3897569444445 17.5967261904762  25.8671875 17.0758928571429  C 25.3446180555555 16.5550595238095  25.0833333333333 15.922619047619  25 15.1785714285714  L 25 4  L 4 4  L 4 46  L 39 46  L 39 18  L 27.7708333333333 18  Z M 170.770833333333 18  C 170.024305555556 17.8571428571429  169.389756944444 17.5967261904762  168.8671875 17.0758928571429  C 168.344618055556 16.5550595238095  168.083333333333 15.922619047619  168 15.1785714285714  L 168 4  L 147 4  L 147 46  L 182 46  L 182 18  L 170.770833333333 18  Z M 597 4  L 576 4  L 576 46  L 611 46  L 611 18  L 599.770833333333 18  C 599.024305555556 17.8571428571429  598.389756944444 17.5967261904762  597.8671875 17.0758928571429  C 597.344618055556 16.5550595238095  597.083333333333 15.922619047619  597 15.1785714285714  L 597 4  Z M 311.8671875 17.0758928571429  C 311.344618055556 16.5550595238095  311.083333333333 15.922619047619  311 15.1785714285714  L 311 4  L 290 4  L 290 46  L 325 46  L 325 18  L 313.770833333333 18  C 313.024305555556 17.8571428571429  312.389756944444 17.5967261904762  311.8671875 17.0758928571429  Z M 454 15.1785714285714  L 454 4  L 433 4  L 433 46  L 468 46  L 468 18  L 456.770833333333 18  C 456.024305555555 17.8571428571429  455.389756944444 17.5967261904762  454.8671875 17.0758928571429  C 454.344618055556 16.5550595238095  454.083333333333 15.922619047619  454 15.1785714285714  Z M 611.192708333333 15  C 611.006076388889 13.7462797619048  610.80078125 13.3649553571429  610.576822916667 13.1417410714286  L 601.814453125 4.40848214285714  C 601.590494791667 4.18526785714286  601.207899305556 3.98065476190476  600 3.79464285714286  L 600 15  L 611.192708333333 15  Z M 314 3.79464285714286  L 314 15  L 325.192708333333 15  C 325.006076388889 13.7462797619048  324.80078125 13.3649553571429  324.576822916667 13.1417410714286  L 315.814453125 4.40848214285714  C 315.590494791667 4.18526785714286  315.207899305556 3.98065476190476  314 3.79464285714286  Z M 172.814453125 4.40848214285714  C 172.590494791667 4.18526785714286  172.207899305556 3.98065476190476  171 3.79464285714286  L 171 15  L 182.192708333333 15  C 182.006076388889 13.7462797619048  181.80078125 13.3649553571429  181.576822916667 13.1417410714286  L 172.814453125 4.40848214285714  Z M 29.814453125 4.40848214285714  C 29.5904947916667 4.18526785714286  29.2078993055555 3.98065476190476  28 3.79464285714286  L 28 15  L 39.1927083333333 15  C 39.0060763888889 13.7462797619048  38.80078125 13.3649553571429  38.5768229166667 13.1417410714286  L 29.814453125 4.40848214285714  Z M 457 15  L 468.192708333333 15  C 468.006076388889 13.7462797619048  467.80078125 13.3649553571429  467.576822916667 13.1417410714286  L 458.814453125 4.40848214285714  C 458.590494791667 4.18526785714286  458.207899305556 3.98065476190476  457 3.79464285714286  L 457 15  Z M 455.875 31.6127232142857  L 455.875 29.1015625  L 463.293619791667 21.6796875  C 463.461588541667 21.5122767857143  463.676215277778 21.4285714285714  463.9375 21.4285714285714  C 464.012152777778 21.4285714285714  464.124131944444 21.4471726190476  464.2734375 21.484375  C 464.646701388889 21.6331845238095  464.833333333333 21.9122023809524  464 22.3214285714286  L 464 38.3928571428571  C 464.833333333333 38.8020833333333  464.646701388889 39.0811011904762  464.2734375 39.2299107142857  C 464.124131944444 39.2671130952381  464.012152777778 39.2857142857143  463.9375 39.2857142857143  C 463.676215277778 39.2857142857143  463.461588541667 39.2020089285714  463.293619791667 39.0345982142857  L 455.875 31.6127232142857  Z M 294.23046875 38.2254464285714  C 293.521267361111 37.5186011904762  293.166666666667 36.6815476190476  294 35.7142857142857  L 294 25  C 293.166666666667 24.0327380952381  293.521267361111 23.1956845238095  294.23046875 22.4888392857143  C 294.939670138889 21.781994047619  295.779513888889 21.4285714285714  296.75 22  L 307.5 22  C 308.470486111111 21.4285714285714  309.310329861111 21.781994047619  310.01953125 22.4888392857143  C 310.728732638889 23.1956845238095  311.083333333333 24.0327380952381  311 25  L 311 35.7142857142857  C 311.083333333333 36.6815476190476  310.728732638889 37.5186011904762  310.01953125 38.2254464285714  C 309.310329861111 38.9322916666667  308.470486111111 39.2857142857143  307.5 39  L 296.75 39  C 295.779513888889 39.2857142857143  294.939670138889 38.9322916666667  294.23046875 38.2254464285714  Z M 320.293619791667 39.0345982142857  L 312.875 31.6127232142857  L 312.875 29.1015625  L 320.293619791667 21.6796875  C 320.461588541667 21.5122767857143  320.676215277778 21.4285714285714  320.9375 21.4285714285714  C 321.012152777778 21.4285714285714  321.124131944444 21.4471726190476  321.2734375 21.484375  C 321.646701388889 21.6331845238095  321.833333333333 21.9122023809524  321 22.3214285714286  L 321 38.3928571428571  C 321.833333333333 38.8020833333333  321.646701388889 39.0811011904762  321.2734375 39.2299107142857  C 321.124131944444 39.2671130952381  321.012152777778 39.2857142857143  320.9375 39.2857142857143  C 320.676215277778 39.2857142857143  320.461588541667 39.2020089285714  320.293619791667 39.0345982142857  Z M 34.9375 39.2857142857143  C 34.6762152777778 39.2857142857143  34.4615885416667 39.2020089285714  34.2936197916667 39.0345982142857  L 26.875 31.6127232142857  L 26.875 29.1015625  L 34.2936197916667 21.6796875  C 34.4615885416667 21.5122767857143  34.6762152777778 21.4285714285714  34.9375 21.4285714285714  C 35.0121527777778 21.4285714285714  35.1241319444445 21.4471726190476  35.2734375 21.484375  C 35.6467013888889 21.6331845238095  35.8333333333333 21.9122023809524  35 22.3214285714286  L 35 38.3928571428571  C 35.8333333333333 38.8020833333333  35.6467013888889 39.0811011904762  35.2734375 39.2299107142857  C 35.1241319444445 39.2671130952381  35.0121527777778 39.2857142857143  34.9375 39.2857142857143  Z M 153.75 39  C 152.779513888889 39.2857142857143  151.939670138889 38.9322916666667  151.23046875 38.2254464285714  C 150.521267361111 37.5186011904762  150.166666666667 36.6815476190476  151 35.7142857142857  L 151 25  C 150.166666666667 24.0327380952381  150.521267361111 23.1956845238095  151.23046875 22.4888392857143  C 151.939670138889 21.781994047619  152.779513888889 21.4285714285714  153.75 22  L 164.5 22  C 165.470486111111 21.4285714285714  166.310329861111 21.781994047619  167.01953125 22.4888392857143  C 167.728732638889 23.1956845238095  168.083333333333 24.0327380952381  168 25  L 168 35.7142857142857  C 168.083333333333 36.6815476190476  167.728732638889 37.5186011904762  167.01953125 38.2254464285714  C 166.310329861111 38.9322916666667  165.470486111111 39.2857142857143  164.5 39  L 153.75 39  Z M 177.9375 39.2857142857143  C 177.676215277778 39.2857142857143  177.461588541667 39.2020089285714  177.293619791667 39.0345982142857  L 169.875 31.6127232142857  L 169.875 29.1015625  L 177.293619791667 21.6796875  C 177.461588541667 21.5122767857143  177.676215277778 21.4285714285714  177.9375 21.4285714285714  C 178.012152777778 21.4285714285714  178.124131944444 21.4471726190476  178.2734375 21.484375  C 178.646701388889 21.6331845238095  178.833333333333 21.9122023809524  178 22.3214285714286  L 178 38.3928571428571  C 178.833333333333 38.8020833333333  178.646701388889 39.0811011904762  178.2734375 39.2299107142857  C 178.124131944444 39.2671130952381  178.012152777778 39.2857142857143  177.9375 39.2857142857143  Z M 10.75 39  C 9.77951388888891 39.2857142857143  8.93967013888891 38.9322916666667  8.23046875 38.2254464285714  C 7.52126736111109 37.5186011904762  7.16666666666669 36.6815476190476  8 35.7142857142857  L 8 25  C 7.16666666666669 24.0327380952381  7.52126736111109 23.1956845238095  8.23046875 22.4888392857143  C 8.93967013888891 21.781994047619  9.77951388888891 21.4285714285714  10.75 22  L 21.5 22  C 22.4704861111111 21.4285714285714  23.3103298611111 21.781994047619  24.01953125 22.4888392857143  C 24.7287326388889 23.1956845238095  25.0833333333333 24.0327380952381  25 25  L 25 35.7142857142857  C 25.0833333333333 36.6815476190476  24.7287326388889 37.5186011904762  24.01953125 38.2254464285714  C 23.3103298611111 38.9322916666667  22.4704861111111 39.2857142857143  21.5 39  L 10.75 39  Z M 580 25  C 579.166666666667 24.0327380952381  579.521267361111 23.1956845238095  580.23046875 22.4888392857143  C 580.939670138889 21.781994047619  581.779513888889 21.4285714285714  582.75 22  L 593.5 22  C 594.470486111111 21.4285714285714  595.310329861111 21.781994047619  596.01953125 22.4888392857143  C 596.728732638889 23.1956845238095  597.083333333333 24.0327380952381  597 25  L 597 35.7142857142857  C 597.083333333333 36.6815476190476  596.728732638889 37.5186011904762  596.01953125 38.2254464285714  C 595.310329861111 38.9322916666667  594.470486111111 39.2857142857143  593.5 39  L 582.75 39  C 581.779513888889 39.2857142857143  580.939670138889 38.9322916666667  580.23046875 38.2254464285714  C 579.521267361111 37.5186011904762  579.166666666667 36.6815476190476  580 35.7142857142857  L 580 25  Z M 437 35.7142857142857  L 437 25  C 436.166666666667 24.0327380952381  436.521267361111 23.1956845238095  437.23046875 22.4888392857143  C 437.939670138889 21.781994047619  438.779513888889 21.4285714285714  439.75 22  L 450.5 22  C 451.470486111111 21.4285714285714  452.310329861111 21.781994047619  453.01953125 22.4888392857143  C 453.728732638889 23.1956845238095  454.083333333333 24.0327380952381  454 25  L 454 35.7142857142857  C 454.083333333333 36.6815476190476  453.728732638889 37.5186011904762  453.01953125 38.2254464285714  C 452.310329861111 38.9322916666667  451.470486111111 39.2857142857143  450.5 39  L 439.75 39  C 438.779513888889 39.2857142857143  437.939670138889 38.9322916666667  437.23046875 38.2254464285714  C 436.521267361111 37.5186011904762  436.166666666667 36.6815476190476  437 35.7142857142857  Z M 598.875 29.1015625  L 606.293619791667 21.6796875  C 606.461588541667 21.5122767857143  606.676215277778 21.4285714285714  606.9375 21.4285714285714  C 607.012152777778 21.4285714285714  607.124131944444 21.4471726190476  607.2734375 21.484375  C 607.646701388889 21.6331845238095  607.833333333333 21.9122023809524  607 22.3214285714286  L 607 38.3928571428571  C 607.833333333333 38.8020833333333  607.646701388889 39.0811011904762  607.2734375 39.2299107142857  C 607.124131944444 39.2671130952381  607.012152777778 39.2857142857143  606.9375 39.2857142857143  C 606.676215277778 39.2857142857143  606.461588541667 39.2020089285714  606.293619791667 39.0345982142857  L 598.875 31.6127232142857  L 598.875 29.1015625  Z " fill-rule="nonzero" fill="#000000" stroke="none" transform="matrix(1 0 0 1 301 173 )" />
  </g>
</svg>