<?xml version="1.0" encoding="utf-8"?>
<svg version="1.1" xmlns:xlink="http://www.w3.org/1999/xlink" width="24px" height="16px" xmlns="http://www.w3.org/2000/svg">
  <g transform="matrix(1 0 0 1 -747 -276 )">
    <path d="M 14.4 7  L 14.4 4.57142857142857  L 0 4.57142857142857  L 0 7  L 14.4 7  Z M 14.4 2.28571428571429  L 14.4 0  L 0 0  L 0 2.28571428571429  L 14.4 2.28571428571429  Z M 24 9.14285714285714  L 19.2 9.14285714285714  L 19.2 4.57142857142857  L 16.8 4.57142857142857  L 16.8 9.14285714285714  L 12 9.14285714285714  L 12 11.4285714285714  L 16.8 11.4285714285714  L 16.8 16  L 19.2 16  L 19.2 11.4285714285714  L 24 11.4285714285714  L 24 9.14285714285714  Z M 0 9.14285714285714  L 0 11.4285714285714  L 9.6 11.4285714285714  L 9.6 9.14285714285714  L 0 9.14285714285714  Z " fill-rule="nonzero" fill="#000000" stroke="none" transform="matrix(1 0 0 1 747 276 )" />
  </g>
</svg>