<?xml version="1.0" encoding="utf-8"?>
<svg version="1.1" xmlns:xlink="http://www.w3.org/1999/xlink" width="14px" height="10px" xmlns="http://www.w3.org/2000/svg">
  <g transform="matrix(1 0 0 1 -233 -319 )">
    <path d="M 6.36363636363636 2.5  C 6.36363636363636 3.878125  7.50272727272727 5  8.90909090909091 5  C 10.3154545454545 5  11.4545454545455 3.878125  11.4545454545455 2.5  C 11.4545454545455 1.11875  10.3154545454545 0  8.90909090909091 0  C 7.50272727272727 0  6.36363636363636 1.11875  6.36363636363636 2.5  Z M 5.09090909090909 3.75  L 3.18181818181818 3.75  L 3.18181818181818 1.875  L 1.90909090909091 1.875  L 1.90909090909091 3.75  L 0 3.75  L 0 5  L 1.90909090909091 5  L 1.90909090909091 6.875  L 3.18181818181818 6.875  L 3.18181818181818 5  L 5.09090909090909 5  L 5.09090909090909 3.75  Z M 14 8.75  C 14 7.084375  10.605 6.25  8.90909090909091 6.25  C 7.21318181818182 6.25  3.81818181818182 7.084375  3.81818181818182 8.75  L 3.81818181818182 10  L 14 10  L 14 8.75  Z " fill-rule="nonzero" fill="#000000" stroke="none" transform="matrix(1 0 0 1 233 319 )" />
  </g>
</svg>