<?xml version="1.0" encoding="utf-8"?>
<svg version="1.1" xmlns:xlink="http://www.w3.org/1999/xlink" width="24px" height="16px" xmlns="http://www.w3.org/2000/svg">
  <g transform="matrix(1 0 0 1 -747 -394 )">
    <path d="M 11.431640625 6.828125  C 10.552734375 7.609375  9.4921875 8  8.25 8  C 7.0078125 8  5.947265625 7.609375  5.068359375 6.828125  C 4.189453125 6.046875  3.75 5.10416666666667  3.75 4  C 3.75 2.89583333333333  4.189453125 1.953125  5.068359375 1.171875  C 5.947265625 0.390625  7.0078125 0  8.25 0  C 9.4921875 0  10.552734375 0.390625  11.431640625 1.171875  C 12.310546875 1.953125  12.75 2.89583333333333  12.75 4  C 12.75 5.10416666666667  12.310546875 6.046875  11.431640625 6.828125  Z M 19.5 5.66666666666667  L 19.5 9.33333333333333  L 23.625 9.33333333333333  C 23.7265625 9.33333333333333  23.814453125 9.36631944444444  23.888671875 9.43229166666667  C 23.962890625 9.49826388888889  24 9.57638888888889  24 9.66666666666667  L 24 11.6666666666667  C 24 11.7569444444444  23.962890625 11.8350694444444  23.888671875 11.9010416666667  C 23.814453125 11.9670138888889  23.7265625 12  23.625 12  L 19.5 12  L 19.5 15.6666666666667  C 19.5 15.7569444444444  19.462890625 15.8350694444444  19.388671875 15.9010416666667  C 19.314453125 15.9670138888889  19.2265625 16  19.125 16  L 16.875 16  C 16.7734375 16  16.685546875 15.9670138888889  16.611328125 15.9010416666667  C 16.537109375 15.8350694444444  16.5 15.7569444444444  16.5 15.6666666666667  L 16.5 12  L 12.375 12  C 12.2734375 12  12.185546875 11.9670138888889  12.111328125 11.9010416666667  C 12.037109375 11.8350694444444  12 11.7569444444444  12 11.6666666666667  L 12 9.66666666666667  C 12 9.57638888888889  12.037109375 9.49826388888889  12.111328125 9.43229166666667  C 12.185546875 9.36631944444444  12.2734375 9.33333333333333  12.375 9.33333333333333  L 16.5 9.33333333333333  L 16.5 5.66666666666667  C 16.5 5.57638888888889  16.537109375 5.49826388888889  16.611328125 5.43229166666667  C 16.685546875 5.36631944444444  16.7734375 5.33333333333333  16.875 5.33333333333333  L 19.125 5.33333333333333  C 19.2265625 5.33333333333333  19.314453125 5.36631944444444  19.388671875 5.43229166666667  C 19.462890625 5.49826388888889  19.5 5.57638888888889  19.5 5.66666666666667  Z M 10.875 9.66666666666667  L 10.875 11.6666666666667  C 10.875 12.0277777777778  11.0234375 12.3402777777778  11.3203125 12.6041666666667  C 11.6171875 12.8680555555556  11.96875 13  12.375 13  L 15.375 13  L 15.375 15.4791666666667  C 14.84375 15.8263888888889  14.17578125 16  13.37109375 16  L 3.12890625 16  C 2.18359375 16  1.42578125 15.7604166666667  0.85546875 15.28125  C 0.28515625 14.8020833333333  0 14.1423611111111  0 13.3020833333333  C 0 12.9340277777778  0.013671875 12.5746527777778  0.041015625 12.2239583333333  C 0.068359375 11.8732638888889  0.123046875 11.4947916666667  0.205078125 11.0885416666667  C 0.287109375 10.6822916666667  0.390625 10.3055555555556  0.515625 9.95833333333333  C 0.640625 9.61111111111111  0.80859375 9.27256944444444  1.01953125 8.94270833333333  C 1.23046875 8.61284722222222  1.47265625 8.33159722222222  1.74609375 8.09895833333333  C 2.01953125 7.86631944444444  2.353515625 7.68055555555556  2.748046875 7.54166666666667  C 3.142578125 7.40277777777778  3.578125 7.33333333333333  4.0546875 7.33333333333333  C 4.203125 7.33333333333333  4.35546875 7.39236111111111  4.51171875 7.51041666666667  C 5.12890625 7.93402777777778  5.732421875 8.25173611111111  6.322265625 8.46354166666667  C 6.912109375 8.67534722222222  7.5546875 8.78125  8.25 8.78125  C 8.9453125 8.78125  9.587890625 8.67534722222222  10.177734375 8.46354166666667  C 10.767578125 8.25173611111111  11.37109375 7.93402777777778  11.98828125 7.51041666666667  C 12.14453125 7.39236111111111  12.296875 7.33333333333333  12.4453125 7.33333333333333  C 13.4765625 7.33333333333333  14.32421875 7.66666666666667  14.98828125 8.33333333333333  L 12.375 8.33333333333333  C 11.96875 8.33333333333333  11.6171875 8.46527777777778  11.3203125 8.72916666666667  C 11.0234375 8.99305555555555  10.875 9.30555555555555  10.875 9.66666666666667  Z " fill-rule="nonzero" fill="#000000" stroke="none" transform="matrix(1 0 0 1 747 394 )" />
  </g>
</svg>