<?xml version="1.0" encoding="utf-8"?>
<svg version="1.1" xmlns:xlink="http://www.w3.org/1999/xlink" width="718px" height="575px" xmlns="http://www.w3.org/2000/svg">
  <defs>
    <filter x="157px" y="11px" width="718px" height="575px" filterUnits="userSpaceOnUse" id="filter51">
      <feOffset dx="0" dy="6" in="SourceAlpha" result="shadowOffsetInner" />
      <feGaussianBlur stdDeviation="6" in="shadowOffsetInner" result="shadowGaussian" />
      <feComposite in2="shadowGaussian" operator="atop" in="SourceAlpha" result="shadowComposite" />
      <feColorMatrix type="matrix" values="0 0 0 0 0  0 0 0 0 0  0 0 0 0 0  0 0 0 0.168627450980392 0  " in="shadowComposite" />
    </filter>
    <g id="widget52">
      <path d="M 170 21  A 3 3 0 0 1 173 18 L 859 18  A 3 3 0 0 1 862 21 L 862 564  A 3 3 0 0 1 859 567 L 173 567  A 3 3 0 0 1 170 564 L 170 21  Z " fill-rule="nonzero" fill="#ffffff" stroke="none" />
      <path d="M 169.5 21  A 3.5 3.5 0 0 1 173 17.5 L 859 17.5  A 3.5 3.5 0 0 1 862.5 21 L 862.5 564  A 3.5 3.5 0 0 1 859 567.5 L 173 567.5  A 3.5 3.5 0 0 1 169.5 564 L 169.5 21  Z " stroke-width="1" stroke="#000000" fill="none" stroke-opacity="0.149019607843137" />
    </g>
  </defs>
  <g transform="matrix(1 0 0 1 -157 -11 )">
    <use xlink:href="#widget52" filter="url(#filter51)" />
    <use xlink:href="#widget52" />
  </g>
</svg>