<?xml version="1.0" encoding="utf-8"?>
<svg version="1.1" xmlns:xlink="http://www.w3.org/1999/xlink" width="236px" height="132px" xmlns="http://www.w3.org/2000/svg">
  <defs>
    <mask fill="white" id="clip1">
      <path d="M 0 104  L 0 4  C 0 1.76  1.87497487437186 0  4.26130653266332 0  L 207.738693467337 0  C 210.125025125628 0  212 1.76  212 4  L 212 104  C 212 106.24  210.125025125628 108  207.738693467337 108  L 88.1557788944714 108  L 4.26130653266332 108  C 1.87497487437186 108  0 106.24  0 104  Z " fill-rule="evenodd" />
    </mask>
    <filter x="-12px" y="-6px" width="236px" height="132px" filterUnits="userSpaceOnUse" id="filter2">
      <feOffset dx="0" dy="6" in="SourceAlpha" result="shadowOffsetInner" />
      <feGaussianBlur stdDeviation="6" in="shadowOffsetInner" result="shadowGaussian" />
      <feComposite in2="shadowGaussian" operator="atop" in="SourceAlpha" result="shadowComposite" />
      <feColorMatrix type="matrix" values="0 0 0 0 0  0 0 0 0 0  0 0 0 0 0  0 0 0 0.168627450980392 0  " in="shadowComposite" />
    </filter>
    <g id="widget3">
      <path d="M 0 104  L 0 4  C 0 1.76  1.87497487437186 0  4.26130653266332 0  L 207.738693467337 0  C 210.125025125628 0  212 1.76  212 4  L 212 104  C 212 106.24  210.125025125628 108  207.738693467337 108  L 88.1557788944714 108  L 4.26130653266332 108  C 1.87497487437186 108  0 106.24  0 104  Z " fill-rule="nonzero" fill="#ffffff" stroke="none" />
      <path d="M 0 104  L 0 4  C 0 1.76  1.87497487437186 0  4.26130653266332 0  L 207.738693467337 0  C 210.125025125628 0  212 1.76  212 4  L 212 104  C 212 106.24  210.125025125628 108  207.738693467337 108  L 88.1557788944714 108  L 4.26130653266332 108  C 1.87497487437186 108  0 106.24  0 104  Z " stroke-width="2" stroke="#000000" fill="none" stroke-opacity="0.149019607843137" mask="url(#clip1)" />
    </g>
  </defs>
  <g transform="matrix(1 0 0 1 12 6 )">
    <use xlink:href="#widget3" filter="url(#filter2)" />
    <use xlink:href="#widget3" />
  </g>
</svg>