<?xml version="1.0" encoding="utf-8"?>
<svg version="1.1" xmlns:xlink="http://www.w3.org/1999/xlink" width="736px" height="429px" xmlns="http://www.w3.org/2000/svg">
  <defs>
    <filter x="139px" y="63px" width="736px" height="429px" filterUnits="userSpaceOnUse" id="filter95">
      <feOffset dx="0" dy="6" in="SourceAlpha" result="shadowOffsetInner" />
      <feGaussianBlur stdDeviation="6" in="shadowOffsetInner" result="shadowGaussian" />
      <feComposite in2="shadowGaussian" operator="atop" in="SourceAlpha" result="shadowComposite" />
      <feColorMatrix type="matrix" values="0 0 0 0 0  0 0 0 0 0  0 0 0 0 0  0 0 0 0.168627450980392 0  " in="shadowComposite" />
    </filter>
    <g id="widget96">
      <path d="M 152 73  A 3 3 0 0 1 155 70 L 859 70  A 3 3 0 0 1 862 73 L 862 470  A 3 3 0 0 1 859 473 L 155 473  A 3 3 0 0 1 152 470 L 152 73  Z " fill-rule="nonzero" fill="#ffffff" stroke="none" />
      <path d="M 151.5 73  A 3.5 3.5 0 0 1 155 69.5 L 859 69.5  A 3.5 3.5 0 0 1 862.5 73 L 862.5 470  A 3.5 3.5 0 0 1 859 473.5 L 155 473.5  A 3.5 3.5 0 0 1 151.5 470 L 151.5 73  Z " stroke-width="1" stroke="#000000" fill="none" stroke-opacity="0.149019607843137" />
    </g>
  </defs>
  <g transform="matrix(1 0 0 1 -139 -63 )">
    <use xlink:href="#widget96" filter="url(#filter95)" />
    <use xlink:href="#widget96" />
  </g>
</svg>