<?xml version="1.0" encoding="utf-8"?>
<svg version="1.1" xmlns:xlink="http://www.w3.org/1999/xlink" width="489px" height="219px" xmlns="http://www.w3.org/2000/svg">
  <defs>
    <filter x="260px" y="57px" width="489px" height="219px" filterUnits="userSpaceOnUse" id="filter99">
      <feOffset dx="0" dy="6" in="SourceAlpha" result="shadowOffsetInner" />
      <feGaussianBlur stdDeviation="6" in="shadowOffsetInner" result="shadowGaussian" />
      <feComposite in2="shadowGaussian" operator="atop" in="SourceAlpha" result="shadowComposite" />
      <feColorMatrix type="matrix" values="0 0 0 0 0  0 0 0 0 0  0 0 0 0 0  0 0 0 0.168627450980392 0  " in="shadowComposite" />
    </filter>
    <g id="widget100">
      <path d="M 273 67  A 3 3 0 0 1 276 64 L 733 64  A 3 3 0 0 1 736 67 L 736 254  A 3 3 0 0 1 733 257 L 276 257  A 3 3 0 0 1 273 254 L 273 67  Z " fill-rule="nonzero" fill="#ffffff" stroke="none" />
      <path d="M 272.5 67  A 3.5 3.5 0 0 1 276 63.5 L 733 63.5  A 3.5 3.5 0 0 1 736.5 67 L 736.5 254  A 3.5 3.5 0 0 1 733 257.5 L 276 257.5  A 3.5 3.5 0 0 1 272.5 254 L 272.5 67  Z " stroke-width="1" stroke="#000000" fill="none" stroke-opacity="0.149019607843137" />
    </g>
  </defs>
  <g transform="matrix(1 0 0 1 -260 -57 )">
    <use xlink:href="#widget100" filter="url(#filter99)" />
    <use xlink:href="#widget100" />
  </g>
</svg>