<?xml version="1.0" encoding="utf-8"?>
<svg version="1.1" xmlns:xlink="http://www.w3.org/1999/xlink" width="474px" height="279px" xmlns="http://www.w3.org/2000/svg">
  <defs>
    <filter x="260px" y="57px" width="474px" height="279px" filterUnits="userSpaceOnUse" id="filter103">
      <feOffset dx="0" dy="6" in="SourceAlpha" result="shadowOffsetInner" />
      <feGaussianBlur stdDeviation="6" in="shadowOffsetInner" result="shadowGaussian" />
      <feComposite in2="shadowGaussian" operator="atop" in="SourceAlpha" result="shadowComposite" />
      <feColorMatrix type="matrix" values="0 0 0 0 0  0 0 0 0 0  0 0 0 0 0  0 0 0 0.168627450980392 0  " in="shadowComposite" />
    </filter>
    <g id="widget104">
      <path d="M 273 67  A 3 3 0 0 1 276 64 L 718 64  A 3 3 0 0 1 721 67 L 721 314  A 3 3 0 0 1 718 317 L 276 317  A 3 3 0 0 1 273 314 L 273 67  Z " fill-rule="nonzero" fill="#ffffff" stroke="none" />
      <path d="M 272.5 67  A 3.5 3.5 0 0 1 276 63.5 L 718 63.5  A 3.5 3.5 0 0 1 721.5 67 L 721.5 314  A 3.5 3.5 0 0 1 718 317.5 L 276 317.5  A 3.5 3.5 0 0 1 272.5 314 L 272.5 67  Z " stroke-width="1" stroke="#000000" fill="none" stroke-opacity="0.149019607843137" />
    </g>
  </defs>
  <g transform="matrix(1 0 0 1 -260 -57 )">
    <use xlink:href="#widget104" filter="url(#filter103)" />
    <use xlink:href="#widget104" />
  </g>
</svg>