<?xml version="1.0" encoding="utf-8"?>
<svg version="1.1" xmlns:xlink="http://www.w3.org/1999/xlink" width="1018px" height="356px" xmlns="http://www.w3.org/2000/svg">
  <defs>
    <filter x="4px" y="201px" width="1018px" height="356px" filterUnits="userSpaceOnUse" id="filter29">
      <feOffset dx="0" dy="6" in="SourceAlpha" result="shadowOffsetInner" />
      <feGaussianBlur stdDeviation="6" in="shadowOffsetInner" result="shadowGaussian" />
      <feComposite in2="shadowGaussian" operator="atop" in="SourceAlpha" result="shadowComposite" />
      <feColorMatrix type="matrix" values="0 0 0 0 0  0 0 0 0 0  0 0 0 0 0  0 0 0 0.168627450980392 0  " in="shadowComposite" />
    </filter>
    <g id="widget30">
      <path d="M 17 208  L 1009 208  L 1009 529  A 9 9 0 0 1 1000 538 L 26 538  A 9 9 0 0 1 17 529 L 17 208  Z " fill-rule="nonzero" fill="#ffffff" stroke="none" />
      <path d="M 16.5 207.5  L 1009.5 207.5  L 1009.5 529  A 9.5 9.5 0 0 1 1000 538.5 L 26 538.5  A 9.5 9.5 0 0 1 16.5 529 L 16.5 207.5  Z " stroke-width="1" stroke="#000000" fill="none" stroke-opacity="0.149019607843137" />
    </g>
  </defs>
  <g transform="matrix(1 0 0 1 -4 -201 )">
    <use xlink:href="#widget30" filter="url(#filter29)" />
    <use xlink:href="#widget30" />
  </g>
</svg>