<?xml version="1.0" encoding="utf-8"?>
<svg version="1.1" xmlns:xlink="http://www.w3.org/1999/xlink" width="417px" height="171px" xmlns="http://www.w3.org/2000/svg">
  <defs>
    <filter x="280px" y="152px" width="417px" height="171px" filterUnits="userSpaceOnUse" id="filter33">
      <feOffset dx="0" dy="6" in="SourceAlpha" result="shadowOffsetInner" />
      <feGaussianBlur stdDeviation="6" in="shadowOffsetInner" result="shadowGaussian" />
      <feComposite in2="shadowGaussian" operator="atop" in="SourceAlpha" result="shadowComposite" />
      <feColorMatrix type="matrix" values="0 0 0 0 0  0 0 0 0 0  0 0 0 0 0  0 0 0 0.168627450980392 0  " in="shadowComposite" />
    </filter>
    <g id="widget34">
      <path d="M 293 162  A 3 3 0 0 1 296 159 L 681 159  A 3 3 0 0 1 684 162 L 684 301  A 3 3 0 0 1 681 304 L 296 304  A 3 3 0 0 1 293 301 L 293 162  Z " fill-rule="nonzero" fill="#ffffff" stroke="none" />
      <path d="M 292.5 162  A 3.5 3.5 0 0 1 296 158.5 L 681 158.5  A 3.5 3.5 0 0 1 684.5 162 L 684.5 301  A 3.5 3.5 0 0 1 681 304.5 L 296 304.5  A 3.5 3.5 0 0 1 292.5 301 L 292.5 162  Z " stroke-width="1" stroke="#000000" fill="none" stroke-opacity="0.149019607843137" />
    </g>
  </defs>
  <g transform="matrix(1 0 0 1 -280 -152 )">
    <use xlink:href="#widget34" filter="url(#filter33)" />
    <use xlink:href="#widget34" />
  </g>
</svg>