<?xml version="1.0" encoding="utf-8"?>
<svg version="1.1" xmlns:xlink="http://www.w3.org/1999/xlink" width="21px" height="16px" xmlns="http://www.w3.org/2000/svg">
  <g transform="matrix(1 0 0 1 -472 -8 )">
    <path d="M 12.6 7  L 12.6 4.57142857142857  L 0 4.57142857142857  L 0 7  L 12.6 7  Z M 12.6 2.28571428571429  L 12.6 0  L 0 0  L 0 2.28571428571429  L 12.6 2.28571428571429  Z M 21 9.14285714285714  L 16.8 9.14285714285714  L 16.8 4.57142857142857  L 14.7 4.57142857142857  L 14.7 9.14285714285714  L 10.5 9.14285714285714  L 10.5 11.4285714285714  L 14.7 11.4285714285714  L 14.7 16  L 16.8 16  L 16.8 11.4285714285714  L 21 11.4285714285714  L 21 9.14285714285714  Z M 0 9.14285714285714  L 0 11.4285714285714  L 8.4 11.4285714285714  L 8.4 9.14285714285714  L 0 9.14285714285714  Z " fill-rule="nonzero" fill="#000000" stroke="none" transform="matrix(1 0 0 1 472 8 )" />
  </g>
</svg>