<?xml version="1.0" encoding="utf-8"?>
<svg version="1.1" xmlns:xlink="http://www.w3.org/1999/xlink" width="11px" height="10px" xmlns="http://www.w3.org/2000/svg">
  <g transform="matrix(1 0 0 1 -476 -42 )">
    <path d="M 10.7407407407407 7.47474747474747  C 10.9135802469136 7.63187429854096  11 7.82267115600449  11 8.04713804713805  C 11 8.27160493827161  10.9135802469136 8.46240179573513  10.7407407407407 8.61952861952862  L 9.48148148148148 9.76430976430976  C 9.30864197530864 9.92143658810325  9.09876543209877 10  8.85185185185185 10  C 8.60493827160494 10  8.39506172839506 9.92143658810325  8.22222222222222 9.76430976430976  L 5.5 7.28956228956229  L 2.77777777777778 9.76430976430976  C 2.60493827160494 9.92143658810325  2.39506172839506 10  2.14814814814815 10  C 1.90123456790123 10  1.69135802469136 9.92143658810325  1.51851851851852 9.76430976430976  L 0.259259259259259 8.61952861952862  C 0.0864197530864198 8.46240179573513  0 8.27160493827161  0 8.04713804713805  C 0 7.82267115600449  0.0864197530864198 7.63187429854096  0.259259259259259 7.47474747474747  L 2.98148148148148 5  L 0.259259259259259 2.52525252525253  C 0.0864197530864198 2.36812570145903  0 2.17732884399551  0 1.95286195286195  C 0 1.72839506172839  0.0864197530864198 1.53759820426487  0.259259259259259 1.38047138047138  L 1.51851851851852 0.235690235690236  C 1.69135802469136 0.0785634118967449  1.90123456790123 0  2.14814814814815 0  C 2.39506172839506 0  2.60493827160494 0.0785634118967449  2.77777777777778 0.235690235690236  L 5.5 2.71043771043771  L 8.22222222222222 0.235690235690236  C 8.39506172839506 0.0785634118967449  8.60493827160494 0  8.85185185185185 0  C 9.09876543209877 0  9.30864197530864 0.0785634118967449  9.48148148148148 0.235690235690236  L 10.7407407407407 1.38047138047138  C 10.9135802469136 1.53759820426487  11 1.72839506172839  11 1.95286195286195  C 11 2.17732884399551  10.9135802469136 2.36812570145903  10.7407407407407 2.52525252525253  L 8.01851851851852 5  L 10.7407407407407 7.47474747474747  Z " fill-rule="nonzero" fill="#000000" stroke="none" transform="matrix(1 0 0 1 476 42 )" />
  </g>
</svg>