<?xml version="1.0" encoding="utf-8"?>
<svg version="1.1" xmlns:xlink="http://www.w3.org/1999/xlink" width="1017px" height="555px" xmlns="http://www.w3.org/2000/svg">
  <defs>
    <filter x="4px" y="95px" width="1017px" height="555px" filterUnits="userSpaceOnUse" id="filter115">
      <feOffset dx="0" dy="6" in="SourceAlpha" result="shadowOffsetInner" />
      <feGaussianBlur stdDeviation="6" in="shadowOffsetInner" result="shadowGaussian" />
      <feComposite in2="shadowGaussian" operator="atop" in="SourceAlpha" result="shadowComposite" />
      <feColorMatrix type="matrix" values="0 0 0 0 0  0 0 0 0 0  0 0 0 0 0  0 0 0 0.168627450980392 0  " in="shadowComposite" />
    </filter>
    <g id="widget116">
      <path d="M 17 105  A 3 3 0 0 1 20 102 L 1005 102  A 3 3 0 0 1 1008 105 L 1008 628  A 3 3 0 0 1 1005 631 L 20 631  A 3 3 0 0 1 17 628 L 17 105  Z " fill-rule="nonzero" fill="#ffffff" stroke="none" />
      <path d="M 16.5 105  A 3.5 3.5 0 0 1 20 101.5 L 1005 101.5  A 3.5 3.5 0 0 1 1008.5 105 L 1008.5 628  A 3.5 3.5 0 0 1 1005 631.5 L 20 631.5  A 3.5 3.5 0 0 1 16.5 628 L 16.5 105  Z " stroke-width="1" stroke="#000000" fill="none" stroke-opacity="0.149019607843137" />
    </g>
  </defs>
  <g transform="matrix(1 0 0 1 -4 -95 )">
    <use xlink:href="#widget116" filter="url(#filter115)" />
    <use xlink:href="#widget116" />
  </g>
</svg>