<?xml version="1.0" encoding="utf-8"?>
<svg version="1.1" xmlns:xlink="http://www.w3.org/1999/xlink" width="21px" height="16px" xmlns="http://www.w3.org/2000/svg">
  <g transform="matrix(1 0 0 1 -472 -8 )">
    <path d="M 10.002685546875 6.828125  C 9.233642578125 7.609375  8.3056640625 8  7.21875 8  C 6.1318359375 8  5.203857421875 7.609375  4.434814453125 6.828125  C 3.665771484375 6.046875  3.28125 5.10416666666667  3.28125 4  C 3.28125 2.89583333333333  3.665771484375 1.953125  4.434814453125 1.171875  C 5.203857421875 0.390625  6.1318359375 0  7.21875 0  C 8.3056640625 0  9.233642578125 0.390625  10.002685546875 1.171875  C 10.771728515625 1.953125  11.15625 2.89583333333333  11.15625 4  C 11.15625 5.10416666666667  10.771728515625 6.046875  10.002685546875 6.828125  Z M 17.0625 5.66666666666667  L 17.0625 9.33333333333333  L 20.671875 9.33333333333333  C 20.7607421875 9.33333333333333  20.837646484375 9.36631944444444  20.902587890625 9.43229166666667  C 20.967529296875 9.49826388888889  21 9.57638888888889  21 9.66666666666667  L 21 11.6666666666667  C 21 11.7569444444444  20.967529296875 11.8350694444444  20.902587890625 11.9010416666667  C 20.837646484375 11.9670138888889  20.7607421875 12  20.671875 12  L 17.0625 12  L 17.0625 15.6666666666667  C 17.0625 15.7569444444444  17.030029296875 15.8350694444444  16.965087890625 15.9010416666667  C 16.900146484375 15.9670138888889  16.8232421875 16  16.734375 16  L 14.765625 16  C 14.6767578125 16  14.599853515625 15.9670138888889  14.534912109375 15.9010416666667  C 14.469970703125 15.8350694444444  14.4375 15.7569444444444  14.4375 15.6666666666667  L 14.4375 12  L 10.828125 12  C 10.7392578125 12  10.662353515625 11.9670138888889  10.597412109375 11.9010416666667  C 10.532470703125 11.8350694444444  10.5 11.7569444444444  10.5 11.6666666666667  L 10.5 9.66666666666667  C 10.5 9.57638888888889  10.532470703125 9.49826388888889  10.597412109375 9.43229166666667  C 10.662353515625 9.36631944444444  10.7392578125 9.33333333333333  10.828125 9.33333333333333  L 14.4375 9.33333333333333  L 14.4375 5.66666666666667  C 14.4375 5.57638888888889  14.469970703125 5.49826388888889  14.534912109375 5.43229166666667  C 14.599853515625 5.36631944444444  14.6767578125 5.33333333333333  14.765625 5.33333333333333  L 16.734375 5.33333333333333  C 16.8232421875 5.33333333333333  16.900146484375 5.36631944444444  16.965087890625 5.43229166666667  C 17.030029296875 5.49826388888889  17.0625 5.57638888888889  17.0625 5.66666666666667  Z M 9.515625 9.66666666666667  L 9.515625 11.6666666666667  C 9.515625 12.0277777777778  9.6455078125 12.3402777777778  9.9052734375 12.6041666666667  C 10.1650390625 12.8680555555556  10.47265625 13  10.828125 13  L 13.453125 13  L 13.453125 15.4791666666667  C 12.98828125 15.8263888888889  12.40380859375 16  11.69970703125 16  L 2.73779296875 16  C 1.91064453125 16  1.24755859375 15.7604166666667  0.74853515625 15.28125  C 0.24951171875 14.8020833333333  0 14.1423611111111  0 13.3020833333333  C 0 12.9340277777778  0.011962890625 12.5746527777778  0.035888671875 12.2239583333333  C 0.059814453125 11.8732638888889  0.107666015625 11.4947916666667  0.179443359375 11.0885416666667  C 0.251220703125 10.6822916666667  0.341796875 10.3055555555556  0.451171875 9.95833333333333  C 0.560546875 9.61111111111111  0.70751953125 9.27256944444444  0.89208984375 8.94270833333333  C 1.07666015625 8.61284722222222  1.28857421875 8.33159722222222  1.52783203125 8.09895833333333  C 1.76708984375 7.86631944444444  2.059326171875 7.68055555555556  2.404541015625 7.54166666666667  C 2.749755859375 7.40277777777778  3.130859375 7.33333333333333  3.5478515625 7.33333333333333  C 3.677734375 7.33333333333333  3.81103515625 7.39236111111111  3.94775390625 7.51041666666667  C 4.48779296875 7.93402777777778  5.015869140625 8.25173611111111  5.531982421875 8.46354166666667  C 6.048095703125 8.67534722222222  6.6103515625 8.78125  7.21875 8.78125  C 7.8271484375 8.78125  8.389404296875 8.67534722222222  8.905517578125 8.46354166666667  C 9.421630859375 8.25173611111111  9.94970703125 7.93402777777778  10.48974609375 7.51041666666667  C 10.62646484375 7.39236111111111  10.759765625 7.33333333333333  10.8896484375 7.33333333333333  C 11.7919921875 7.33333333333333  12.53369140625 7.66666666666667  13.11474609375 8.33333333333333  L 10.828125 8.33333333333333  C 10.47265625 8.33333333333333  10.1650390625 8.46527777777778  9.9052734375 8.72916666666667  C 9.6455078125 8.99305555555555  9.515625 9.30555555555555  9.515625 9.66666666666667  Z " fill-rule="nonzero" fill="#000000" stroke="none" transform="matrix(1 0 0 1 472 8 )" />
  </g>
</svg>