<?xml version="1.0" encoding="utf-8"?>
<svg version="1.1" xmlns:xlink="http://www.w3.org/1999/xlink" width="13px" height="10px" xmlns="http://www.w3.org/2000/svg">
  <g transform="matrix(1 0 0 1 -11 -51 )">
    <path d="M 5.90909090909091 2.5  C 5.90909090909091 3.878125  6.96681818181818 5  8.27272727272727 5  C 9.57863636363636 5  10.6363636363636 3.878125  10.6363636363636 2.5  C 10.6363636363636 1.11875  9.57863636363636 0  8.27272727272727 0  C 6.96681818181818 0  5.90909090909091 1.11875  5.90909090909091 2.5  Z M 4.72727272727273 3.75  L 2.95454545454545 3.75  L 2.95454545454545 1.875  L 1.77272727272727 1.875  L 1.77272727272727 3.75  L 0 3.75  L 0 5  L 1.77272727272727 5  L 1.77272727272727 6.875  L 2.95454545454545 6.875  L 2.95454545454545 5  L 4.72727272727273 5  L 4.72727272727273 3.75  Z M 13 8.75  C 13 7.084375  9.8475 6.25  8.27272727272727 6.25  C 6.69795454545455 6.25  3.54545454545455 7.084375  3.54545454545455 8.75  L 3.54545454545455 10  L 13 10  L 13 8.75  Z " fill-rule="nonzero" fill="#000000" stroke="none" transform="matrix(1 0 0 1 11 51 )" />
  </g>
</svg>