<?xml version="1.0" encoding="utf-8"?>
<svg version="1.1" xmlns:xlink="http://www.w3.org/1999/xlink" width="506px" height="300px" xmlns="http://www.w3.org/2000/svg">
  <defs>
    <filter x="259px" y="89px" width="506px" height="300px" filterUnits="userSpaceOnUse" id="filter57">
      <feOffset dx="0" dy="6" in="SourceAlpha" result="shadowOffsetInner" />
      <feGaussianBlur stdDeviation="6" in="shadowOffsetInner" result="shadowGaussian" />
      <feComposite in2="shadowGaussian" operator="atop" in="SourceAlpha" result="shadowComposite" />
      <feColorMatrix type="matrix" values="0 0 0 0 0  0 0 0 0 0  0 0 0 0 0  0 0 0 0.168627450980392 0  " in="shadowComposite" />
    </filter>
    <g id="widget58">
      <path d="M 272 99  A 3 3 0 0 1 275 96 L 749 96  A 3 3 0 0 1 752 99 L 752 367  A 3 3 0 0 1 749 370 L 275 370  A 3 3 0 0 1 272 367 L 272 99  Z " fill-rule="nonzero" fill="#ffffff" stroke="none" />
      <path d="M 271.5 99  A 3.5 3.5 0 0 1 275 95.5 L 749 95.5  A 3.5 3.5 0 0 1 752.5 99 L 752.5 367  A 3.5 3.5 0 0 1 749 370.5 L 275 370.5  A 3.5 3.5 0 0 1 271.5 367 L 271.5 99  Z " stroke-width="1" stroke="#000000" fill="none" stroke-opacity="0.149019607843137" />
    </g>
  </defs>
  <g transform="matrix(1 0 0 1 -259 -89 )">
    <use xlink:href="#widget58" filter="url(#filter57)" />
    <use xlink:href="#widget58" />
  </g>
</svg>