<?xml version="1.0" encoding="utf-8"?>
<svg version="1.1" xmlns:xlink="http://www.w3.org/1999/xlink" width="22px" height="20px" xmlns="http://www.w3.org/2000/svg">
  <g transform="matrix(1 0 0 1 -2 -3 )">
    <path d="M 22 9.99999999999999  L 18 4.99999999999999  L 14 9.99999999999999  L 17 9.99999999999999  C 17 14.14375  14.315 17.5  11 17.5  C 9.985 17.5  9.035 17.18125  8.195 16.63125  L 6.735 18.45625  C 7.975 19.425  9.43 20  11 20  C 15.42 20  19 15.525  19 9.99999999999999  L 22 9.99999999999999  Z M 8 9.99999999999999  L 5 9.99999999999999  C 5 5.85625  7.68500000000001 2.5  11 2.5  C 12.015 2.5  12.965 2.81875  13.805 3.36875000000001  L 15.265 1.54375000000001  C 14.025 0.57499999999999  12.57 0  11 0  C 6.57999999999999 0  3 4.47500000000001  3 9.99999999999999  L 0 9.99999999999999  L 4 15  L 8 9.99999999999999  Z " fill-rule="nonzero" fill="#000000" stroke="none" transform="matrix(1 0 0 1 2 3 )" />
  </g>
</svg>