<?xml version="1.0" encoding="utf-8"?>
<svg version="1.1" xmlns:xlink="http://www.w3.org/1999/xlink" width="582px" height="432px" xmlns="http://www.w3.org/2000/svg">
  <defs>
    <filter x="221px" y="67px" width="582px" height="432px" filterUnits="userSpaceOnUse" id="filter43">
      <feOffset dx="0" dy="6" in="SourceAlpha" result="shadowOffsetInner" />
      <feGaussianBlur stdDeviation="6" in="shadowOffsetInner" result="shadowGaussian" />
      <feComposite in2="shadowGaussian" operator="atop" in="SourceAlpha" result="shadowComposite" />
      <feColorMatrix type="matrix" values="0 0 0 0 0  0 0 0 0 0  0 0 0 0 0  0 0 0 0.168627450980392 0  " in="shadowComposite" />
    </filter>
    <g id="widget44">
      <path d="M 234 77  A 3 3 0 0 1 237 74 L 787 74  A 3 3 0 0 1 790 77 L 790 477  A 3 3 0 0 1 787 480 L 237 480  A 3 3 0 0 1 234 477 L 234 77  Z " fill-rule="nonzero" fill="#ffffff" stroke="none" />
      <path d="M 233.5 77  A 3.5 3.5 0 0 1 237 73.5 L 787 73.5  A 3.5 3.5 0 0 1 790.5 77 L 790.5 477  A 3.5 3.5 0 0 1 787 480.5 L 237 480.5  A 3.5 3.5 0 0 1 233.5 477 L 233.5 77  Z " stroke-width="1" stroke="#000000" fill="none" stroke-opacity="0.149019607843137" />
    </g>
  </defs>
  <g transform="matrix(1 0 0 1 -221 -67 )">
    <use xlink:href="#widget44" filter="url(#filter43)" />
    <use xlink:href="#widget44" />
  </g>
</svg>