<?xml version="1.0" encoding="utf-8"?>
<svg version="1.1" xmlns:xlink="http://www.w3.org/1999/xlink" width="12px" height="12px" viewBox="418 237  12 12" xmlns="http://www.w3.org/2000/svg">
  <path d="M 418.5 239  A 1.5 1.5 0 0 1 420 237.5 L 428 237.5  A 1.5 1.5 0 0 1 429.5 239 L 429.5 247  A 1.5 1.5 0 0 1 428 248.5 L 420 248.5  A 1.5 1.5 0 0 1 418.5 247 L 418.5 239  Z " fill-rule="nonzero" fill="#f2f1f1" stroke="none" />
  <path d="M 418.5 239  A 1.5 1.5 0 0 1 420 237.5 L 428 237.5  A 1.5 1.5 0 0 1 429.5 239 L 429.5 247  A 1.5 1.5 0 0 1 428 248.5 L 420 248.5  A 1.5 1.5 0 0 1 418.5 247 L 418.5 239  Z " stroke-width="1" stroke="#686868" fill="none" />
  <path d="M 420.571428571429 243  L 423.142857142857 245.571428571429  L 427.428571428571 239.571428571429  " stroke-width="2.57142857142857" stroke="#686868" fill="none" />
</svg>