<?xml version="1.0" encoding="utf-8"?>
<svg version="1.1" xmlns:xlink="http://www.w3.org/1999/xlink" width="12px" height="12px" viewBox="418 252  12 12" xmlns="http://www.w3.org/2000/svg">
  <path d="M 418.5 254  A 1.5 1.5 0 0 1 420 252.5 L 428 252.5  A 1.5 1.5 0 0 1 429.5 254 L 429.5 262  A 1.5 1.5 0 0 1 428 263.5 L 420 263.5  A 1.5 1.5 0 0 1 418.5 262 L 418.5 254  Z " fill-rule="nonzero" fill="#f2f1f1" stroke="none" />
  <path d="M 418.5 254  A 1.5 1.5 0 0 1 420 252.5 L 428 252.5  A 1.5 1.5 0 0 1 429.5 254 L 429.5 262  A 1.5 1.5 0 0 1 428 263.5 L 420 263.5  A 1.5 1.5 0 0 1 418.5 262 L 418.5 254  Z " stroke-width="1" stroke="#686868" fill="none" />
  <path d="M 420.571428571429 258  L 423.142857142857 260.571428571429  L 427.428571428571 254.571428571429  " stroke-width="2.57142857142857" stroke="#686868" fill="none" />
</svg>