<?xml version="1.0" encoding="utf-8"?>
<svg version="1.1" xmlns:xlink="http://www.w3.org/1999/xlink" width="12px" height="12px" viewBox="418 341  12 12" xmlns="http://www.w3.org/2000/svg">
  <path d="M 418.5 343  A 1.5 1.5 0 0 1 420 341.5 L 428 341.5  A 1.5 1.5 0 0 1 429.5 343 L 429.5 351  A 1.5 1.5 0 0 1 428 352.5 L 420 352.5  A 1.5 1.5 0 0 1 418.5 351 L 418.5 343  Z " fill-rule="nonzero" fill="#f0f0f0" stroke="none" />
  <path d="M 418.5 343  A 1.5 1.5 0 0 1 420 341.5 L 428 341.5  A 1.5 1.5 0 0 1 429.5 343 L 429.5 351  A 1.5 1.5 0 0 1 428 352.5 L 420 352.5  A 1.5 1.5 0 0 1 418.5 351 L 418.5 343  Z " stroke-width="1" stroke="#686868" fill="none" />
</svg>