<?xml version="1.0" encoding="utf-8"?>
<svg version="1.1" xmlns:xlink="http://www.w3.org/1999/xlink" width="12px" height="12px" viewBox="418 356  12 12" xmlns="http://www.w3.org/2000/svg">
  <path d="M 418.5 358  A 1.5 1.5 0 0 1 420 356.5 L 428 356.5  A 1.5 1.5 0 0 1 429.5 358 L 429.5 366  A 1.5 1.5 0 0 1 428 367.5 L 420 367.5  A 1.5 1.5 0 0 1 418.5 366 L 418.5 358  Z " fill-rule="nonzero" fill="#f2f1f1" stroke="none" />
  <path d="M 418.5 358  A 1.5 1.5 0 0 1 420 356.5 L 428 356.5  A 1.5 1.5 0 0 1 429.5 358 L 429.5 366  A 1.5 1.5 0 0 1 428 367.5 L 420 367.5  A 1.5 1.5 0 0 1 418.5 366 L 418.5 358  Z " stroke-width="1" stroke="#686868" fill="none" />
</svg>