<?xml version="1.0" encoding="utf-8"?>
<svg version="1.1" xmlns:xlink="http://www.w3.org/1999/xlink" width="12px" height="12px" viewBox="418 401  12 12" xmlns="http://www.w3.org/2000/svg">
  <path d="M 418.5 403  A 1.5 1.5 0 0 1 420 401.5 L 428 401.5  A 1.5 1.5 0 0 1 429.5 403 L 429.5 411  A 1.5 1.5 0 0 1 428 412.5 L 420 412.5  A 1.5 1.5 0 0 1 418.5 411 L 418.5 403  Z " fill-rule="nonzero" fill="#f2f1f1" stroke="none" />
  <path d="M 418.5 403  A 1.5 1.5 0 0 1 420 401.5 L 428 401.5  A 1.5 1.5 0 0 1 429.5 403 L 429.5 411  A 1.5 1.5 0 0 1 428 412.5 L 420 412.5  A 1.5 1.5 0 0 1 418.5 411 L 418.5 403  Z " stroke-width="1" stroke="#686868" fill="none" />
  <path d="M 420.571428571429 407  L 423.142857142857 409.571428571429  L 427.428571428571 403.571428571429  " stroke-width="2.57142857142857" stroke="#686868" fill="none" />
</svg>