<?xml version="1.0" encoding="utf-8"?>
<svg version="1.1" xmlns:xlink="http://www.w3.org/1999/xlink" width="20px" height="20px" xmlns="http://www.w3.org/2000/svg">
  <g transform="matrix(1 0 0 1 -3 -3 )">
    <path d="M 20 9.99999999999999  L 16.3636363636364 4.99999999999999  L 12.7272727272727 9.99999999999999  L 15.4545454545454 9.99999999999999  C 15.4545454545454 14.14375  13.0136363636364 17.5  10 17.5  C 9.07727272727273 17.5  8.21363636363636 17.18125  7.45 16.63125  L 6.12272727272727 18.45625  C 7.25 19.425  8.57272727272727 20  10 20  C 14.0181818181818 20  17.2727272727273 15.525  17.2727272727273 9.99999999999999  L 20 9.99999999999999  Z M 7.27272727272728 9.99999999999999  L 4.54545454545454 9.99999999999999  C 4.54545454545454 5.85625  6.98636363636364 2.5  10 2.5  C 10.9227272727273 2.5  11.7863636363636 2.81875  12.55 3.36875000000001  L 13.8772727272727 1.54375000000001  C 12.75 0.57499999999999  11.4272727272727 0  10 0  C 5.98181818181818 0  2.72727272727272 4.47500000000001  2.72727272727272 9.99999999999999  L 0 9.99999999999999  L 3.63636363636363 15  L 7.27272727272728 9.99999999999999  Z " fill-rule="nonzero" fill="#000000" stroke="none" transform="matrix(1 0 0 1 3 3 )" />
  </g>
</svg>