<?xml version="1.0" encoding="utf-8"?>
<svg version="1.1" xmlns:xlink="http://www.w3.org/1999/xlink" width="14px" height="15px" xmlns="http://www.w3.org/2000/svg">
  <g transform="matrix(1 0 0 1 -179 -10 )">
    <path d="M 14 13.7221269296741  L 10.0057175528874 9.43396226415094  L 9.36935391652373 9.43396226415094  L 9.14922813036021 9.19811320754717  C 9.93367638650658 8.22469982847341  10.4059462550029 6.95969125214408  10.4059462550029 5.5746140651801  C 10.4059462550029 2.49571183533448  8.07661520869068 0  5.20297312750143 0  C 2.32933104631218 0  0 2.49571183533448  0 5.5746140651801  C 0 8.65351629502573  2.32933104631218 11.1492281303602  5.20297312750143 11.1492281303602  C 6.49571183533448 11.1492281303602  7.67638650657519 10.6432246998285  8.58490566037736 9.80703259005146  L 8.80503144654088 10.0428816466552  L 8.80503144654088 10.7204116638079  L 12.8073184676958 15  L 14 13.7221269296741  Z M 8.80503144654088 5.5746140651801  C 8.80503144654088 7.70583190394511  7.19210977701544 9.43396226415094  5.20297312750143 9.43396226415094  C 3.21383647798742 9.43396226415094  1.60091480846198 7.70583190394511  1.60091480846198 5.5746140651801  C 1.60091480846198 3.44339622641509  3.21383647798742 1.71526586620926  5.20297312750143 1.71526586620926  C 7.19210977701544 1.71526586620926  8.80503144654088 3.44339622641509  8.80503144654088 5.5746140651801  Z " fill-rule="nonzero" fill="#8e8e8e" stroke="none" transform="matrix(1 0 0 1 179 10 )" />
  </g>
</svg>