<?xml version="1.0" encoding="utf-8"?>
<svg version="1.1" xmlns:xlink="http://www.w3.org/1999/xlink" width="20px" height="20px" xmlns="http://www.w3.org/2000/svg">
  <g transform="matrix(1 0 0 1 -3 -3 )">
    <path d="M 20 0  L 13.3333333333333 0  L 15.8833333333333 2.55  L 12.6833333333333 5.74444444444444  L 14.2555555555556 7.31666666666667  L 17.45 4.11666666666667  L 20 6.66666666666667  L 20 0  Z M 0 0  L 0 6.66666666666667  L 2.55 4.11666666666667  L 5.74444444444444 7.31666666666667  L 7.31666666666667 5.74444444444445  L 4.11666666666667 2.55  L 6.66666666666667 0  L 0 0  Z M 0 20  L 6.66666666666667 20  L 4.11666666666667 17.45  L 7.31666666666667 14.2555555555556  L 5.74444444444445 12.6833333333333  L 2.55 15.8833333333333  L 0 13.3333333333333  L 0 20  Z M 20 20  L 20 13.3333333333333  L 17.45 15.8833333333333  L 14.2555555555556 12.6833333333333  L 12.6833333333333 14.2555555555556  L 15.8833333333333 17.45  L 13.3333333333333 20  L 20 20  Z " fill-rule="nonzero" fill="#000000" stroke="none" transform="matrix(1 0 0 1 3 3 )" />
  </g>
</svg>