<?xml version="1.0" encoding="utf-8"?>
<svg version="1.1" xmlns:xlink="http://www.w3.org/1999/xlink" width="228px" height="426px" xmlns="http://www.w3.org/2000/svg">
  <defs>
    <filter x="-10px" y="-6px" width="228px" height="426px" filterUnits="userSpaceOnUse" id="filter6">
      <feOffset dx="0" dy="6" in="SourceAlpha" result="shadowOffsetInner" />
      <feGaussianBlur stdDeviation="6" in="shadowOffsetInner" result="shadowGaussian" />
      <feComposite in2="shadowGaussian" operator="atop" in="SourceAlpha" result="shadowComposite" />
      <feColorMatrix type="matrix" values="0 0 0 0 0  0 0 0 0 0  0 0 0 0 0  0 0 0 0.168627450980392 0  " in="shadowComposite" />
    </filter>
    <g id="widget7">
      <path d="M 3 4  A 3 3 0 0 1 6 1 L 202 1  A 3 3 0 0 1 205 4 L 205 398  A 3 3 0 0 1 202 401 L 6 401  A 3 3 0 0 1 3 398 L 3 4  Z " fill-rule="nonzero" fill="#ffffff" stroke="none" />
      <path d="M 2.5 4  A 3.5 3.5 0 0 1 6 0.5 L 202 0.5  A 3.5 3.5 0 0 1 205.5 4 L 205.5 398  A 3.5 3.5 0 0 1 202 401.5 L 6 401.5  A 3.5 3.5 0 0 1 2.5 398 L 2.5 4  Z " stroke-width="1" stroke="#000000" fill="none" stroke-opacity="0.149019607843137" />
    </g>
  </defs>
  <g transform="matrix(1 0 0 1 10 6 )">
    <use xlink:href="#widget7" filter="url(#filter6)" />
    <use xlink:href="#widget7" />
  </g>
</svg>