<?xml version="1.0" encoding="utf-8"?>
<svg version="1.1" xmlns:xlink="http://www.w3.org/1999/xlink" width="228px" height="430px" xmlns="http://www.w3.org/2000/svg">
  <defs>
    <filter x="-12px" y="-6px" width="228px" height="430px" filterUnits="userSpaceOnUse" id="filter8">
      <feOffset dx="0" dy="6" in="SourceAlpha" result="shadowOffsetInner" />
      <feGaussianBlur stdDeviation="6" in="shadowOffsetInner" result="shadowGaussian" />
      <feComposite in2="shadowGaussian" operator="atop" in="SourceAlpha" result="shadowComposite" />
      <feColorMatrix type="matrix" values="0 0 0 0 0  0 0 0 0 0  0 0 0 0 0  0 0 0 0.168627450980392 0  " in="shadowComposite" />
    </filter>
    <g id="widget9">
      <path d="M 1 4  A 3 3 0 0 1 4 1 L 200 1  A 3 3 0 0 1 203 4 L 203 402  A 3 3 0 0 1 200 405 L 4 405  A 3 3 0 0 1 1 402 L 1 4  Z " fill-rule="nonzero" fill="#ffffff" stroke="none" />
      <path d="M 0.5 4  A 3.5 3.5 0 0 1 4 0.5 L 200 0.5  A 3.5 3.5 0 0 1 203.5 4 L 203.5 402  A 3.5 3.5 0 0 1 200 405.5 L 4 405.5  A 3.5 3.5 0 0 1 0.5 402 L 0.5 4  Z " stroke-width="1" stroke="#000000" fill="none" stroke-opacity="0.149019607843137" />
    </g>
  </defs>
  <g transform="matrix(1 0 0 1 12 6 )">
    <use xlink:href="#widget9" filter="url(#filter8)" />
    <use xlink:href="#widget9" />
  </g>
</svg>