<?xml version="1.0" encoding="utf-8"?>
<svg version="1.1" xmlns:xlink="http://www.w3.org/1999/xlink" width="20px" height="20px" xmlns="http://www.w3.org/2000/svg">
  <g transform="matrix(1 0 0 1 -4 -3 )">
    <path d="M 19.9885714285714 18.2857142857143  L 14.2857142857143 12.5714285714286  L 13.3828571428571 12.5714285714286  L 13.0628571428571 12.2628571428571  C 14.1828571428571 10.96  14.8571428571429 9.26857142857143  14.8571428571429 7.42857142857143  C 14.8571428571429 3.32571428571429  11.5314285714286 0  7.42857142857143 0  C 3.32571428571429 0  0 3.32571428571429  0 7.42857142857143  C 0 11.5314285714286  3.32571428571429 14.8571428571429  7.42857142857143 14.8571428571429  C 9.26857142857143 14.8571428571429  10.96 14.1828571428571  12.2628571428571 13.0628571428571  L 12.5714285714286 13.3828571428571  L 12.5714285714286 14.2857142857143  L 18.2857142857143 19.9885714285714  L 19.9885714285714 18.2857142857143  Z M 12.5714285714286 7.42857142857143  C 12.5714285714286 10.2742857142857  10.2742857142857 12.5714285714286  7.42857142857143 12.5714285714286  C 4.58285714285714 12.5714285714286  2.28571428571429 10.2742857142857  2.28571428571429 7.42857142857143  C 2.28571428571429 4.58285714285714  4.58285714285714 2.28571428571429  7.42857142857143 2.28571428571429  C 10.2742857142857 2.28571428571429  12.5714285714286 4.58285714285714  12.5714285714286 7.42857142857143  Z M 4.57142857142857 8  L 4.57142857142857 6.85714285714286  L 10.2857142857143 6.85714285714286  L 10.2857142857143 8  L 4.57142857142857 8  Z " fill-rule="nonzero" fill="#000000" stroke="none" transform="matrix(1 0 0 1 4 3 )" />
  </g>
</svg>