<?xml version="1.0" encoding="utf-8"?>
<svg version="1.1" xmlns:xlink="http://www.w3.org/1999/xlink" width="114px" height="532px" xmlns="http://www.w3.org/2000/svg">
  <defs>
    <filter x="904px" y="165px" width="114px" height="532px" filterUnits="userSpaceOnUse" id="filter17">
      <feOffset dx="0" dy="6" in="SourceAlpha" result="shadowOffsetInner" />
      <feGaussianBlur stdDeviation="6" in="shadowOffsetInner" result="shadowGaussian" />
      <feComposite in2="shadowGaussian" operator="atop" in="SourceAlpha" result="shadowComposite" />
      <feColorMatrix type="matrix" values="0 0 0 0 0  0 0 0 0 0  0 0 0 0 0  0 0 0 0.168627450980392 0  " in="shadowComposite" />
    </filter>
    <g id="widget18">
      <path d="M 917 172  L 1005 172  L 1005 675  A 3 3 0 0 1 1002 678 L 920 678  A 3 3 0 0 1 917 675 L 917 172  Z " fill-rule="nonzero" fill="#ffffff" stroke="none" />
      <path d="M 916.5 171.5  L 1005.5 171.5  L 1005.5 675  A 3.5 3.5 0 0 1 1002 678.5 L 920 678.5  A 3.5 3.5 0 0 1 916.5 675 L 916.5 171.5  Z " stroke-width="1" stroke="#000000" fill="none" stroke-opacity="0.149019607843137" />
    </g>
  </defs>
  <g transform="matrix(1 0 0 1 -904 -165 )">
    <use xlink:href="#widget18" filter="url(#filter17)" />
    <use xlink:href="#widget18" />
  </g>
</svg>