<?xml version="1.0" encoding="utf-8"?>
<svg version="1.1" xmlns:xlink="http://www.w3.org/1999/xlink" width="379px" height="345px" xmlns="http://www.w3.org/2000/svg">
  <defs>
    <filter x="-13px" y="-7px" width="379px" height="345px" filterUnits="userSpaceOnUse" id="filter19">
      <feOffset dx="0" dy="6" in="SourceAlpha" result="shadowOffsetInner" />
      <feGaussianBlur stdDeviation="6" in="shadowOffsetInner" result="shadowGaussian" />
      <feComposite in2="shadowGaussian" operator="atop" in="SourceAlpha" result="shadowComposite" />
      <feColorMatrix type="matrix" values="0 0 0 0 0  0 0 0 0 0  0 0 0 0 0  0 0 0 0.168627450980392 0  " in="shadowComposite" />
    </filter>
    <g id="widget20">
      <path d="M 0 0  L 353 0  L 353 310  A 9 9 0 0 1 344 319 L 9 319  A 9 9 0 0 1 0 310 L 0 0  Z " fill-rule="nonzero" fill="#ffffff" stroke="none" />
      <path d="M -0.5 -0.5  L 353.5 -0.5  L 353.5 310  A 9.5 9.5 0 0 1 344 319.5 L 9 319.5  A 9.5 9.5 0 0 1 -0.5 310 L -0.5 -0.5  Z " stroke-width="1" stroke="#000000" fill="none" stroke-opacity="0.149019607843137" />
    </g>
  </defs>
  <g transform="matrix(1 0 0 1 13 7 )">
    <use xlink:href="#widget20" filter="url(#filter19)" />
    <use xlink:href="#widget20" />
  </g>
</svg>