<?xml version="1.0" encoding="utf-8"?>
<svg version="1.1" xmlns:xlink="http://www.w3.org/1999/xlink" width="15px" height="19px" xmlns="http://www.w3.org/2000/svg">
  <g transform="matrix(1 0 0 1 -90 -4 )">
    <path d="M 15 5.7  L 9.375 0  L 1.875 0  C 0.8390625 0  0.0093749999999998 0.85025  0 1.9  L 0 17.1  C 0 18.14975  0.8296875 19  1.865625 19  L 13.125 19  C 14.1609375 19  15 18.14975  15 17.1  L 15 5.7  Z M 11.25 11.4  L 11.25 13.3  L 8.4375 13.3  L 8.4375 16.15  L 6.5625 16.15  L 6.5625 13.3  L 3.75 13.3  L 3.75 11.4  L 6.5625 11.4  L 6.5625 8.55  L 8.4375 8.55  L 8.4375 11.4  L 11.25 11.4  Z M 13.59375 6.65  L 8.4375 6.65  L 8.4375 1.425  L 13.59375 6.65  Z " fill-rule="nonzero" fill="#000000" stroke="none" transform="matrix(1 0 0 1 90 4 )" />
  </g>
</svg>