<?xml version="1.0" encoding="utf-8"?>
<svg version="1.1" xmlns:xlink="http://www.w3.org/1999/xlink" width="15px" height="15px" xmlns="http://www.w3.org/2000/svg">
  <g transform="matrix(1 0 0 1 -332 -273 )">
    <path d="M 14.8519039618271 9.4725  L 13.2254276987126 8.23125  C 13.256261371947 7.99125  13.2793866268728 7.7475  13.2793866268728 7.5  C 13.2793866268728 7.2525  13.256261371947 7.00875  13.2254276987126 6.76875  L 14.8557581709815 5.5275  C 15.0022181188449 5.415  15.0446144195421 5.2125  14.9482591906847 5.0475  L 13.4065755289647 2.44875  C 13.3102203001072 2.2875  13.1098014240836 2.22  12.9363620121401 2.2875  L 11.0169658532987 3.04125  C 10.6199823104058 2.745  10.1844566759699 2.49375  9.71424315914532 2.3025  L 9.42517747257282 0.315  C 9.39048959018412 0.13875  9.23246701485783 0  9.03975655714283 0  L 5.95638923370287 0  C 5.76367877598787 0  5.60565620066157 0.13875  5.57482252742718 0.315  L 5.28575684085468 2.3025  C 4.81554332403009 2.49375  4.38001768959419 2.74125  3.9830341467013 3.04125  L 2.06363798785992 2.2875  C 1.89019857591642 2.22375  1.68977969989283 2.2875  1.59342447103533 2.44875  L 0.051740809315347 5.0475  C -0.0446144195421518 5.20875  -0.00221811884485221 5.41125  0.144241829018546 5.5275  L 1.77071809213312 6.76875  C 1.73988441889872 7.00875  1.71675916397292 7.2525  1.71675916397292 7.5  C 1.71675916397292 7.7475  1.73988441889872 7.99125  1.77071809213312 8.23125  L 0.144241829018546 9.4725  C -0.00221811884485189 9.585  -0.0446144195421514 9.7875  0.0517408093153473 9.9525  L 1.59342447103533 12.55125  C 1.68977969989283 12.7125  1.89019857591642 12.78  2.06363798785992 12.7125  L 3.9830341467013 11.95875  C 4.38001768959419 12.255  4.81554332403008 12.50625  5.28575684085468 12.6975  L 5.57482252742718 14.685  C 5.60565620066157 14.86125  5.76367877598787 15  5.95638923370287 15  L 9.03975655714283 15  C 9.23246701485783 15  9.39048959018412 14.86125  9.42132326341852 14.685  L 9.71038894999102 12.6975  C 10.1806024668156 12.50625  10.6161281012515 12.25875  11.0131116441444 11.95875  L 12.9325078029858 12.7125  C 13.1059472149293 12.77625  13.3063660909529 12.7125  13.4027213198104 12.55125  L 14.9444049815303 9.9525  C 15.0407602103878 9.79125  14.9983639096905 9.58875  14.8519039618271 9.4725  Z M 10.1960193034328 7.5  C 10.1960193034328 8.95125  8.98965183813693 10.125  7.49807289542285 10.125  C 6.00649395270877 10.125  4.80012648741288 8.95125  4.80012648741288 7.5  C 4.80012648741288 6.04875  6.00649395270877 4.875  7.49807289542285 4.875  C 8.98965183813693 4.875  10.1960193034328 6.04875  10.1960193034328 7.5  Z " fill-rule="nonzero" fill="#000000" stroke="none" transform="matrix(1 0 0 1 332 273 )" />
  </g>
</svg>