<?xml version="1.0" encoding="utf-8"?>
<svg version="1.1" xmlns:xlink="http://www.w3.org/1999/xlink" width="25px" height="20px" xmlns="http://www.w3.org/2000/svg">
  <g transform="matrix(1 0 0 1 -13 -3 )">
    <path d="M 13.9311653193267 6.36363636363635  C 14.5509775733275 6.36363636363635  15.0874359776997 6.5995150679959  15.5405405405405 7.07127247735099  L 15.5405405405405 0.571428571428574  C 15.5405405405405 0.412698412698414  15.5980198948949 0.277777777777771  15.7129786036036 0.166666666666667  C 15.8279373123123 0.0555555555555619  15.96753003003 0  16.1317567567568 0  L 21.6497747747748 0  C 21.8140015015015 0  21.9946509009009 0.0396825396825307  22.191722972973 0.119047619047611  C 22.388795045045 0.198412698412691  22.5448104354354 0.293650793650803  22.6597691441441 0.404761904761907  L 24.5812218468468 2.26190476190476  C 24.6961805555556 2.37301587301586  24.7947165915916 2.52380952380952  24.876829954955 2.71428571428572  C 24.9589433183183 2.90476190476191  25 3.07936507936508  25 3.23809523809524  L 25 10.0952380952381  C 25 10.2539682539683  24.9425206456456 10.3888888888889  24.8275619369369 10.5  C 24.7126032282282 10.6111111111111  24.5730105105105 10.6666666666667  24.4087837837838 10.6666666666667  L 16.3096569592117 10.666665975902  L 16.3096569592117 10.9090909090909  L 18.3483640791132 10.9090909090909  C 18.7306216640947 10.9090909090909  19.0810244503278 11.0057607323232  19.3995724378124 11.1991003787879  C 19.718120425297 11.3924400252525  19.9552617048688 11.6706123737374  20.110996276528 12.0336174242424  C 20.2171789390228 12.2861426767677  20.2702702702703 12.5544507575758  20.2702702702703 12.8385416666667  C 20.2702702702703 13.3278093434343  20.1074568544448 13.8012941919192  19.7818300227939 14.2589962121212  L 16.6494414791953 18.5558712121212  C 16.3450511800433 18.9741161616162  15.9344782183965 19.319365530303  15.4177225942548 19.5916193181818  C 14.9009669701131 19.8638731060606  14.4054478784704 20  13.9311653193267 20  L 2.37849163988504 20  C 1.72723797658318 20  1.16800928744355 19.7395833333333  0.700805572466128 19.21875  C 0.23360185748871 18.6979166666667  0 18.074494949495  0 17.3484848484849  L 0 5.98484848484848  C 0 5.25883838383838  0.23360185748871 4.63541666666667  0.700805572466128 4.11458333333333  C 1.16800928744355 3.59375  1.72723797658318 3.33333333333333  2.37849163988504 3.33333333333333  L 5.77633683972081 3.33333333333333  C 6.42759050302267 3.33333333333333  6.9868191921623 3.59375  7.45402290713972 4.11458333333333  C 7.92122662211714 4.63541666666667  8.15482847960585 5.25883838383838  8.15482847960585 5.98484848484848  L 8.15482847960585 6.36363636363635  L 13.9311653193267 6.36363636363635  Z M 21.0585585585586 0.761904761904759  L 16.3288288288288 0.761904761904759  L 16.3288288288288 9.90476190476191  L 24.2117117117117 9.90476190476191  L 24.2117117117117 3.80952380952381  L 21.6497747747748 3.80952380952381  C 21.485548048048 3.80952380952381  21.3459553303303 3.75396825396825  21.2309966216216 3.64285714285715  C 21.1160379129129 3.53174603174602  21.0585585585586 3.3968253968254  21.0585585585586 3.23809523809524  L 21.0585585585586 0.761904761904759  Z M 1.35135135135135 16.0819128787879  L 4.07741423980293 12.3532196969697  C 4.3888833831212 11.9349747474747  4.79945634476803 11.5897253787879  5.30913312474339 11.3174715909091  C 5.81880990471876 11.0452178030303  6.31432899636148 10.9090909090909  6.79569039967154 10.9090909090909  L 14.9505188792774 10.9090909090909  L 14.9505188792774 9.01515151515152  C 14.9505188792774 8.69949494949496  14.8514150609488 8.43118686868687  14.6532074242918 8.21022727272727  C 14.4549997876347 7.98926767676767  14.2143190859796 7.87878787878788  13.9311653193267 7.87878787878788  L 7.81504395962227 7.87878787878788  C 7.53189019296929 7.87878787878788  7.29120949131426 7.76830808080808  7.09300185465717 7.54734848484848  C 6.89479421800008 7.32638888888889  6.79569039967154 7.05808080808081  6.79569039967154 6.74242424242425  L 6.79569039967154 5.98484848484848  C 6.79569039967154 5.66919191919192  6.696586581343 5.40088383838383  6.49837894468591 5.17992424242425  C 6.30017130802883 4.95896464646465  6.05949060637379 4.84848484848485  5.77633683972081 4.84848484848485  L 2.37849163988504 4.84848484848485  C 2.09533787323206 4.84848484848485  1.85465717157703 4.95896464646465  1.65644953491994 5.17992424242425  C 1.45824189826285 5.40088383838383  1.35913807993431 5.66919191919192  1.35135135135135 5.98484848484848  L 1.35135135135135 16.0819128787879  Z M 14.8443362167825 18.2244318181818  C 15.1699630484335 18.0508207070707  15.421262016338 17.8416982323232  15.5982331204961 17.5970643939394  L 18.7200033978452 13.3001893939394  C 18.847422592839 13.1265782828283  18.911132190336 12.9726957070707  18.911132190336 12.8385416666667  C 18.911132190336 12.5623421717172  18.7235428199284 12.4242424242424  18.3483640791132 12.4242424242424  L 6.79569039967154 12.4242424242424  C 6.51253663301856 12.4242424242424  6.20991604490819 12.5090751262626  5.88782863534042 12.678740530303  C 5.56574122577266 12.8484059343434  5.31267254682655 13.0555555555556  5.12862259850212 13.3001893939394  L 2.006852321153 17.5970643939394  C 1.87943312615916 17.7864583333333  1.81572352866224 17.9442866161616  1.81572352866224 18.0705492424242  C 1.81572352866224 18.3467487373737  2.00331289906984 18.4848484848485  2.37849163988504 18.4848484848485  L 13.9311653193267 18.4848484848485  C 14.2143190859796 18.4848484848485  14.5187093851316 18.3980429292929  14.8443362167825 18.2244318181818  Z M 21.4527027027027 6.20833333333333  L 23.0847057995495 4.625  C 23.1216568130631 4.58928571428572  23.168871996997 4.57142857142857  23.2263513513514 4.57142857142857  C 23.242774024024 4.57142857142857  23.267408033033 4.57539682539683  23.3002533783784 4.58333333333333  C 23.3823667417417 4.61507936507936  23.4234234234234 4.67460317460317  23.4234234234234 4.76190476190476  L 23.4234234234234 8.19047619047618  C 23.4234234234234 8.27777777777777  23.3823667417417 8.33730158730159  23.3002533783784 8.36904761904761  C 23.267408033033 8.37698412698414  23.242774024024 8.38095238095239  23.2263513513514 8.38095238095239  C 23.168871996997 8.38095238095239  23.1216568130631 8.36309523809524  23.0847057995495 8.32738095238094  L 21.4527027027027 6.74404761904761  L 21.4527027027027 6.20833333333333  Z M 17.1171171171171 5.33333333333333  C 17.1171171171171 5.12698412698414  17.1951248123123 4.94841269841269  17.3511402027027 4.79761904761906  C 17.5071555930931 4.6468253968254  17.6919106606607 4.57142857142857  17.9054054054054 4.57142857142857  L 20.2702702702703 4.57142857142857  C 20.483765015015 4.57142857142857  20.6685200825826 4.6468253968254  20.824535472973 4.79761904761906  C 20.9805508633634 4.94841269841269  21.0585585585586 5.12698412698414  21.0585585585586 5.33333333333333  L 21.0585585585586 7.61904761904761  C 21.0585585585586 7.82539682539683  20.9805508633634 8.00396825396825  20.824535472973 8.15476190476191  C 20.6685200825826 8.30555555555556  20.483765015015 8.38095238095239  20.2702702702703 8.38095238095239  L 17.9054054054054 8.38095238095239  C 17.6919106606607 8.38095238095239  17.5071555930931 8.30555555555556  17.3511402027027 8.15476190476191  C 17.1951248123123 8.00396825396825  17.1171171171171 7.82539682539683  17.1171171171171 7.61904761904761  L 17.1171171171171 5.33333333333333  Z M 24.1624436936937 3.04761904761906  C 24.121387012012 2.93253968253968  24.0762246621622 2.85119047619048  24.0269566441441 2.80357142857143  L 22.0993454391892 0.940476190476185  C 22.0500774211712 0.892857142857148  21.9659112237237 0.849206349206346  21.8468468468468 0.809523809523815  L 21.8468468468468 3.04761904761906  L 24.1624436936937 3.04761904761906  Z " fill-rule="nonzero" fill="#000000" stroke="none" transform="matrix(1 0 0 1 13 3 )" />
  </g>
</svg>