<?xml version="1.0" encoding="utf-8"?>
<svg version="1.1" xmlns:xlink="http://www.w3.org/1999/xlink" width="25px" height="20px" xmlns="http://www.w3.org/2000/svg">
  <g transform="matrix(1 0 0 1 -13 -5 )">
    <path d="M 11.5384615384615 4  L 21.6346153846154 4  C 22.5560897435897 3.63636363636365  23.3473557692308 3.94886363636365  24.0084134615385 4.57386363636365  C 24.6694711538462 5.19886363636365  25 5.9469696969697  25 6.8181818181818  L 25 16.8181818181818  C 25 17.6893939393939  24.6694711538462 18.4375  24.0084134615385 19.0625  C 23.3473557692308 19.6875  22.5560897435897 20  21.6346153846154 20  L 3.36538461538462 20  C 2.44391025641026 20  1.65264423076923 19.6875  0.991586538461539 19.0625  C 0.330528846153847 18.4375  0 17.6893939393939  0 16.8181818181818  L 0 3.1818181818182  C 0 2.31060606060605  0.330528846153847 1.5625  0.991586538461539 0.9375  C 1.65264423076923 0.3125  2.44391025641026 0  3.36538461538462 0  L 8.17307692307692 0  C 9.09455128205128 0  9.88581730769231 0.3125  10.546875 0.9375  C 11.2079326923077 1.5625  11.5384615384615 2.31060606060605  11.5384615384615 3.1818181818182  L 11.5384615384615 4  Z M 3.36538461538462 18  L 21.6346153846154 18  C 22.0352564102564 18.1818181818182  22.3758012820513 18.0492424242425  22.65625 17.7840909090909  C 22.9366987179487 17.5189393939394  23.0769230769231 17.1969696969697  23 16.8181818181818  L 23 6.8181818181818  C 23.0769230769231 6.43939393939395  22.9366987179487 6.11742424242425  22.65625 5.85227272727275  C 22.3758012820513 5.5871212121212  22.0352564102564 5.45454545454545  21.6346153846154 6  L 11.0576923076923 6  C 10.6570512820513 5.45454545454545  10.3165064102564 5.3219696969697  10.0360576923077 5.0568181818182  C 9.75560897435898 4.79166666666665  9.61538461538462 4.46969696969695  9.61538461538462 4.0909090909091  L 9.61538461538462 3.1818181818182  C 9.61538461538462 2.8030303030303  9.47516025641026 2.4810606060606  9.19471153846154 2.2159090909091  C 8.91426282051282 1.9507575757576  8.57371794871795 1.8181818181818  8.17307692307692 1.8181818181818  L 3.36538461538462 1.8181818181818  C 2.96474358974359 1.8181818181818  2.62419871794872 1.9507575757576  2.34375 2.2159090909091  C 2.06330128205128 2.4810606060606  1.92307692307692 2.8030303030303  2 3.1818181818182  L 2 16.8181818181818  C 1.92307692307692 17.1969696969697  2.06330128205128 17.5189393939394  2.34375 17.7840909090909  C 2.62419871794872 18.0492424242425  2.96474358974359 18.1818181818182  3.36538461538462 18  Z M 13.125 6.4  C 13.2986111111111 6.4  13.4895833333333 6.44166666666665  13.6979166666667 6.525  C 13.90625 6.60833333333335  14.0711805555556 6.70833333333335  14.1927083333333 6.825  L 16.2239583333333 8.775  C 16.3454861111111 8.89166666666665  16.4496527777778 9.05  16.5364583333333 9.25  C 16.6232638888889 9.45  16.6666666666667 9.63333333333335  16.6666666666667 9.8  L 16.6666666666667 17  C 16.6666666666667 17.1666666666667  16.6059027777778 17.3083333333333  16.484375 17.425  C 16.3628472222222 17.5416666666667  16.2152777777778 17.6  16.0416666666667 17.6  L 7.29166666666667 17.6  C 7.11805555555556 17.6  6.97048611111111 17.5416666666667  6.84895833333333 17.425  C 6.72743055555556 17.3083333333333  6.66666666666667 17.1666666666667  7 17  L 7 7  C 6.66666666666667 6.83333333333335  6.72743055555556 6.69166666666665  6.84895833333333 6.575  C 6.97048611111111 6.45833333333335  7.11805555555556 6.4  7.29166666666667 6.4  L 13.125 6.4  Z M 12.5 7.2  L 7.5 7.2  L 7.5 16.8  L 15.8333333333333 16.8  L 15.8333333333333 10.4  L 13.125 10.4  C 12.9513888888889 10.4  12.8038194444444 10.3416666666667  12.6822916666667 10.225  C 12.5607638888889 10.1083333333333  12.5 9.96666666666665  12.5 9.8  L 12.5 7.2  Z M 9.16666666666667 14.6  C 9.16666666666667 14.5416666666667  9.18619791666667 14.49375  9.22526041666667 14.45625  C 9.26432291666667 14.41875  9.31423611111111 14.4  9.375 14.4  L 13.9583333333333 14.4  C 14.0190972222222 14.4  14.0690104166667 14.41875  14.1080729166667 14.45625  C 14.1471354166667 14.49375  14.1666666666667 14.5416666666667  14.1666666666667 14.6  L 14.1666666666667 15  C 14.1666666666667 15.0583333333333  14.1471354166667 15.10625  14.1080729166667 15.14375  C 14.0690104166667 15.18125  14.0190972222222 15.2  13.9583333333333 15.2  L 9.375 15.2  C 9.31423611111111 15.2  9.26432291666667 15.18125  9.22526041666667 15.14375  C 9.18619791666667 15.10625  9.16666666666667 15.0583333333333  9.16666666666667 15  L 9.16666666666667 14.6  Z M 9.16666666666667 13  C 9.16666666666667 12.9416666666667  9.18619791666667 12.89375  9.22526041666667 12.85625  C 9.26432291666667 12.81875  9.31423611111111 12.8  9.375 12.8  L 13.9583333333333 12.8  C 14.0190972222222 12.8  14.0690104166667 12.81875  14.1080729166667 12.85625  C 14.1471354166667 12.89375  14.1666666666667 12.9416666666667  14.1666666666667 13  L 14.1666666666667 13.4  C 14.1666666666667 13.4583333333333  14.1471354166667 13.50625  14.1080729166667 13.54375  C 14.0690104166667 13.58125  14.0190972222222 13.6  13.9583333333333 13.6  L 9.375 13.6  C 9.31423611111111 13.6  9.26432291666667 13.58125  9.22526041666667 13.54375  C 9.18619791666667 13.50625  9.16666666666667 13.4583333333333  9.16666666666667 13.4  L 9.16666666666667 13  Z M 9.375 12  C 9.31423611111111 12  9.26432291666667 11.98125  9.22526041666667 11.94375  C 9.18619791666667 11.90625  9.16666666666667 11.8583333333333  9.16666666666667 11.8  L 9.16666666666667 11.4  C 9.16666666666667 11.3416666666667  9.18619791666667 11.29375  9.22526041666667 11.25625  C 9.26432291666667 11.21875  9.31423611111111 11.2  9.375 11.2  L 13.9583333333333 11.2  C 14.0190972222222 11.2  14.0690104166667 11.21875  14.1080729166667 11.25625  C 14.1471354166667 11.29375  14.1666666666667 11.3416666666667  14.1666666666667 11.4  L 14.1666666666667 11.8  C 14.1666666666667 11.8583333333333  14.1471354166667 11.90625  14.1080729166667 11.94375  C 14.0690104166667 11.98125  14.0190972222222 12  13.9583333333333 12  L 9.375 12  Z M 9.16666666666667 14.6  C 9.16666666666667 14.5416666666667  9.18619791666667 14.49375  9.22526041666667 14.45625  C 9.26432291666667 14.41875  9.31423611111111 14.4  9.375 14.4  L 13.9583333333333 14.4  C 14.0190972222222 14.4  14.0690104166667 14.41875  14.1080729166667 14.45625  C 14.1471354166667 14.49375  14.1666666666667 14.5416666666667  14.1666666666667 14.6  L 14.1666666666667 15  C 14.1666666666667 15.0583333333333  14.1471354166667 15.10625  14.1080729166667 15.14375  C 14.0690104166667 15.18125  14.0190972222222 15.2  13.9583333333333 15.2  L 9.375 15.2  C 9.31423611111111 15.2  9.26432291666667 15.18125  9.22526041666667 15.14375  C 9.18619791666667 15.10625  9.16666666666667 15.0583333333333  9.16666666666667 15  L 9.16666666666667 14.6  Z M 9.16666666666667 13  C 9.16666666666667 12.9416666666667  9.18619791666667 12.89375  9.22526041666667 12.85625  C 9.26432291666667 12.81875  9.31423611111111 12.8  9.375 12.8  L 13.9583333333333 12.8  C 14.0190972222222 12.8  14.0690104166667 12.81875  14.1080729166667 12.85625  C 14.1471354166667 12.89375  14.1666666666667 12.9416666666667  14.1666666666667 13  L 14.1666666666667 13.4  C 14.1666666666667 13.4583333333333  14.1471354166667 13.50625  14.1080729166667 13.54375  C 14.0690104166667 13.58125  14.0190972222222 13.6  13.9583333333333 13.6  L 9.375 13.6  C 9.31423611111111 13.6  9.26432291666667 13.58125  9.22526041666667 13.54375  C 9.18619791666667 13.50625  9.16666666666667 13.4583333333333  9.16666666666667 13.4  L 9.16666666666667 13  Z M 9.375 12  C 9.31423611111111 12  9.26432291666667 11.98125  9.22526041666667 11.94375  C 9.18619791666667 11.90625  9.16666666666667 11.8583333333333  9.16666666666667 11.8  L 9.16666666666667 11.4  C 9.16666666666667 11.3416666666667  9.18619791666667 11.29375  9.22526041666667 11.25625  C 9.26432291666667 11.21875  9.31423611111111 11.2  9.375 11.2  L 13.9583333333333 11.2  C 14.0190972222222 11.2  14.0690104166667 11.21875  14.1080729166667 11.25625  C 14.1471354166667 11.29375  14.1666666666667 11.3416666666667  14.1666666666667 11.4  L 14.1666666666667 11.8  C 14.1666666666667 11.8583333333333  14.1471354166667 11.90625  14.1080729166667 11.94375  C 14.0690104166667 11.98125  14.0190972222222 12  13.9583333333333 12  L 9.375 12  Z M 15.78125 9.6  C 15.7378472222222 9.47916666666665  15.6901041666667 9.39375  15.6380208333333 9.34375  L 13.6002604166667 7.3875  C 13.5481770833333 7.3375  13.4592013888889 7.29166666666665  13.3333333333333 7.25  L 13.3333333333333 9.6  L 15.78125 9.6  Z M 9.16666666666667 14.6  C 9.16666666666667 14.5416666666667  9.18619791666667 14.49375  9.22526041666667 14.45625  C 9.26432291666667 14.41875  9.31423611111111 14.4  9.375 14.4  L 13.9583333333333 14.4  C 14.0190972222222 14.4  14.0690104166667 14.41875  14.1080729166667 14.45625  C 14.1471354166667 14.49375  14.1666666666667 14.5416666666667  14.1666666666667 14.6  L 14.1666666666667 15  C 14.1666666666667 15.0583333333333  14.1471354166667 15.10625  14.1080729166667 15.14375  C 14.0690104166667 15.18125  14.0190972222222 15.2  13.9583333333333 15.2  L 9.375 15.2  C 9.31423611111111 15.2  9.26432291666667 15.18125  9.22526041666667 15.14375  C 9.18619791666667 15.10625  9.16666666666667 15.0583333333333  9.16666666666667 15  L 9.16666666666667 14.6  Z M 9.16666666666667 13  C 9.16666666666667 12.9416666666667  9.18619791666667 12.89375  9.22526041666667 12.85625  C 9.26432291666667 12.81875  9.31423611111111 12.8  9.375 12.8  L 13.9583333333333 12.8  C 14.0190972222222 12.8  14.0690104166667 12.81875  14.1080729166667 12.85625  C 14.1471354166667 12.89375  14.1666666666667 12.9416666666667  14.1666666666667 13  L 14.1666666666667 13.4  C 14.1666666666667 13.4583333333333  14.1471354166667 13.50625  14.1080729166667 13.54375  C 14.0690104166667 13.58125  14.0190972222222 13.6  13.9583333333333 13.6  L 9.375 13.6  C 9.31423611111111 13.6  9.26432291666667 13.58125  9.22526041666667 13.54375  C 9.18619791666667 13.50625  9.16666666666667 13.4583333333333  9.16666666666667 13.4  L 9.16666666666667 13  Z M 9.375 12  C 9.31423611111111 12  9.26432291666667 11.98125  9.22526041666667 11.94375  C 9.18619791666667 11.90625  9.16666666666667 11.8583333333333  9.16666666666667 11.8  L 9.16666666666667 11.4  C 9.16666666666667 11.3416666666667  9.18619791666667 11.29375  9.22526041666667 11.25625  C 9.26432291666667 11.21875  9.31423611111111 11.2  9.375 11.2  L 13.9583333333333 11.2  C 14.0190972222222 11.2  14.0690104166667 11.21875  14.1080729166667 11.25625  C 14.1471354166667 11.29375  14.1666666666667 11.3416666666667  14.1666666666667 11.4  L 14.1666666666667 11.8  C 14.1666666666667 11.8583333333333  14.1471354166667 11.90625  14.1080729166667 11.94375  C 14.0690104166667 11.98125  14.0190972222222 12  13.9583333333333 12  L 9.375 12  Z " fill-rule="nonzero" fill="#000000" stroke="none" transform="matrix(1 0 0 1 13 5 )" />
  </g>
</svg>