<?xml version="1.0" encoding="utf-8"?>
<svg version="1.1" xmlns:xlink="http://www.w3.org/1999/xlink" width="645px" height="279px" xmlns="http://www.w3.org/2000/svg">
  <defs>
    <filter x="195px" y="96px" width="645px" height="279px" filterUnits="userSpaceOnUse" id="filter73">
      <feOffset dx="0" dy="6" in="SourceAlpha" result="shadowOffsetInner" />
      <feGaussianBlur stdDeviation="6" in="shadowOffsetInner" result="shadowGaussian" />
      <feComposite in2="shadowGaussian" operator="atop" in="SourceAlpha" result="shadowComposite" />
      <feColorMatrix type="matrix" values="0 0 0 0 0  0 0 0 0 0  0 0 0 0 0  0 0 0 0.168627450980392 0  " in="shadowComposite" />
    </filter>
    <g id="widget74">
      <path d="M 208 106  A 3 3 0 0 1 211 103 L 824 103  A 3 3 0 0 1 827 106 L 827 353  A 3 3 0 0 1 824 356 L 211 356  A 3 3 0 0 1 208 353 L 208 106  Z " fill-rule="nonzero" fill="#ffffff" stroke="none" />
      <path d="M 207.5 106  A 3.5 3.5 0 0 1 211 102.5 L 824 102.5  A 3.5 3.5 0 0 1 827.5 106 L 827.5 353  A 3.5 3.5 0 0 1 824 356.5 L 211 356.5  A 3.5 3.5 0 0 1 207.5 353 L 207.5 106  Z " stroke-width="1" stroke="#000000" fill="none" stroke-opacity="0.149019607843137" />
    </g>
  </defs>
  <g transform="matrix(1 0 0 1 -195 -96 )">
    <use xlink:href="#widget74" filter="url(#filter73)" />
    <use xlink:href="#widget74" />
  </g>
</svg>