<?xml version="1.0" encoding="utf-8"?>
<svg version="1.1" xmlns:xlink="http://www.w3.org/1999/xlink" width="21px" height="27px" xmlns="http://www.w3.org/2000/svg">
  <defs>
    <mask fill="white" id="clip75">
      <path d="M 21 3.74693877551021  L 16.8 0  L 0 0  L 0 27  L 21 27  L 21 3.74693877551021  Z M 12.3529411764706 5.46011131725417  L 12.3529411764706 12.9489795918367  C 12.3529411764706 14.9286456400742  9.99998663101604 16.530612244898  7.10294117647059 16.530612244898  C 4.20589572192514 16.530612244898  1.85294117647059 14.9286456400742  1.85294117647059 12.9489795918367  L 1.85294117647059 4.80890538033395  C 1.85294117647059 3.36974025974026  3.56157754010695 2.20408163265306  5.67112299465241 2.20408163265306  C 7.78066844919786 2.20408163265306  9.48930481283422 3.36974025974026  9.48930481283422 4.80890538033395  L 9.48930481283422 11.6465677179963  C 9.48930481283422 12.5452319109462  8.42021390374331 13.2745825602968  7.10294117647059 13.2745825602968  C 5.78566844919787 13.2745825602968  4.71657754010695 12.5452319109462  4.71657754010695 11.6465677179963  L 4.71657754010695 5.46011131725417  L 6.17647058823529 5.46011131725417  L 6.17647058823529 11.6465677179963  C 6.14839572192513 12.0047309833024  6.57316844919786 12.2977736549165  7.10294117647059 12.2977736549165  C 7.63271390374332 12.2977736549165  8.05748663101604 12.0047309833024  8.02941176470588 11.6465677179963  L 8.02941176470588 4.80890538033395  C 8.05748663101604 3.91024118738404  6.98839572192513 3.1808905380334  5.67112299465241 3.1808905380334  C 4.35385026737968 3.1808905380334  3.28475935828877 3.91024118738404  3.28475935828877 4.80890538033395  L 3.28475935828877 12.9489795918367  C 3.28475935828877 14.3881447124304  4.99339572192513 15.5538033395176  7.10294117647059 15.5538033395176  C 9.21248663101605 15.5538033395176  10.9211229946524 14.3881447124304  10.9211229946524 12.9489795918367  L 10.9211229946524 5.46011131725417  L 12.3529411764706 5.46011131725417  Z " fill-rule="evenodd" />
    </mask>
  </defs>
  <g transform="matrix(1 0 0 1 -306 -204 )">
    <path d="M 21 3.74693877551021  L 16.8 0  L 0 0  L 0 27  L 21 27  L 21 3.74693877551021  Z M 12.3529411764706 5.46011131725417  L 12.3529411764706 12.9489795918367  C 12.3529411764706 14.9286456400742  9.99998663101604 16.530612244898  7.10294117647059 16.530612244898  C 4.20589572192514 16.530612244898  1.85294117647059 14.9286456400742  1.85294117647059 12.9489795918367  L 1.85294117647059 4.80890538033395  C 1.85294117647059 3.36974025974026  3.56157754010695 2.20408163265306  5.67112299465241 2.20408163265306  C 7.78066844919786 2.20408163265306  9.48930481283422 3.36974025974026  9.48930481283422 4.80890538033395  L 9.48930481283422 11.6465677179963  C 9.48930481283422 12.5452319109462  8.42021390374331 13.2745825602968  7.10294117647059 13.2745825602968  C 5.78566844919787 13.2745825602968  4.71657754010695 12.5452319109462  4.71657754010695 11.6465677179963  L 4.71657754010695 5.46011131725417  L 6.17647058823529 5.46011131725417  L 6.17647058823529 11.6465677179963  C 6.14839572192513 12.0047309833024  6.57316844919786 12.2977736549165  7.10294117647059 12.2977736549165  C 7.63271390374332 12.2977736549165  8.05748663101604 12.0047309833024  8.02941176470588 11.6465677179963  L 8.02941176470588 4.80890538033395  C 8.05748663101604 3.91024118738404  6.98839572192513 3.1808905380334  5.67112299465241 3.1808905380334  C 4.35385026737968 3.1808905380334  3.28475935828877 3.91024118738404  3.28475935828877 4.80890538033395  L 3.28475935828877 12.9489795918367  C 3.28475935828877 14.3881447124304  4.99339572192513 15.5538033395176  7.10294117647059 15.5538033395176  C 9.21248663101605 15.5538033395176  10.9211229946524 14.3881447124304  10.9211229946524 12.9489795918367  L 10.9211229946524 5.46011131725417  L 12.3529411764706 5.46011131725417  Z " fill-rule="nonzero" fill="#ffffff" stroke="none" transform="matrix(1 0 0 1 306 204 )" />
    <path d="M 21 3.74693877551021  L 16.8 0  L 0 0  L 0 27  L 21 27  L 21 3.74693877551021  Z " stroke-width="2" stroke="#797979" fill="none" transform="matrix(1 0 0 1 306 204 )" mask="url(#clip75)" />
    <path d="M 12.3529411764706 5.46011131725417  L 12.3529411764706 12.9489795918367  C 12.3529411764706 14.9286456400742  9.99998663101604 16.530612244898  7.10294117647059 16.530612244898  C 4.20589572192514 16.530612244898  1.85294117647059 14.9286456400742  1.85294117647059 12.9489795918367  L 1.85294117647059 4.80890538033395  C 1.85294117647059 3.36974025974026  3.56157754010695 2.20408163265306  5.67112299465241 2.20408163265306  C 7.78066844919786 2.20408163265306  9.48930481283422 3.36974025974026  9.48930481283422 4.80890538033395  L 9.48930481283422 11.6465677179963  C 9.48930481283422 12.5452319109462  8.42021390374331 13.2745825602968  7.10294117647059 13.2745825602968  C 5.78566844919787 13.2745825602968  4.71657754010695 12.5452319109462  4.71657754010695 11.6465677179963  L 4.71657754010695 5.46011131725417  L 6.17647058823529 5.46011131725417  L 6.17647058823529 11.6465677179963  C 6.14839572192513 12.0047309833024  6.57316844919786 12.2977736549165  7.10294117647059 12.2977736549165  C 7.63271390374332 12.2977736549165  8.05748663101604 12.0047309833024  8.02941176470588 11.6465677179963  L 8.02941176470588 4.80890538033395  C 8.05748663101604 3.91024118738404  6.98839572192513 3.1808905380334  5.67112299465241 3.1808905380334  C 4.35385026737968 3.1808905380334  3.28475935828877 3.91024118738404  3.28475935828877 4.80890538033395  L 3.28475935828877 12.9489795918367  C 3.28475935828877 14.3881447124304  4.99339572192513 15.5538033395176  7.10294117647059 15.5538033395176  C 9.21248663101605 15.5538033395176  10.9211229946524 14.3881447124304  10.9211229946524 12.9489795918367  L 10.9211229946524 5.46011131725417  L 12.3529411764706 5.46011131725417  Z " stroke-width="2" stroke="#797979" fill="none" transform="matrix(1 0 0 1 306 204 )" mask="url(#clip75)" />
  </g>
</svg>