<?xml version="1.0" encoding="utf-8"?>
<svg version="1.1" xmlns:xlink="http://www.w3.org/1999/xlink" width="25px" height="25px" xmlns="http://www.w3.org/2000/svg">
  <defs>
    <mask fill="white" id="clip76">
      <path d="M 22.6415094339623 25  L 2.35849056603774 25  C 1.0377358490566 25  0 23.8297872340426  0 22.3404255319149  L 0 2.65957446808511  C 0 1.17021276595745  1.0377358490566 0  2.35849056603774 0  L 22.6415094339623 0  C 23.9622641509434 0  25 1.17021276595745  25 2.65957446808511  L 25 22.3404255319149  C 25 23.8297872340426  23.9622641509434 25  22.6415094339623 25  Z M 14.6819746054349 16.6487232826053  L 18.9971088600494 21.8085106382979  L 20.2830188679245 20.2678126102454  L 15.9765148818193 15.0976849993309  L 15.2904085353356 15.0976849993309  L 15.0530761513318 14.8133279807306  C 15.8988424652362 13.6397090130531  16.4080283072807 12.1145213678333  16.4080283072807 10.4445701495079  C 16.4080283072807 6.73241852487135  13.8966201710951 3.72340425531915  10.7983537762819 3.72340425531915  C 7.70008738146865 3.72340425531915  5.18867924528302 6.73241852487135  5.18867924528302 10.4445701495079  C 5.18867924528302 14.1567217741445  7.70008738146865 17.1657360436967  10.7983537762819 17.1657360436967  C 12.1921421405223 17.1657360436967  13.4651067456336 16.5556609856088  14.4446422214311 15.5474861014805  L 14.6819746054349 15.8318431200808  L 14.6819746054349 16.6487232826053  Z M 6.91473294712881 10.4445701495079  C 6.91473294712881 7.87501672688345  8.65373205173847 5.79145529968493  10.7983537762819 5.79145529968493  C 12.9429755008253 5.79145529968493  14.6819746054349 7.87501672688345  14.6819746054349 10.4445701495079  C 14.6819746054349 13.0141235721324  12.9429755008253 15.0976849993309  10.7983537762819 15.0976849993309  C 8.65373205173847 15.0976849993309  6.91473294712881 13.0141235721324  6.91473294712881 10.4445701495079  Z " fill-rule="evenodd" />
    </mask>
  </defs>
  <g transform="matrix(1 0 0 1 -701 -206 )">
    <path d="M 22.6415094339623 25  L 2.35849056603774 25  C 1.0377358490566 25  0 23.8297872340426  0 22.3404255319149  L 0 2.65957446808511  C 0 1.17021276595745  1.0377358490566 0  2.35849056603774 0  L 22.6415094339623 0  C 23.9622641509434 0  25 1.17021276595745  25 2.65957446808511  L 25 22.3404255319149  C 25 23.8297872340426  23.9622641509434 25  22.6415094339623 25  Z M 14.6819746054349 16.6487232826053  L 18.9971088600494 21.8085106382979  L 20.2830188679245 20.2678126102454  L 15.9765148818193 15.0976849993309  L 15.2904085353356 15.0976849993309  L 15.0530761513318 14.8133279807306  C 15.8988424652362 13.6397090130531  16.4080283072807 12.1145213678333  16.4080283072807 10.4445701495079  C 16.4080283072807 6.73241852487135  13.8966201710951 3.72340425531915  10.7983537762819 3.72340425531915  C 7.70008738146865 3.72340425531915  5.18867924528302 6.73241852487135  5.18867924528302 10.4445701495079  C 5.18867924528302 14.1567217741445  7.70008738146865 17.1657360436967  10.7983537762819 17.1657360436967  C 12.1921421405223 17.1657360436967  13.4651067456336 16.5556609856088  14.4446422214311 15.5474861014805  L 14.6819746054349 15.8318431200808  L 14.6819746054349 16.6487232826053  Z M 6.91473294712881 10.4445701495079  C 6.91473294712881 7.87501672688345  8.65373205173847 5.79145529968493  10.7983537762819 5.79145529968493  C 12.9429755008253 5.79145529968493  14.6819746054349 7.87501672688345  14.6819746054349 10.4445701495079  C 14.6819746054349 13.0141235721324  12.9429755008253 15.0976849993309  10.7983537762819 15.0976849993309  C 8.65373205173847 15.0976849993309  6.91473294712881 13.0141235721324  6.91473294712881 10.4445701495079  Z " fill-rule="nonzero" fill="#ffffff" stroke="none" transform="matrix(1 0 0 1 701 206 )" />
    <path d="M 22.6415094339623 25  L 2.35849056603774 25  C 1.0377358490566 25  0 23.8297872340426  0 22.3404255319149  L 0 2.65957446808511  C 0 1.17021276595745  1.0377358490566 0  2.35849056603774 0  L 22.6415094339623 0  C 23.9622641509434 0  25 1.17021276595745  25 2.65957446808511  L 25 22.3404255319149  C 25 23.8297872340426  23.9622641509434 25  22.6415094339623 25  Z " stroke-width="2" stroke="#797979" fill="none" transform="matrix(1 0 0 1 701 206 )" mask="url(#clip76)" />
    <path d="M 14.6819746054349 16.6487232826053  L 18.9971088600494 21.8085106382979  L 20.2830188679245 20.2678126102454  L 15.9765148818193 15.0976849993309  L 15.2904085353356 15.0976849993309  L 15.0530761513318 14.8133279807306  C 15.8988424652362 13.6397090130531  16.4080283072807 12.1145213678333  16.4080283072807 10.4445701495079  C 16.4080283072807 6.73241852487135  13.8966201710951 3.72340425531915  10.7983537762819 3.72340425531915  C 7.70008738146865 3.72340425531915  5.18867924528302 6.73241852487135  5.18867924528302 10.4445701495079  C 5.18867924528302 14.1567217741445  7.70008738146865 17.1657360436967  10.7983537762819 17.1657360436967  C 12.1921421405223 17.1657360436967  13.4651067456336 16.5556609856088  14.4446422214311 15.5474861014805  L 14.6819746054349 15.8318431200808  L 14.6819746054349 16.6487232826053  Z " stroke-width="2" stroke="#797979" fill="none" transform="matrix(1 0 0 1 701 206 )" mask="url(#clip76)" />
    <path d="M 6.91473294712881 10.4445701495079  C 6.91473294712881 7.87501672688345  8.65373205173847 5.79145529968493  10.7983537762819 5.79145529968493  C 12.9429755008253 5.79145529968493  14.6819746054349 7.87501672688345  14.6819746054349 10.4445701495079  C 14.6819746054349 13.0141235721324  12.9429755008253 15.0976849993309  10.7983537762819 15.0976849993309  C 8.65373205173847 15.0976849993309  6.91473294712881 13.0141235721324  6.91473294712881 10.4445701495079  Z " stroke-width="2" stroke="#797979" fill="none" transform="matrix(1 0 0 1 701 206 )" mask="url(#clip76)" />
  </g>
</svg>