<?xml version="1.0" encoding="utf-8"?>
<svg version="1.1" xmlns:xlink="http://www.w3.org/1999/xlink" width="133px" height="26px" xmlns="http://www.w3.org/2000/svg">
  <defs>
    <mask fill="white" id="clip82">
      <path d="M 0 21  L 0 5  C 0 2.19999999999999  2.20000000000005 0  5 0  L 73.1999999999971 0  L 128 0  C 130.8 0  133 2.19999999999999  133 5  L 133 21  C 133 23.8  130.8 26  128 26  L 5 26  C 2.20000000000005 26  0 23.8  0 21  Z " fill-rule="evenodd" />
    </mask>
  </defs>
  <g transform="matrix(1 0 0 1 -535 -225 )">
    <path d="M 0 21  L 0 5  C 0 2.19999999999999  2.20000000000005 0  5 0  L 73.1999999999971 0  L 128 0  C 130.8 0  133 2.19999999999999  133 5  L 133 21  C 133 23.8  130.8 26  128 26  L 5 26  C 2.20000000000005 26  0 23.8  0 21  Z " fill-rule="nonzero" fill="#cfcfcf" stroke="none" transform="matrix(1 0 0 1 535 225 )" />
    <path d="M 0 21  L 0 5  C 0 2.19999999999999  2.20000000000005 0  5 0  L 73.1999999999971 0  L 128 0  C 130.8 0  133 2.19999999999999  133 5  L 133 21  C 133 23.8  130.8 26  128 26  L 5 26  C 2.20000000000005 26  0 23.8  0 21  Z " stroke-width="2" stroke="#252424" fill="none" transform="matrix(1 0 0 1 535 225 )" mask="url(#clip82)" />
  </g>
</svg>