<?xml version="1.0" encoding="utf-8"?>
<svg version="1.1" xmlns:xlink="http://www.w3.org/1999/xlink" width="20px" height="21px" xmlns="http://www.w3.org/2000/svg">
  <g transform="matrix(1 0 0 1 -839 -627 )">
    <path d="M 19.8025386157695 13.2615  L 17.6339035982834 11.52375  C 17.675015162596 11.18775  17.7058488358304 10.8465  17.7058488358304 10.5  C 17.7058488358304 10.1535  17.675015162596 9.81225  17.6339035982834 9.47625  L 19.8076775613086 7.7385  C 20.0029574917931 7.581  20.0594858927229 7.2975  19.9310122542462 7.0665  L 17.8754340386196 3.42825  C 17.7469604001429 3.2025  17.4797352321114 3.108  17.2484826828534 3.2025  L 14.6892878043983 4.25775  C 14.1599764138744 3.843  13.5792755679599 3.49125  12.9523242121938 3.2235  L 12.5669032967638 0.441  C 12.5206527869122 0.19425  12.3099560198104 0  12.0530087428571 0  L 7.94185231160383 0  C 7.6849050346505 0  7.47420826754876 0.19425  7.43309670323623 0.441  L 7.04767578780624 3.2235  C 6.42072443204011 3.49125  5.84002358612559 3.83775  5.31071219560173 4.25775  L 2.75151731714656 3.2025  C 2.52026476788856 3.11325  2.2530395998571 3.2025  2.12456596138044 3.42825  L 0.0689877457537959 7.0665  C -0.0594858927228691 7.29225  -0.00295749179313628 7.57575  0.192322438691394 7.7385  L 2.3609574561775 9.47625  C 2.31984589186497 9.81225  2.28901221863057 10.1535  2.28901221863057 10.5  C 2.28901221863057 10.8465  2.31984589186497 11.18775  2.3609574561775 11.52375  L 0.192322438691395 13.2615  C -0.00295749179313586 13.419  -0.0594858927228686 13.7025  0.0689877457537964 13.9335  L 2.12456596138044 17.57175  C 2.2530395998571 17.7975  2.52026476788856 17.892  2.75151731714656 17.7975  L 5.31071219560173 16.74225  C 5.84002358612559 17.157  6.42072443204011 17.50875  7.04767578780624 17.7765  L 7.43309670323623 20.559  C 7.47420826754876 20.80575  7.6849050346505 21  7.94185231160383 21  L 12.0530087428571 21  C 12.3099560198104 21  12.5206527869122 20.80575  12.5617643512247 20.559  L 12.9471852666547 17.7765  C 13.5741366224208 17.50875  14.1548374683353 17.16225  14.6841488588592 16.74225  L 17.2433437373144 17.7975  C 17.4745962865724 17.88675  17.7418214546038 17.7975  17.8702950930805 17.57175  L 19.9258733087071 13.9335  C 20.0543469471838 13.70775  19.9978185462541 13.42425  19.8025386157695 13.2615  Z M 13.5946924045771 10.5  C 13.5946924045771 12.53175  11.9862024508492 14.175  9.99743052723046 14.175  C 8.00865860361169 14.175  6.40016864988385 12.53175  6.40016864988385 10.5  C 6.40016864988385 8.46825  8.00865860361169 6.825  9.99743052723046 6.825  C 11.9862024508492 6.825  13.5946924045771 8.46825  13.5946924045771 10.5  Z " fill-rule="nonzero" fill="#000000" stroke="none" transform="matrix(1 0 0 1 839 627 )" />
  </g>
</svg>