<?xml version="1.0" encoding="utf-8"?>
<svg version="1.1" xmlns:xlink="http://www.w3.org/1999/xlink" width="204px" height="308px" xmlns="http://www.w3.org/2000/svg">
  <defs>
    <filter x="3px" y="102px" width="204px" height="308px" filterUnits="userSpaceOnUse" id="filter109">
      <feOffset dx="0" dy="6" in="SourceAlpha" result="shadowOffsetInner" />
      <feGaussianBlur stdDeviation="6" in="shadowOffsetInner" result="shadowGaussian" />
      <feComposite in2="shadowGaussian" operator="atop" in="SourceAlpha" result="shadowComposite" />
      <feColorMatrix type="matrix" values="0 0 0 0 0  0 0 0 0 0  0 0 0 0 0  0 0 0 0.168627450980392 0  " in="shadowComposite" />
    </filter>
    <g id="widget110">
      <path d="M 16 109  L 194 109  L 194 388  A 3 3 0 0 1 191 391 L 19 391  A 3 3 0 0 1 16 388 L 16 109  Z " fill-rule="nonzero" fill="#ffffff" stroke="none" />
      <path d="M 15.5 108.5  L 194.5 108.5  L 194.5 388  A 3.5 3.5 0 0 1 191 391.5 L 19 391.5  A 3.5 3.5 0 0 1 15.5 388 L 15.5 108.5  Z " stroke-width="1" stroke="#000000" fill="none" stroke-opacity="0.149019607843137" />
    </g>
  </defs>
  <g transform="matrix(1 0 0 1 -3 -102 )">
    <use xlink:href="#widget110" filter="url(#filter109)" />
    <use xlink:href="#widget110" />
  </g>
</svg>