<?xml version="1.0" encoding="utf-8"?>
<svg version="1.1" xmlns:xlink="http://www.w3.org/1999/xlink" width="114px" height="80px" xmlns="http://www.w3.org/2000/svg">
  <defs>
    <filter x="-3px" y="-6px" width="114px" height="80px" filterUnits="userSpaceOnUse" id="filter113">
      <feOffset dx="0" dy="6" in="SourceAlpha" result="shadowOffsetInner" />
      <feGaussianBlur stdDeviation="6" in="shadowOffsetInner" result="shadowGaussian" />
      <feComposite in2="shadowGaussian" operator="atop" in="SourceAlpha" result="shadowComposite" />
      <feColorMatrix type="matrix" values="0 0 0 0 0  0 0 0 0 0  0 0 0 0 0  0 0 0 0.168627450980392 0  " in="shadowComposite" />
    </filter>
    <g id="widget114">
      <path d="M 10 4  A 3 3 0 0 1 13 1 L 95 1  A 3 3 0 0 1 98 4 L 98 52  A 3 3 0 0 1 95 55 L 13 55  A 3 3 0 0 1 10 52 L 10 4  Z " fill-rule="nonzero" fill="#ffffff" stroke="none" />
      <path d="M 9.5 4  A 3.5 3.5 0 0 1 13 0.5 L 95 0.5  A 3.5 3.5 0 0 1 98.5 4 L 98.5 52  A 3.5 3.5 0 0 1 95 55.5 L 13 55.5  A 3.5 3.5 0 0 1 9.5 52 L 9.5 4  Z " stroke-width="1" stroke="#000000" fill="none" stroke-opacity="0.149019607843137" />
    </g>
  </defs>
  <g transform="matrix(1 0 0 1 3 6 )">
    <use xlink:href="#widget114" filter="url(#filter113)" />
    <use xlink:href="#widget114" />
  </g>
</svg>