<?xml version="1.0" encoding="utf-8"?>
<svg version="1.1" xmlns:xlink="http://www.w3.org/1999/xlink" width="21px" height="21px" xmlns="http://www.w3.org/2000/svg">
  <g transform="matrix(1 0 0 1 -743 -627 )">
    <path d="M 7.50213068181818 7.998046875  C 7.59161931818182 8.080078125  7.63636363636364 8.18489583333333  7.63636363636364 8.3125  L 7.63636363636364 16.1875  C 7.63636363636364 16.3151041666667  7.59161931818182 16.419921875  7.50213068181818 16.501953125  C 7.41264204545455 16.583984375  7.29829545454546 16.625  7.15909090909091 16.625  L 6.20454545454546 16.625  C 6.06534090909091 16.625  5.95099431818182 16.583984375  5.86150568181818 16.501953125  C 5.77201704545455 16.419921875  5.72727272727273 16.3151041666667  5.72727272727273 16.1875  L 5.72727272727273 8.3125  C 5.72727272727273 8.18489583333333  5.77201704545455 8.080078125  5.86150568181818 7.998046875  C 5.95099431818182 7.916015625  6.06534090909091 7.875  6.20454545454546 7.875  L 7.15909090909091 7.875  C 7.29829545454546 7.875  7.41264204545455 7.916015625  7.50213068181818 7.998046875  Z M 11.3203125 7.998046875  C 11.4098011363636 8.080078125  11.4545454545455 8.18489583333333  11.4545454545455 8.3125  L 11.4545454545455 16.1875  C 11.4545454545455 16.3151041666667  11.4098011363636 16.419921875  11.3203125 16.501953125  C 11.2308238636364 16.583984375  11.1164772727273 16.625  10.9772727272727 16.625  L 10.0227272727273 16.625  C 9.88352272727273 16.625  9.76917613636364 16.583984375  9.6796875 16.501953125  C 9.59019886363636 16.419921875  9.54545454545455 16.3151041666667  9.54545454545455 16.1875  L 9.54545454545455 8.3125  C 9.54545454545455 8.18489583333333  9.59019886363636 8.080078125  9.6796875 7.998046875  C 9.76917613636364 7.916015625  9.88352272727273 7.875  10.0227272727273 7.875  L 10.9772727272727 7.875  C 11.1164772727273 7.875  11.2308238636364 7.916015625  11.3203125 7.998046875  Z M 15.1384943181818 7.998046875  C 15.2279829545455 8.080078125  15.2727272727273 8.18489583333333  15.2727272727273 8.3125  L 15.2727272727273 16.1875  C 15.2727272727273 16.3151041666667  15.2279829545455 16.419921875  15.1384943181818 16.501953125  C 15.0490056818182 16.583984375  14.9346590909091 16.625  14.7954545454545 16.625  L 13.8409090909091 16.625  C 13.7017045454545 16.625  13.5873579545455 16.583984375  13.4978693181818 16.501953125  C 13.4083806818182 16.419921875  13.3636363636364 16.3151041666667  13.3636363636364 16.1875  L 13.3636363636364 8.3125  C 13.3636363636364 8.18489583333333  13.4083806818182 8.080078125  13.4978693181818 7.998046875  C 13.5873579545455 7.916015625  13.7017045454545 7.875  13.8409090909091 7.875  L 14.7954545454545 7.875  C 14.9346590909091 7.875  15.0490056818182 7.916015625  15.1384943181818 7.998046875  Z M 17.0774147727273 18.7646484375  C 17.1470170454545 18.5960286458333  17.1818181818182 18.4114583333333  17 18.2109375  L 17 5.25  L 4 5.25  L 4 18.2109375  C 3.81818181818182 18.4114583333333  3.85298295454546 18.5960286458333  3.92258522727273 18.7646484375  C 3.9921875 18.9332682291667  4.06427556818182 19.0563151041667  4.13884943181818 19.1337890625  C 4.21342329545455 19.2112630208333  4.265625 19.25  4.29545454545455 19  L 16.7045454545455 19  C 16.734375 19.25  16.7865767045455 19.2112630208333  16.8611505681818 19.1337890625  C 16.9357244318182 19.0563151041667  17.0078125 18.9332682291667  17.0774147727273 18.7646484375  Z M 7.88991477272727 1.900390625  L 7.15909090909091 3.5  L 13.8409090909091 3.5  L 13.125 1.900390625  C 13.0553977272727 1.818359375  12.9708806818182 1.76822916666667  12.8714488636364 1.75  L 8.14346590909091 1.75  C 8.04403409090909 1.76822916666667  7.95951704545455 1.818359375  7.88991477272727 1.900390625  Z M 20.8657670454545 3.623046875  C 20.9552556818182 3.705078125  21 3.80989583333333  21 3.9375  L 21 4.8125  C 21 4.94010416666667  20.9552556818182 5.044921875  20.8657670454545 5.126953125  C 20.7762784090909 5.208984375  20.6619318181818 5.25  20.5227272727273 5.25  L 19 5.25  L 19 18.2109375  C 19.0909090909091 18.9674479166667  18.8572443181818 19.6214192708333  18.3899147727273 20.1728515625  C 17.9225852272727 20.7242838541667  17.3607954545455 21  16.7045454545455 21  L 4.29545454545455 21  C 3.63920454545455 21  3.07741477272727 20.7333984375  2.61008522727273 20.2001953125  C 2.14275568181818 19.6669921875  1.90909090909091 19.0221354166667  2 18.265625  L 2 5.25  L 0.477272727272727 5.25  C 0.338068181818182 5.25  0.223721590909091 5.208984375  0.134232954545455 5.126953125  C 0.0447443181818182 5.044921875  0 4.94010416666667  0 4.8125  L 0 3.9375  C 0 3.80989583333333  0.0447443181818182 3.705078125  0.134232954545455 3.623046875  C 0.223721590909091 3.541015625  0.338068181818182 3.5  0.477272727272727 3.5  L 5.0859375 3.5  L 6.12997159090909 1.216796875  C 6.27911931818182 0.879557291666665  6.54758522727273 0.592447916666665  6.93536931818182 0.355468750000001  C 7.32315340909091 0.118489583333332  7.71590909090909 0  8.11363636363636 0  L 12.8863636363636 0  C 13.2840909090909 0  13.6768465909091 0.118489583333332  14.0646306818182 0.355468750000001  C 14.4524147727273 0.592447916666665  14.7208806818182 0.879557291666665  14.8700284090909 1.216796875  L 15.9140625 3.5  L 20.5227272727273 3.5  C 20.6619318181818 3.5  20.7762784090909 3.541015625  20.8657670454545 3.623046875  Z " fill-rule="nonzero" fill="#000000" stroke="none" transform="matrix(1 0 0 1 743 627 )" />
  </g>
</svg>