<?xml version="1.0" encoding="utf-8"?>
<svg version="1.1" xmlns:xlink="http://www.w3.org/1999/xlink" width="37px" height="30px" xmlns="http://www.w3.org/2000/svg">
  <g transform="matrix(1 0 0 1 -23 -165 )">
    <path d="M 20.6181246726035 9.54545454545453  C 21.5354468085247 9.54545454545453  22.3294052469956 9.89927260199386  23 10.6069087160265  L 23 0.857142857142861  C 23 0.61904761904762  23.0850694444444 0.416666666666657  23.2552083333333 0.25  C 23.4253472222222 0.0833333333333428  23.6319444444444 0  23.875 0  L 32.0416666666667 0  C 32.2847222222222 0  32.5520833333333 0.059523809523796  32.84375 0.178571428571416  C 33.1354166666667 0.297619047619037  33.3663194444444 0.440476190476204  33.5364583333333 0.607142857142861  L 36.3802083333333 3.39285714285714  C 36.5503472222222 3.5595238095238  36.6961805555556 3.78571428571428  36.8177083333333 4.07142857142858  C 36.9392361111111 4.35714285714286  37 4.61904761904762  37 4.85714285714286  L 37 15.1428571428571  C 37 15.3809523809524  36.9149305555556 15.5833333333333  36.7447916666667 15.75  C 36.5746527777778 15.9166666666667  36.3680555555556 16  36.125 16  L 24.1382922996333 16  L 24.1382922996333 16.3636363636364  L 27.1555788370875 16.3636363636364  C 27.7213200628601 16.3636363636364  28.2399161864851 16.5086410984848  28.7113672079623 16.7986505681818  C 29.1828182294395 17.0886600378788  29.5337873232059 17.5059185606061  29.7642744892614 18.0504261363636  C 29.9214248297538 18.4292140151515  30 18.8316761363636  30 19.2578125  C 30 19.9917140151515  29.7590361445783 20.7019412878788  29.2771084337349 21.3884943181818  L 24.641173389209 27.8338068181818  C 24.1906757464641 28.4611742424242  23.5830277632268 28.9790482954545  22.8182294394971 29.3874289772727  C 22.0534311157674 29.7958096590909  21.3200628601362 30  20.6181246726035 30  L 3.52016762702986 30  C 2.55631220534311 30  1.72865374541645 29.609375  1.03719224724987 28.828125  C 0.345730749083291 28.046875  0 27.1117424242424  0 26.0227272727273  L 0 8.97727272727272  C 0 7.88825757575756  0.345730749083291 6.953125  1.03719224724987 6.171875  C 1.72865374541645 5.390625  2.55631220534311 5  3.52016762702986 5  L 8.5489785227868 5  C 9.51283394447355 5  10.3404924044002 5.390625  11.0319539025668 6.171875  C 11.7234154007334 6.953125  12.0691461498167 7.88825757575756  12.0691461498167 8.97727272727272  L 12.0691461498167 9.54545454545453  L 20.6181246726035 9.54545454545453  Z M 31.1666666666667 1.14285714285714  L 24 1.14285714285714  L 24 15  L 35.8333333333333 15  L 35.8333333333333 5.71428571428572  L 32.0416666666667 5.71428571428572  C 31.7986111111111 5.71428571428572  31.5920138888889 5.63095238095238  31.421875 5.46428571428572  C 31.2517361111111 5.29761904761904  31.1666666666667 5.0952380952381  31.1666666666667 4.85714285714286  L 31.1666666666667 1.14285714285714  Z M 2 24.1228693181818  L 6.03457307490833 18.5298295454546  C 6.49554740701938 17.9024621212121  7.10319539025668 17.3845880681818  7.85751702462022 16.9762073863636  C 8.61183865898376 16.5678267045455  9.34520691461499 16.3636363636364  10.0576217915139 16  L 22.1267679413305 16  L 22.1267679413305 13.5227272727273  C 22.1267679413305 13.0492424242424  21.9800942902043 12.6467803030303  21.6867469879518 12.3153409090909  C 21.3933996856993 11.9839015151515  21.0371922472499 11.8181818181818  20.6181246726035 11.8181818181818  L 11.566265060241 11.8181818181818  C 11.1471974855946 11.8181818181818  10.7909900471451 11.6524621212121  10.4976427448926 11.3210227272727  C 10.2042954426401 10.9895833333333  10.0576217915139 10.5871212121212  10.0576217915139 10.1136363636364  L 10.0576217915139 8.97727272727272  C 10.0576217915139 8.50378787878788  9.91094814038764 8.10132575757575  9.61760083813514 7.76988636363637  C 9.32425353588266 7.43844696969697  8.96804609743321 7.27272727272728  8.5489785227868 7.27272727272728  L 3.52016762702986 7.27272727272728  C 3.10110005238345 7.27272727272728  2.744892613934 7.43844696969697  2.45154531168151 7.76988636363637  C 2.15819800942902 8.10132575757575  2.01152435830278 8.50378787878788  2 8.97727272727272  L 2 24.1228693181818  Z M 21.9696176008381 27.3366477272727  C 22.4515453116815 27.0762310606061  22.8234677841802 26.7625473484848  23.0853850183342 26.3955965909091  L 27.7056050288109 19.9502840909091  C 27.8941854374018 19.6898674242424  27.9884756416972 19.4590435606061  27.9884756416972 19.2578125  C 27.9884756416972 18.8435132575758  27.710843373494 18.6363636363636  27.1555788370875 18.6363636363636  L 10.0576217915139 18.6363636363636  C 9.63855421686747 18.6363636363636  9.19067574646412 18.7636126893939  8.71398638030382 19.0181107954546  C 8.23729701414353 19.2726089015152  7.8627553693033 19.5833333333333  7.59036144578313 19.9502840909091  L 2.97014143530644 26.3955965909091  C 2.78156102671556 26.6796875  2.68727082242011 26.9164299242424  2.68727082242011 27.1058238636364  C 2.68727082242011 27.5201231060606  2.96490309062336 27.7272727272727  3.52016762702986 27.7272727272727  L 20.6181246726035 27.7272727272727  C 21.0371922472499 27.7272727272727  21.4876898899948 27.5970643939394  21.9696176008381 27.3366477272727  Z M 31.75 9.3125  L 34.1653645833333 6.9375  C 34.2200520833333 6.88392857142858  34.2899305555556 6.85714285714286  34.375 6.85714285714286  C 34.3993055555556 6.85714285714286  34.4357638888889 6.86309523809524  34.484375 6.875  C 34.6059027777778 6.92261904761904  34.6666666666667 7.01190476190476  34.6666666666667 7.14285714285714  L 34.6666666666667 12.2857142857143  C 34.6666666666667 12.4166666666667  34.6059027777778 12.5059523809524  34.484375 12.5535714285714  C 34.4357638888889 12.5654761904762  34.3993055555556 12.5714285714286  34.375 12.5714285714286  C 34.2899305555556 12.5714285714286  34.2200520833333 12.5446428571429  34.1653645833333 12.4910714285714  L 31.75 10.1160714285714  L 31.75 9.3125  Z M 25.3333333333333 8  C 25.3333333333333 7.6904761904762  25.4487847222222 7.42261904761904  25.6796875 7.19642857142858  C 25.9105902777778 6.9702380952381  26.1840277777778 6.85714285714286  26.5 6.85714285714286  L 30 6.85714285714286  C 30.3159722222222 6.85714285714286  30.5894097222222 6.9702380952381  30.8203125 7.19642857142858  C 31.0512152777778 7.42261904761904  31.1666666666667 7.6904761904762  31.1666666666667 8  L 31.1666666666667 11.4285714285714  C 31.1666666666667 11.7380952380952  31.0512152777778 12.0059523809524  30.8203125 12.2321428571429  C 30.5894097222222 12.4583333333333  30.3159722222222 12.5714285714286  30 12.5714285714286  L 26.5 12.5714285714286  C 26.1840277777778 12.5714285714286  25.9105902777778 12.4583333333333  25.6796875 12.2321428571429  C 25.4487847222222 12.0059523809524  25.3333333333333 11.7380952380952  25.3333333333333 11.4285714285714  L 25.3333333333333 8  Z M 35.7604166666667 4.57142857142858  C 35.6996527777778 4.39880952380952  35.6328125 4.27678571428572  35.5598958333333 4.20535714285714  L 32.70703125 1.41071428571428  C 32.6341145833333 1.33928571428572  32.5095486111111 1.27380952380952  32.3333333333333 1.21428571428572  L 32.3333333333333 4.57142857142858  L 35.7604166666667 4.57142857142858  Z " fill-rule="nonzero" fill="#000000" stroke="none" transform="matrix(1 0 0 1 23 165 )" />
  </g>
</svg>