<?xml version="1.0" encoding="utf-8"?>
<svg version="1.1" xmlns:xlink="http://www.w3.org/1999/xlink" width="30px" height="25px" xmlns="http://www.w3.org/2000/svg">
  <g transform="matrix(1 0 0 1 -23 -240 )">
    <path d="M 13.8461538461538 5  L 25.9615384615385 5  C 27.0673076923077 4.54545454545453  28.0168269230769 4.93607954545453  28.8100961538462 5.71732954545453  C 29.6033653846154 6.49857954545453  30 7.43371212121212  30 8.52272727272728  L 30 21.0227272727273  C 30 22.1117424242424  29.6033653846154 23.046875  28.8100961538462 23.828125  C 28.0168269230769 24.609375  27.0673076923077 25  25.9615384615385 25  L 4.03846153846154 25  C 2.93269230769231 25  1.98317307692308 24.609375  1.18990384615385 23.828125  C 0.396634615384617 23.046875  0 22.1117424242424  0 21.0227272727273  L 0 3.97727272727272  C 0 2.88825757575756  0.396634615384617 1.953125  1.18990384615385 1.171875  C 1.98317307692308 0.390625  2.93269230769231 0  4.03846153846154 0  L 9.80769230769231 0  C 10.9134615384615 0  11.8629807692308 0.390625  12.65625 1.171875  C 13.4495192307692 1.953125  13.8461538461538 2.88825757575756  13.8461538461538 3.97727272727272  L 13.8461538461538 5  Z M 4.03846153846154 22.7272727272727  L 25.9615384615385 22.7272727272727  C 26.4423076923077 22.7272727272727  26.8509615384615 22.561553030303  27.1875 22.2301136363636  C 27.5240384615385 21.8986742424242  27.6923076923077 21.4962121212121  27.6923076923077 21.0227272727273  L 27.6923076923077 8.52272727272728  C 27.6923076923077 8.04924242424244  27.5240384615385 7.64678030303031  27.1875 7.31534090909091  C 26.8509615384615 6.9839015151515  26.4423076923077 6.81818181818181  25.9615384615385 7  L 13.2692307692308 7  C 12.7884615384615 6.81818181818181  12.3798076923077 6.65246212121212  12.0432692307692 6.32102272727272  C 11.7067307692308 5.98958333333334  11.5384615384615 5.58712121212122  11.5384615384615 5.11363636363637  L 11.5384615384615 3.97727272727272  C 11.5384615384615 3.50378787878788  11.3701923076923 3.10132575757575  11.0336538461538 2.76988636363637  C 10.6971153846154 2.43844696969697  10.2884615384615 2.27272727272728  9.80769230769231 2.27272727272728  L 4.03846153846154 2.27272727272728  C 3.55769230769231 2.27272727272728  3.14903846153846 2.43844696969697  2.8125 2.76988636363637  C 2.47596153846154 3.10132575757575  2.30769230769231 3.50378787878788  2.30769230769231 3.97727272727272  L 2.30769230769231 21.0227272727273  C 2.30769230769231 21.4962121212121  2.47596153846154 21.8986742424242  2.8125 22.2301136363636  C 3.14903846153846 22.561553030303  3.55769230769231 22.7272727272727  4.03846153846154 22.7272727272727  Z M 15.75 8  C 15.9583333333333 8  16.1875 8.05208333333334  16.4375 8.15625  C 16.6875 8.26041666666666  16.8854166666667 8.38541666666666  17.03125 8.53125  L 19.46875 10.96875  C 19.6145833333333 11.1145833333333  19.7395833333333 11.3125  19.84375 11.5625  C 19.9479166666667 11.8125  20 12.0416666666667  20 12.25  L 20 21.25  C 20 21.4583333333333  19.9270833333333 21.6354166666667  19.78125 21.78125  C 19.6354166666667 21.9270833333333  19.4583333333333 22  19.25 22  L 8.75 22  C 8.54166666666667 22  8.36458333333333 21.9270833333333  8.21875 21.78125  C 8.07291666666667 21.6354166666667  8 21.4583333333333  8 21.25  L 8 8.75  C 8 8.54166666666666  8.07291666666667 8.36458333333334  8.21875 8.21875  C 8.36458333333333 8.07291666666666  8.54166666666667 8  8.75 8  L 15.75 8  Z M 15 9  L 9 9  L 9 21  L 19 21  L 19 13  L 15.75 13  C 15.5416666666667 13  15.3645833333333 12.9270833333333  15.21875 12.78125  C 15.0729166666667 12.6354166666667  15 12.4583333333333  15 12.25  L 15 9  Z M 11.3515625 20  L 11.3515625 19.171875  L 11.8828125 19.171875  L 13.3984375 16.9609375  L 11.921875 14.8359375  L 11.390625 14.8359375  L 11.390625 14  L 13.65625 14  L 13.65625 14.8359375  L 13.0625 14.8359375  L 13.890625 16.078125  C 13.9479166666667 16.140625  13.9921875 16.2005208333333  14.0234375 16.2578125  C 14.0442708333333 16.2890625  14.0885416666667 16.2916666666667  14.09375 16.3125  C 14.109375 16.2916666666667  14.1328125 16.2565104166667  14.1640625 16.20703125  C 14.1953125 16.1575520833333  14.2213541666667 16.1145833333333  14.2421875 16.078125  L 15.046875 14.8359375  L 14.46875 14.8359375  L 14.46875 14  L 16.6484375 14  L 16.6484375 14.8359375  L 16.125 14.8359375  L 14.6015625 17.0390625  L 16.1015625 19.171875  L 16.6328125 19.171875  L 16.6328125 20  L 14.359375 20  L 14.359375 19.171875  L 14.953125 19.171875  L 14.1171875 17.9140625  C 14.1015625 17.8932291666667  14.0846354166667 17.87109375  14.06640625 17.84765625  C 14.0481770833333 17.82421875  13.9973958333333 17.7447916666667  13.984375 17.7265625  C 13.9635416666667 17.6953125  13.9075520833333 17.7005208333333  13.90234375 17.6796875  C 13.8893229166667 17.7005208333333  13.8697916666667 17.7356770833333  13.84375 17.78515625  C 13.8177083333333 17.8346354166667  13.7916666666667 17.8776041666667  13.765625 17.9140625  L 12.9609375 19.171875  L 13.546875 19.171875  L 13.546875 20  L 11.3515625 20  Z M 11.3515625 20  L 11.3515625 19.171875  L 11.8828125 19.171875  L 13.3984375 16.9609375  L 11.921875 14.8359375  L 11.390625 14.8359375  L 11.390625 14  L 13.65625 14  L 13.65625 14.8359375  L 13.0625 14.8359375  L 13.890625 16.078125  C 13.9479166666667 16.140625  13.9921875 16.2005208333333  14.0234375 16.2578125  C 14.0442708333333 16.2890625  14.0885416666667 16.2916666666667  14.09375 16.3125  C 14.109375 16.2916666666667  14.1328125 16.2565104166667  14.1640625 16.20703125  C 14.1953125 16.1575520833333  14.2213541666667 16.1145833333333  14.2421875 16.078125  L 15.046875 14.8359375  L 14.46875 14.8359375  L 14.46875 14  L 16.6484375 14  L 16.6484375 14.8359375  L 16.125 14.8359375  L 14.6015625 17.0390625  L 16.1015625 19.171875  L 16.6328125 19.171875  L 16.6328125 20  L 14.359375 20  L 14.359375 19.171875  L 14.953125 19.171875  L 14.1171875 17.9140625  C 14.1015625 17.8932291666667  14.0846354166667 17.87109375  14.06640625 17.84765625  C 14.0481770833333 17.82421875  13.9973958333333 17.7447916666667  13.984375 17.7265625  C 13.9635416666667 17.6953125  13.9075520833333 17.7005208333333  13.90234375 17.6796875  C 13.8893229166667 17.7005208333333  13.8697916666667 17.7356770833333  13.84375 17.78515625  C 13.8177083333333 17.8346354166667  13.7916666666667 17.8776041666667  13.765625 17.9140625  L 12.9609375 19.171875  L 13.546875 19.171875  L 13.546875 20  L 11.3515625 20  Z M 18.9375 12  C 18.8854166666667 11.8489583333333  18.828125 11.7421875  18.765625 11.6796875  L 16.3203125 9.234375  C 16.2578125 9.171875  16.1510416666667 9.11458333333334  16 9.0625  L 16 12  L 18.9375 12  Z M 11.3515625 20  L 11.3515625 19.171875  L 11.8828125 19.171875  L 13.3984375 16.9609375  L 11.921875 14.8359375  L 11.390625 14.8359375  L 11.390625 14  L 13.65625 14  L 13.65625 14.8359375  L 13.0625 14.8359375  L 13.890625 16.078125  C 13.9479166666667 16.140625  13.9921875 16.2005208333333  14.0234375 16.2578125  C 14.0442708333333 16.2890625  14.0885416666667 16.2916666666667  14.09375 16.3125  C 14.109375 16.2916666666667  14.1328125 16.2565104166667  14.1640625 16.20703125  C 14.1953125 16.1575520833333  14.2213541666667 16.1145833333333  14.2421875 16.078125  L 15.046875 14.8359375  L 14.46875 14.8359375  L 14.46875 14  L 16.6484375 14  L 16.6484375 14.8359375  L 16.125 14.8359375  L 14.6015625 17.0390625  L 16.1015625 19.171875  L 16.6328125 19.171875  L 16.6328125 20  L 14.359375 20  L 14.359375 19.171875  L 14.953125 19.171875  L 14.1171875 17.9140625  C 14.1015625 17.8932291666667  14.0846354166667 17.87109375  14.06640625 17.84765625  C 14.0481770833333 17.82421875  13.9973958333333 17.7447916666667  13.984375 17.7265625  C 13.9635416666667 17.6953125  13.9075520833333 17.7005208333333  13.90234375 17.6796875  C 13.8893229166667 17.7005208333333  13.8697916666667 17.7356770833333  13.84375 17.78515625  C 13.8177083333333 17.8346354166667  13.7916666666667 17.8776041666667  13.765625 17.9140625  L 12.9609375 19.171875  L 13.546875 19.171875  L 13.546875 20  L 11.3515625 20  Z " fill-rule="nonzero" fill="#000000" stroke="none" transform="matrix(1 0 0 1 23 240 )" />
  </g>
</svg>