<?xml version="1.0" encoding="utf-8"?>
<svg version="1.1" xmlns:xlink="http://www.w3.org/1999/xlink" width="30px" height="25px" xmlns="http://www.w3.org/2000/svg">
  <g transform="matrix(1 0 0 1 -23 -275 )">
    <path d="M 13.8461538461538 5  L 25.9615384615385 5  C 27.0673076923077 4.54545454545456  28.0168269230769 4.93607954545456  28.8100961538462 5.71732954545456  C 29.6033653846154 6.49857954545456  30 7.43371212121212  30 8.52272727272725  L 30 21.0227272727273  C 30 22.1117424242424  29.6033653846154 23.046875  28.8100961538462 23.828125  C 28.0168269230769 24.609375  27.0673076923077 25  25.9615384615385 25  L 4.03846153846154 25  C 2.93269230769231 25  1.98317307692308 24.609375  1.18990384615385 23.828125  C 0.396634615384617 23.046875  0 22.1117424242424  0 21.0227272727273  L 0 3.97727272727275  C 0 2.88825757575756  0.396634615384617 1.953125  1.18990384615385 1.171875  C 1.98317307692308 0.390625  2.93269230769231 0  4.03846153846154 0  L 9.80769230769231 0  C 10.9134615384615 0  11.8629807692308 0.390625  12.65625 1.171875  C 13.4495192307692 1.953125  13.8461538461538 2.88825757575756  13.8461538461538 3.97727272727275  L 13.8461538461538 5  Z M 4.03846153846154 22.7272727272727  L 25.9615384615385 22.7272727272727  C 26.4423076923077 22.7272727272727  26.8509615384615 22.5615530303031  27.1875 22.2301136363636  C 27.5240384615385 21.8986742424242  27.6923076923077 21.4962121212121  27.6923076923077 21.0227272727273  L 27.6923076923077 8.52272727272725  C 27.6923076923077 8.04924242424244  27.5240384615385 7.64678030303031  27.1875 7.31534090909093  C 26.8509615384615 6.9839015151515  26.4423076923077 6.81818181818181  25.9615384615385 7  L 13.2692307692308 7  C 12.7884615384615 6.81818181818181  12.3798076923077 6.65246212121212  12.0432692307692 6.32102272727275  C 11.7067307692308 5.98958333333331  11.5384615384615 5.58712121212119  11.5384615384615 5.11363636363637  L 11.5384615384615 3.97727272727275  C 11.5384615384615 3.50378787878788  11.3701923076923 3.10132575757575  11.0336538461538 2.76988636363637  C 10.6971153846154 2.438446969697  10.2884615384615 2.27272727272725  9.80769230769231 2.27272727272725  L 4.03846153846154 2.27272727272725  C 3.55769230769231 2.27272727272725  3.14903846153846 2.438446969697  2.8125 2.76988636363637  C 2.47596153846154 3.10132575757575  2.30769230769231 3.50378787878788  2.30769230769231 3.97727272727275  L 2.30769230769231 21.0227272727273  C 2.30769230769231 21.4962121212121  2.47596153846154 21.8986742424242  2.8125 22.2301136363636  C 3.14903846153846 22.5615530303031  3.55769230769231 22.7272727272727  4.03846153846154 22.7272727272727  Z M 15.75 8  C 15.9583333333333 8  16.1875 8.05208333333331  16.4375 8.15625  C 16.6875 8.26041666666669  16.8854166666667 8.38541666666669  17.03125 8.53125  L 19.46875 10.96875  C 19.6145833333333 11.1145833333333  19.7395833333333 11.3125  19.84375 11.5625  C 19.9479166666667 11.8125  20 12.0416666666667  20 12.25  L 20 21.25  C 20 21.4583333333333  19.9270833333333 21.6354166666667  19.78125 21.78125  C 19.6354166666667 21.9270833333333  19.4583333333333 22  19.25 22  L 8.75 22  C 8.54166666666667 22  8.36458333333333 21.9270833333333  8.21875 21.78125  C 8.07291666666667 21.6354166666667  8 21.4583333333333  8 21.25  L 8 8.75  C 8 8.54166666666669  8.07291666666667 8.36458333333331  8.21875 8.21875  C 8.36458333333333 8.07291666666669  8.54166666666667 8  8.75 8  L 15.75 8  Z M 15 9  L 9 9  L 9 21  L 19 21  L 19 13  L 15.75 13  C 15.5416666666667 13  15.3645833333333 12.9270833333333  15.21875 12.78125  C 15.0729166666667 12.6354166666667  15 12.4583333333333  15 12.25  L 15 9  Z M 13.953125 19.828125  C 13.9427083333333 19.8958333333333  13.9088541666667 19.94921875  13.8515625 19.98828125  C 13.7942708333333 20.02734375  13.7317708333333 20.0416666666667  13.6640625 20.03125  L 13.171875 19.953125  C 13.1041666666667 19.9427083333333  13.05078125 19.9088541666667  13.01171875 19.8515625  C 12.97265625 19.7942708333333  12.9583333333333 19.7317708333333  12.96875 19.6640625  L 14.046875 13.171875  C 14.0572916666667 13.1041666666667  14.0911458333333 13.05078125  14.1484375 13.01171875  C 14.2057291666667 12.97265625  14.2682291666667 12.9583333333333  14.3359375 12.96875  L 14.828125 13.046875  C 14.8958333333333 13.0572916666667  14.94921875 13.0911458333333  14.98828125 13.1484375  C 15.02734375 13.2057291666667  15.0416666666667 13.2682291666667  15.03125 13.3359375  L 13.953125 19.828125  Z M 15.8984375 13.953125  C 15.9557291666667 13.9114583333333  16.0182291666667 13.89453125  16.0859375 13.90234375  C 16.1536458333333 13.91015625  16.2083333333333 13.9427083333333  16.25 14  L 18.015625 16.3515625  C 18.0885416666667 16.4505208333333  18.0885416666667 16.5494791666667  18.015625 16.6484375  L 16.25 19  C 16.2083333333333 19.0572916666667  16.1536458333333 19.08984375  16.0859375 19.09765625  C 16.0182291666667 19.10546875  15.9557291666667 19.0885416666667  15.8984375 19.046875  L 15.5 18.75  C 15.4427083333333 18.7083333333333  15.41015625 18.6536458333333  15.40234375 18.5859375  C 15.39453125 18.5182291666667  15.4114583333333 18.4557291666667  15.453125 18.3984375  L 16.875 16.5  L 15.453125 14.6015625  C 15.4114583333333 14.5442708333333  15.39453125 14.4817708333333  15.40234375 14.4140625  C 15.41015625 14.3463541666667  15.4427083333333 14.2916666666667  15.5 14.25  L 15.8984375 13.953125  Z M 11.75 19  L 9.984375 16.6484375  C 9.91145833333334 16.5494791666667  9.91145833333334 16.4505208333333  9.984375 16.3515625  L 11.75 14  C 11.7916666666667 13.9427083333333  11.8463541666667 13.91015625  11.9140625 13.90234375  C 11.9817708333333 13.89453125  12.0442708333333 13.9114583333333  12.1015625 13.953125  L 12.5 14.25  C 12.5572916666667 14.2916666666667  12.58984375 14.3463541666667  12.59765625 14.4140625  C 12.60546875 14.4817708333333  12.5885416666667 14.5442708333333  12.546875 14.6015625  L 11.125 16.5  L 12.546875 18.3984375  C 12.5885416666667 18.4557291666667  12.60546875 18.5182291666667  12.59765625 18.5859375  C 12.58984375 18.6536458333333  12.5572916666667 18.7083333333333  12.5 18.75  L 12.1015625 19.046875  C 12.0442708333333 19.0885416666667  11.9817708333333 19.10546875  11.9140625 19.09765625  C 11.8463541666667 19.08984375  11.7916666666667 19.0572916666667  11.75 19  Z M 13.953125 19.828125  C 13.9427083333333 19.8958333333333  13.9088541666667 19.94921875  13.8515625 19.98828125  C 13.7942708333333 20.02734375  13.7317708333333 20.0416666666667  13.6640625 20.03125  L 13.171875 19.953125  C 13.1041666666667 19.9427083333333  13.05078125 19.9088541666667  13.01171875 19.8515625  C 12.97265625 19.7942708333333  12.9583333333333 19.7317708333333  12.96875 19.6640625  L 14.046875 13.171875  C 14.0572916666667 13.1041666666667  14.0911458333333 13.05078125  14.1484375 13.01171875  C 14.2057291666667 12.97265625  14.2682291666667 12.9583333333333  14.3359375 12.96875  L 14.828125 13.046875  C 14.8958333333333 13.0572916666667  14.94921875 13.0911458333333  14.98828125 13.1484375  C 15.02734375 13.2057291666667  15.0416666666667 13.2682291666667  15.03125 13.3359375  L 13.953125 19.828125  Z M 15.8984375 13.953125  C 15.9557291666667 13.9114583333333  16.0182291666667 13.89453125  16.0859375 13.90234375  C 16.1536458333333 13.91015625  16.2083333333333 13.9427083333333  16.25 14  L 18.015625 16.3515625  C 18.0885416666667 16.4505208333333  18.0885416666667 16.5494791666667  18.015625 16.6484375  L 16.25 19  C 16.2083333333333 19.0572916666667  16.1536458333333 19.08984375  16.0859375 19.09765625  C 16.0182291666667 19.10546875  15.9557291666667 19.0885416666667  15.8984375 19.046875  L 15.5 18.75  C 15.4427083333333 18.7083333333333  15.41015625 18.6536458333333  15.40234375 18.5859375  C 15.39453125 18.5182291666667  15.4114583333333 18.4557291666667  15.453125 18.3984375  L 16.875 16.5  L 15.453125 14.6015625  C 15.4114583333333 14.5442708333333  15.39453125 14.4817708333333  15.40234375 14.4140625  C 15.41015625 14.3463541666667  15.4427083333333 14.2916666666667  15.5 14.25  L 15.8984375 13.953125  Z M 11.75 19  L 9.984375 16.6484375  C 9.91145833333334 16.5494791666667  9.91145833333334 16.4505208333333  9.984375 16.3515625  L 11.75 14  C 11.7916666666667 13.9427083333333  11.8463541666667 13.91015625  11.9140625 13.90234375  C 11.9817708333333 13.89453125  12.0442708333333 13.9114583333333  12.1015625 13.953125  L 12.5 14.25  C 12.5572916666667 14.2916666666667  12.58984375 14.3463541666667  12.59765625 14.4140625  C 12.60546875 14.4817708333333  12.5885416666667 14.5442708333333  12.546875 14.6015625  L 11.125 16.5  L 12.546875 18.3984375  C 12.5885416666667 18.4557291666667  12.60546875 18.5182291666667  12.59765625 18.5859375  C 12.58984375 18.6536458333333  12.5572916666667 18.7083333333333  12.5 18.75  L 12.1015625 19.046875  C 12.0442708333333 19.0885416666667  11.9817708333333 19.10546875  11.9140625 19.09765625  C 11.8463541666667 19.08984375  11.7916666666667 19.0572916666667  11.75 19  Z M 18.9375 12  C 18.8854166666667 11.8489583333333  18.828125 11.7421875  18.765625 11.6796875  L 16.3203125 9.234375  C 16.2578125 9.171875  16.1510416666667 9.11458333333331  16 9.0625  L 16 12  L 18.9375 12  Z M 13.953125 19.828125  C 13.9427083333333 19.8958333333333  13.9088541666667 19.94921875  13.8515625 19.98828125  C 13.7942708333333 20.02734375  13.7317708333333 20.0416666666667  13.6640625 20.03125  L 13.171875 19.953125  C 13.1041666666667 19.9427083333333  13.05078125 19.9088541666667  13.01171875 19.8515625  C 12.97265625 19.7942708333333  12.9583333333333 19.7317708333333  12.96875 19.6640625  L 14.046875 13.171875  C 14.0572916666667 13.1041666666667  14.0911458333333 13.05078125  14.1484375 13.01171875  C 14.2057291666667 12.97265625  14.2682291666667 12.9583333333333  14.3359375 12.96875  L 14.828125 13.046875  C 14.8958333333333 13.0572916666667  14.94921875 13.0911458333333  14.98828125 13.1484375  C 15.02734375 13.2057291666667  15.0416666666667 13.2682291666667  15.03125 13.3359375  L 13.953125 19.828125  Z M 15.8984375 13.953125  C 15.9557291666667 13.9114583333333  16.0182291666667 13.89453125  16.0859375 13.90234375  C 16.1536458333333 13.91015625  16.2083333333333 13.9427083333333  16.25 14  L 18.015625 16.3515625  C 18.0885416666667 16.4505208333333  18.0885416666667 16.5494791666667  18.015625 16.6484375  L 16.25 19  C 16.2083333333333 19.0572916666667  16.1536458333333 19.08984375  16.0859375 19.09765625  C 16.0182291666667 19.10546875  15.9557291666667 19.0885416666667  15.8984375 19.046875  L 15.5 18.75  C 15.4427083333333 18.7083333333333  15.41015625 18.6536458333333  15.40234375 18.5859375  C 15.39453125 18.5182291666667  15.4114583333333 18.4557291666667  15.453125 18.3984375  L 16.875 16.5  L 15.453125 14.6015625  C 15.4114583333333 14.5442708333333  15.39453125 14.4817708333333  15.40234375 14.4140625  C 15.41015625 14.3463541666667  15.4427083333333 14.2916666666667  15.5 14.25  L 15.8984375 13.953125  Z M 11.75 19  L 9.984375 16.6484375  C 9.91145833333334 16.5494791666667  9.91145833333334 16.4505208333333  9.984375 16.3515625  L 11.75 14  C 11.7916666666667 13.9427083333333  11.8463541666667 13.91015625  11.9140625 13.90234375  C 11.9817708333333 13.89453125  12.0442708333333 13.9114583333333  12.1015625 13.953125  L 12.5 14.25  C 12.5572916666667 14.2916666666667  12.58984375 14.3463541666667  12.59765625 14.4140625  C 12.60546875 14.4817708333333  12.5885416666667 14.5442708333333  12.546875 14.6015625  L 11.125 16.5  L 12.546875 18.3984375  C 12.5885416666667 18.4557291666667  12.60546875 18.5182291666667  12.59765625 18.5859375  C 12.58984375 18.6536458333333  12.5572916666667 18.7083333333333  12.5 18.75  L 12.1015625 19.046875  C 12.0442708333333 19.0885416666667  11.9817708333333 19.10546875  11.9140625 19.09765625  C 11.8463541666667 19.08984375  11.7916666666667 19.0572916666667  11.75 19  Z " fill-rule="nonzero" fill="#000000" stroke="none" transform="matrix(1 0 0 1 23 275 )" />
  </g>
</svg>