<?xml version="1.0" encoding="utf-8"?>
<svg version="1.1" xmlns:xlink="http://www.w3.org/1999/xlink" width="26px" height="22px" xmlns="http://www.w3.org/2000/svg">
  <g transform="matrix(1 0 0 1 -25 -346 )">
    <path d="M 20.2979910714286 12.9622395833333  C 20.3850446428571 13.0481770833333  20.4285714285714 13.1579861111111  20.4285714285714 13.2916666666667  L 20.4285714285714 17.875  C 20.4285714285714 19.0112847222222  20.0199032738095 19.9828559027778  19.2025669642857 20.7897135416667  C 18.3852306547619 21.5965711805556  17.4010416666667 22  16.25 22  L 4.17857142857143 22  C 3.02752976190476 22  2.04334077380952 21.5965711805556  1.22600446428571 20.7897135416667  C 0.408668154761905 19.9828559027778  0 19.0112847222222  0 17.875  L 0 5.95833333333333  C 0 4.82204861111111  0.408668154761905 3.85047743055555  1.22600446428571 3.04361979166667  C 2.04334077380952 2.23676215277778  3.02752976190476 1.83333333333333  4.17857142857143 2  L 14.3928571428571 2  C 14.5282738095238 1.83333333333333  14.6395089285714 1.87630208333333  14.7265625 1.96223958333333  C 14.8136160714286 2.04817708333333  14.8571428571429 2.15798611111111  14.8571428571429 2.29166666666667  L 14.8571428571429 3.20833333333333  C 14.8571428571429 3.34201388888889  14.8136160714286 3.45182291666667  14.7265625 3.53776041666667  C 14.6395089285714 3.62369791666667  14.5282738095238 3.66666666666667  14.3928571428571 4  L 4.17857142857143 4  C 3.54017857142857 3.66666666666667  2.9936755952381 3.89105902777778  2.5390625 4.33984375  C 2.08444940476191 4.78862847222222  1.85714285714286 5.328125  2 5.95833333333333  L 2 17.875  C 1.85714285714286 18.5052083333333  2.08444940476191 19.0447048611111  2.5390625 19.4934895833333  C 2.9936755952381 19.9422743055556  3.54017857142857 20.1666666666667  4.17857142857143 20  L 16.25 20  C 16.8883928571429 20.1666666666667  17.4348958333333 19.9422743055556  17.8895089285714 19.4934895833333  C 18.3441220238095 19.0447048611111  18.5714285714286 18.5052083333333  18.5714285714286 17.875  L 18.5714285714286 13.2916666666667  C 18.5714285714286 13.1579861111111  18.6149553571429 13.0481770833333  18.7020089285714 12.9622395833333  C 18.7890625 12.8763020833333  18.9002976190476 12.8333333333333  19.0357142857143 12.8333333333333  L 19.9642857142857 12.8333333333333  C 20.0997023809524 12.8333333333333  20.2109375 12.8763020833333  20.2979910714286 12.9622395833333  Z M 25.7243303571429 0.272135416666666  C 25.9081101190476 0.453559027777775  26 0.668402777777775  26 0.916666666666666  L 26 8.25  C 26 8.49826388888889  25.9081101190476 8.71310763888889  25.7243303571429 8.89453125  C 25.5405505952381 9.07595486111111  25.3229166666667 9.16666666666667  25.0714285714286 9.16666666666667  C 24.8199404761905 9.16666666666667  24.602306547619 9.07595486111111  24.4185267857143 8.89453125  L 21.8649553571429 6.37369791666667  L 12.4051339285714 15.7122395833333  C 12.3084077380952 15.8077256944444  12.1971726190476 15.85546875  12.0714285714286 15.85546875  C 11.9456845238095 15.85546875  11.8344494047619 15.8077256944444  11.7377232142857 15.7122395833333  L 10.0837053571429 14.0794270833333  C 9.98697916666667 13.9839409722222  9.93861607142857 13.8741319444444  9.93861607142857 13.75  C 9.93861607142857 13.6258680555556  9.98697916666667 13.5160590277778  10.0837053571429 13.4205729166667  L 19.5435267857143 4.08203125  L 16.9899553571429 1.56119791666667  C 16.8061755952381 1.37977430555555  16.7142857142857 1.16493055555555  16.7142857142857 0.916666666666666  C 16.7142857142857 0.668402777777775  16.8061755952381 0.453559027777775  16.9899553571429 0.272135416666666  C 17.1737351190476 0.0907118055555569  17.391369047619 0  17.6428571428571 0  L 25.0714285714286 0  C 25.3229166666667 0  25.5405505952381 0.0907118055555569  25.7243303571429 0.272135416666666  Z " fill-rule="nonzero" fill="#000000" stroke="none" transform="matrix(1 0 0 1 25 346 )" />
  </g>
</svg>