<?xml version="1.0" encoding="utf-8"?>
<svg version="1.1" xmlns:xlink="http://www.w3.org/1999/xlink" width="436px" height="393px" xmlns="http://www.w3.org/2000/svg">
  <defs>
    <filter x="-13px" y="-7px" width="436px" height="393px" filterUnits="userSpaceOnUse" id="filter15">
      <feOffset dx="0" dy="6" in="SourceAlpha" result="shadowOffsetInner" />
      <feGaussianBlur stdDeviation="6" in="shadowOffsetInner" result="shadowGaussian" />
      <feComposite in2="shadowGaussian" operator="atop" in="SourceAlpha" result="shadowComposite" />
      <feColorMatrix type="matrix" values="0 0 0 0 0  0 0 0 0 0  0 0 0 0 0  0 0 0 0.168627450980392 0  " in="shadowComposite" />
    </filter>
    <g id="widget16">
      <path d="M 0 0  L 410 0  L 410 358  A 9 9 0 0 1 401 367 L 9 367  A 9 9 0 0 1 0 358 L 0 0  Z " fill-rule="nonzero" fill="#ffffff" stroke="none" />
      <path d="M -0.5 -0.5  L 410.5 -0.5  L 410.5 358  A 9.5 9.5 0 0 1 401 367.5 L 9 367.5  A 9.5 9.5 0 0 1 -0.5 358 L -0.5 -0.5  Z " stroke-width="1" stroke="#000000" fill="none" stroke-opacity="0.149019607843137" />
    </g>
  </defs>
  <g transform="matrix(1 0 0 1 13 7 )">
    <use xlink:href="#widget16" filter="url(#filter15)" />
    <use xlink:href="#widget16" />
  </g>
</svg>