<?xml version="1.0" encoding="utf-8"?>
<svg version="1.1" xmlns:xlink="http://www.w3.org/1999/xlink" width="612px" height="301px" xmlns="http://www.w3.org/2000/svg">
  <defs>
    <filter x="221px" y="67px" width="612px" height="301px" filterUnits="userSpaceOnUse" id="filter63">
      <feOffset dx="0" dy="6" in="SourceAlpha" result="shadowOffsetInner" />
      <feGaussianBlur stdDeviation="6" in="shadowOffsetInner" result="shadowGaussian" />
      <feComposite in2="shadowGaussian" operator="atop" in="SourceAlpha" result="shadowComposite" />
      <feColorMatrix type="matrix" values="0 0 0 0 0  0 0 0 0 0  0 0 0 0 0  0 0 0 0.168627450980392 0  " in="shadowComposite" />
    </filter>
    <g id="widget64">
      <path d="M 234 77  A 3 3 0 0 1 237 74 L 817 74  A 3 3 0 0 1 820 77 L 820 346  A 3 3 0 0 1 817 349 L 237 349  A 3 3 0 0 1 234 346 L 234 77  Z " fill-rule="nonzero" fill="#ffffff" stroke="none" />
      <path d="M 233.5 77  A 3.5 3.5 0 0 1 237 73.5 L 817 73.5  A 3.5 3.5 0 0 1 820.5 77 L 820.5 346  A 3.5 3.5 0 0 1 817 349.5 L 237 349.5  A 3.5 3.5 0 0 1 233.5 346 L 233.5 77  Z " stroke-width="1" stroke="#000000" fill="none" stroke-opacity="0.149019607843137" />
    </g>
  </defs>
  <g transform="matrix(1 0 0 1 -221 -67 )">
    <use xlink:href="#widget64" filter="url(#filter63)" />
    <use xlink:href="#widget64" />
  </g>
</svg>