<?xml version="1.0" encoding="utf-8"?>
<svg version="1.1" xmlns:xlink="http://www.w3.org/1999/xlink" width="22px" height="21px" xmlns="http://www.w3.org/2000/svg">
  <g transform="matrix(1 0 0 1 -641 -221 )">
    <path d="M 7.33333333333333 11.55  L 7.33333333333333 9.45  L 4.88888888888889 9.45  L 4.88888888888889 11.55  L 7.33333333333333 11.55  Z M 12.2222222222222 11.55  L 12.2222222222222 9.45  L 9.77777777777778 9.45  L 9.77777777777778 11.55  L 12.2222222222222 11.55  Z M 17.1111111111111 11.55  L 17.1111111111111 9.45  L 14.6666666666667 9.45  L 14.6666666666667 11.55  L 17.1111111111111 11.55  Z M 22 4.2  C 22 3.045  20.9 2.1  19.5555555555556 2.1  L 18.3333333333333 2.1  L 18.3333333333333 0  L 15.8888888888889 0  L 15.8888888888889 2.1  L 6.11111111111111 2.1  L 6.11111111111111 0  L 3.66666666666666 0  L 3.66666666666666 2.1  L 2.44444444444445 2.1  C 1.08777777777778 2.1  0.0122222222222263 3.045  0 4.2  L 0 18.9  C 0 20.055  1.08777777777778 21  2.44444444444445 21  L 19.5555555555556 21  C 20.9 21  22 20.055  22 18.9  L 22 4.2  Z M 19.5555555555556 7.35  L 19.5555555555556 18.9  L 2.44444444444445 18.9  L 2.44444444444445 7.35  L 19.5555555555556 7.35  Z " fill-rule="nonzero" fill="#000000" stroke="none" transform="matrix(1 0 0 1 641 221 )" />
  </g>
</svg>