<?xml version="1.0" encoding="utf-8"?>
<svg version="1.1" xmlns:xlink="http://www.w3.org/1999/xlink" width="20px" height="20px" xmlns="http://www.w3.org/2000/svg">
  <g transform="matrix(1 0 0 1 -869 -34 )">
    <path d="M 19.8025386157695 12.63  L 17.6339035982834 10.975  C 17.675015162596 10.655  17.7058488358304 10.33  17.7058488358304 10  C 17.7058488358304 9.67  17.675015162596 9.345  17.6339035982834 9.025  L 19.8076775613086 7.37  C 20.0029574917931 7.22  20.0594858927229 6.95  19.9310122542462 6.73  L 17.8754340386196 3.265  C 17.7469604001429 3.05  17.4797352321114 2.96  17.2484826828534 3.05  L 14.6892878043983 4.055  C 14.1599764138744 3.66  13.5792755679599 3.325  12.9523242121938 3.07  L 12.5669032967638 0.42  C 12.5206527869122 0.185  12.3099560198104 0  12.0530087428571 0  L 7.94185231160383 0  C 7.6849050346505 0  7.47420826754876 0.185  7.43309670323623 0.42  L 7.04767578780624 3.07  C 6.42072443204011 3.325  5.84002358612559 3.655  5.31071219560173 4.055  L 2.75151731714656 3.05  C 2.52026476788856 2.965  2.2530395998571 3.05  2.12456596138044 3.265  L 0.0689877457537959 6.73  C -0.0594858927228691 6.945  -0.00295749179313628 7.215  0.192322438691394 7.37  L 2.3609574561775 9.025  C 2.31984589186497 9.345  2.28901221863057 9.67  2.28901221863057 10  C 2.28901221863057 10.33  2.31984589186497 10.655  2.3609574561775 10.975  L 0.192322438691395 12.63  C -0.00295749179313586 12.78  -0.0594858927228686 13.05  0.0689877457537964 13.27  L 2.12456596138044 16.735  C 2.2530395998571 16.95  2.52026476788856 17.04  2.75151731714656 16.95  L 5.31071219560173 15.945  C 5.84002358612559 16.34  6.42072443204011 16.675  7.04767578780624 16.93  L 7.43309670323623 19.58  C 7.47420826754876 19.815  7.6849050346505 20  7.94185231160383 20  L 12.0530087428571 20  C 12.3099560198104 20  12.5206527869122 19.815  12.5617643512247 19.58  L 12.9471852666547 16.93  C 13.5741366224208 16.675  14.1548374683353 16.345  14.6841488588592 15.945  L 17.2433437373144 16.95  C 17.4745962865724 17.035  17.7418214546038 16.95  17.8702950930805 16.735  L 19.9258733087071 13.27  C 20.0543469471838 13.055  19.9978185462541 12.785  19.8025386157695 12.63  Z M 13.5946924045771 10  C 13.5946924045771 11.935  11.9862024508492 13.5  9.99743052723046 13.5  C 8.00865860361169 13.5  6.40016864988385 11.935  6.40016864988385 10  C 6.40016864988385 8.065  8.00865860361169 6.5  9.99743052723046 6.5  C 11.9862024508492 6.5  13.5946924045771 8.065  13.5946924045771 10  Z " fill-rule="nonzero" fill="#000000" stroke="none" transform="matrix(1 0 0 1 869 34 )" />
  </g>
</svg>