<?xml version="1.0" encoding="utf-8"?>
<svg version="1.1" xmlns:xlink="http://www.w3.org/1999/xlink" width="24px" height="20px" xmlns="http://www.w3.org/2000/svg">
  <g transform="matrix(1 0 0 1 -901 -180 )">
    <path d="M 11.431640625 8.53515625  C 10.552734375 9.51171875  9.4921875 10  8.25 10  C 7.0078125 10  5.947265625 9.51171875  5.068359375 8.53515625  C 4.189453125 7.55859375  3.75 6.38020833333333  3.75 5  C 3.75 3.61979166666667  4.189453125 2.44140625  5.068359375 1.46484375  C 5.947265625 0.48828125  7.0078125 0  8.25 0  C 9.4921875 0  10.552734375 0.48828125  11.431640625 1.46484375  C 12.310546875 2.44140625  12.75 3.61979166666667  12.75 5  C 12.75 6.38020833333333  12.310546875 7.55859375  11.431640625 8.53515625  Z M 19.5 7.08333333333333  L 19.5 11.6666666666667  L 23.625 11.6666666666667  C 23.7265625 11.6666666666667  23.814453125 11.7078993055556  23.888671875 11.7903645833333  C 23.962890625 11.8728298611111  24 11.9704861111111  24 12.0833333333333  L 24 14.5833333333333  C 24 14.6961805555556  23.962890625 14.7938368055556  23.888671875 14.8763020833333  C 23.814453125 14.9587673611111  23.7265625 15  23.625 15  L 19.5 15  L 19.5 19.5833333333333  C 19.5 19.6961805555556  19.462890625 19.7938368055556  19.388671875 19.8763020833333  C 19.314453125 19.9587673611111  19.2265625 20  19.125 20  L 16.875 20  C 16.7734375 20  16.685546875 19.9587673611111  16.611328125 19.8763020833333  C 16.537109375 19.7938368055556  16.5 19.6961805555556  16.5 19.5833333333333  L 16.5 15  L 12.375 15  C 12.2734375 15  12.185546875 14.9587673611111  12.111328125 14.8763020833333  C 12.037109375 14.7938368055556  12 14.6961805555556  12 14.5833333333333  L 12 12.0833333333333  C 12 11.9704861111111  12.037109375 11.8728298611111  12.111328125 11.7903645833333  C 12.185546875 11.7078993055556  12.2734375 11.6666666666667  12.375 11.6666666666667  L 16.5 11.6666666666667  L 16.5 7.08333333333333  C 16.5 6.97048611111111  16.537109375 6.87282986111111  16.611328125 6.79036458333333  C 16.685546875 6.70789930555556  16.7734375 6.66666666666667  16.875 6.66666666666667  L 19.125 6.66666666666667  C 19.2265625 6.66666666666667  19.314453125 6.70789930555556  19.388671875 6.79036458333333  C 19.462890625 6.87282986111111  19.5 6.97048611111111  19.5 7.08333333333333  Z M 10.875 12.0833333333333  L 10.875 14.5833333333333  C 10.875 15.0347222222222  11.0234375 15.4253472222222  11.3203125 15.7552083333333  C 11.6171875 16.0850694444444  11.96875 16.25  12.375 16.25  L 15.375 16.25  L 15.375 19.3489583333333  C 14.84375 19.7829861111111  14.17578125 20  13.37109375 20  L 3.12890625 20  C 2.18359375 20  1.42578125 19.7005208333333  0.85546875 19.1015625  C 0.28515625 18.5026041666667  0 17.6779513888889  0 16.6276041666667  C 0 16.1675347222222  0.013671875 15.7183159722222  0.041015625 15.2799479166667  C 0.068359375 14.8415798611111  0.123046875 14.3684895833333  0.205078125 13.8606770833333  C 0.287109375 13.3528645833333  0.390625 12.8819444444444  0.515625 12.4479166666667  C 0.640625 12.0138888888889  0.80859375 11.5907118055556  1.01953125 11.1783854166667  C 1.23046875 10.7660590277778  1.47265625 10.4144965277778  1.74609375 10.1236979166667  C 2.01953125 9.83289930555556  2.353515625 9.60069444444444  2.748046875 9.42708333333333  C 3.142578125 9.25347222222222  3.578125 9.16666666666667  4.0546875 9.16666666666667  C 4.203125 9.16666666666667  4.35546875 9.24045138888889  4.51171875 9.38802083333333  C 5.12890625 9.91753472222222  5.732421875 10.3146701388889  6.322265625 10.5794270833333  C 6.912109375 10.8441840277778  7.5546875 10.9765625  8.25 10.9765625  C 8.9453125 10.9765625  9.587890625 10.8441840277778  10.177734375 10.5794270833333  C 10.767578125 10.3146701388889  11.37109375 9.91753472222222  11.98828125 9.38802083333333  C 12.14453125 9.24045138888889  12.296875 9.16666666666667  12.4453125 9.16666666666667  C 13.4765625 9.16666666666667  14.32421875 9.58333333333333  14.98828125 10.4166666666667  L 12.375 10.4166666666667  C 11.96875 10.4166666666667  11.6171875 10.5815972222222  11.3203125 10.9114583333333  C 11.0234375 11.2413194444444  10.875 11.6319444444444  10.875 12.0833333333333  Z " fill-rule="nonzero" fill="#000000" stroke="none" transform="matrix(1 0 0 1 901 180 )" />
  </g>
</svg>