<?xml version="1.0" encoding="utf-8"?>
<svg version="1.1" xmlns:xlink="http://www.w3.org/1999/xlink" width="9px" height="17px" xmlns="http://www.w3.org/2000/svg">
  <g transform="matrix(1 0 0 1 -21 -224 )">
    <path d="M 8.7328125 2.60881696428571  C 8.9109375 2.7289806547619  9 2.87127976190476  9 3.03571428571429  C 9 3.20014880952381  8.9109375 3.34244791666667  8.7328125 3.46261160714286  C 8.5546875 3.58277529761905  8.34375 3.64285714285714  8.1 3.64285714285714  L 6.3 3.64285714285714  L 6.3 13.3571428571429  L 8.1 13.3571428571429  C 8.34375 13.3571428571429  8.5546875 13.417224702381  8.7328125 13.5373883928571  C 8.9109375 13.6575520833333  9 13.7998511904762  9 13.9642857142857  C 9 14.1287202380952  8.9109375 14.2710193452381  8.7328125 14.3911830357143  L 5.1328125 16.8197544642857  C 4.9546875 16.9399181547619  4.74375 17  4.5 17  C 4.25625 17  4.0453125 16.9399181547619  3.8671875 16.8197544642857  L 0.2671875 14.3911830357143  C 0.0890625000000001 14.2710193452381  0 14.1287202380952  0 13.9642857142857  C 0 13.7998511904762  0.0890625000000001 13.6575520833333  0.2671875 13.5373883928571  C 0.4453125 13.417224702381  0.65625 13.3571428571429  0.9 13.3571428571429  L 2.7 13.3571428571429  L 2.7 3.64285714285714  L 0.9 3.64285714285714  C 0.65625 3.64285714285714  0.4453125 3.58277529761905  0.2671875 3.46261160714286  C 0.0890625000000001 3.34244791666667  0 3.20014880952381  0 3.03571428571429  C 0 2.87127976190476  0.0890625000000001 2.7289806547619  0.2671875 2.60881696428571  L 3.8671875 0.180245535714286  C 4.0453125 0.0600818452380967  4.25625 0  4.5 0  C 4.74375 0  4.9546875 0.0600818452380967  5.1328125 0.180245535714286  L 8.7328125 2.60881696428571  Z " fill-rule="nonzero" fill="#000000" stroke="none" transform="matrix(1 0 0 1 21 224 )" />
  </g>
</svg>