<?xml version="1.0" encoding="utf-8"?>
<svg version="1.1" xmlns:xlink="http://www.w3.org/1999/xlink" width="212px" height="105px" xmlns="http://www.w3.org/2000/svg">
  <defs>
    <filter x="-12px" y="-6px" width="212px" height="105px" filterUnits="userSpaceOnUse" id="filter21">
      <feOffset dx="0" dy="6" in="SourceAlpha" result="shadowOffsetInner" />
      <feGaussianBlur stdDeviation="6" in="shadowOffsetInner" result="shadowGaussian" />
      <feComposite in2="shadowGaussian" operator="atop" in="SourceAlpha" result="shadowComposite" />
      <feColorMatrix type="matrix" values="0 0 0 0 0  0 0 0 0 0  0 0 0 0 0  0 0 0 0.168627450980392 0  " in="shadowComposite" />
    </filter>
    <g id="widget22">
      <path d="M 1 4  A 3 3 0 0 1 4 1 L 184 1  A 3 3 0 0 1 187 4 L 187 77  A 3 3 0 0 1 184 80 L 4 80  A 3 3 0 0 1 1 77 L 1 4  Z " fill-rule="nonzero" fill="#ffffff" stroke="none" />
      <path d="M 0.5 4  A 3.5 3.5 0 0 1 4 0.5 L 184 0.5  A 3.5 3.5 0 0 1 187.5 4 L 187.5 77  A 3.5 3.5 0 0 1 184 80.5 L 4 80.5  A 3.5 3.5 0 0 1 0.5 77 L 0.5 4  Z " stroke-width="1" stroke="#000000" fill="none" stroke-opacity="0.149019607843137" />
    </g>
  </defs>
  <g transform="matrix(1 0 0 1 12 6 )">
    <use xlink:href="#widget22" filter="url(#filter21)" />
    <use xlink:href="#widget22" />
  </g>
</svg>