<?xml version="1.0" encoding="utf-8"?>
<svg version="1.1" xmlns:xlink="http://www.w3.org/1999/xlink" width="10px" height="10px" xmlns="http://www.w3.org/2000/svg">
  <g transform="matrix(1 0 0 1 -571 -63 )">
    <path d="M 10 9.14808461978273  L 7.14694110920526 6.28930817610063  L 6.69239565465981 6.28930817610063  L 6.53516295025729 6.13207547169811  C 7.09548313321898 5.48313321898228  7.43281875357347 4.63979416809605  7.43281875357347 3.71640937678674  C 7.43281875357347 1.66380789022298  5.76901086335049 0  3.71640937678674 0  C 1.66380789022298 0  0 1.66380789022298  0 3.71640937678674  C 0 5.76901086335048  1.66380789022298 7.43281875357347  3.71640937678674 7.43281875357347  C 4.63979416809606 7.43281875357347  5.48313321898228 7.09548313321898  6.13207547169811 6.53802172670097  L 6.28930817610063 6.69525443110349  L 6.28930817610063 7.14694110920526  L 9.14808461978273 10  L 10 9.14808461978273  Z M 6.28930817610063 3.71640937678674  C 6.28930817610063 5.13722126929674  5.13722126929674 6.28930817610063  3.71640937678674 6.28930817610063  C 2.29559748427673 6.28930817610063  1.14351057747284 5.13722126929674  1.14351057747284 3.71640937678674  C 1.14351057747284 2.29559748427673  2.29559748427673 1.14351057747284  3.71640937678674 1.14351057747284  C 5.13722126929674 1.14351057747284  6.28930817610063 2.29559748427673  6.28930817610063 3.71640937678674  Z " fill-rule="nonzero" fill="#3e3d3d" stroke="none" transform="matrix(1 0 0 1 571 63 )" />
  </g>
</svg>