<?xml version="1.0" encoding="utf-8"?>
<svg version="1.1" xmlns:xlink="http://www.w3.org/1999/xlink" width="25px" height="25px" xmlns="http://www.w3.org/2000/svg">
  <g transform="matrix(1 0 0 1 -512 -334 )">
    <path d="M 24.7531732697119 15.7875  L 22.0423794978543 13.71875  C 22.093768953245 13.31875  22.132311044788 12.9125  22.132311044788 12.5  C 22.132311044788 12.0875  22.093768953245 11.68125  22.0423794978543 11.28125  L 24.7595969516358 9.2125  C 25.0036968647414 9.025  25.0743573659036 8.6875  24.9137653178078 8.4125  L 22.3442925482745 4.08125  C 22.1837005001786 3.8125  21.8496690401393 3.7  21.5606033535668 3.8125  L 18.3616097554978 5.06875  C 17.699970517343 4.575  16.9740944599499 4.15625  16.1904052652422 3.8375  L 15.7086291209547 0.525  C 15.6508159836402 0.23125  15.387445024763 0  15.0662609285714 0  L 9.92731538950478 0  C 9.60613129331312 0  9.34276033443595 0.23125  9.29137087904529 0.525  L 8.8095947347578 3.8375  C 8.02590554005014 4.15625  7.30002948265698 4.56875  6.63839024450216 5.06875  L 3.4393966464332 3.8125  C 3.15033095986071 3.70625  2.81629949982138 3.8125  2.65570745172554 4.08125  L 0.0862346821922449 8.4125  C -0.0743573659035863 8.68125  -0.00369686474142036 9.01875  0.240403048364243 9.2125  L 2.95119682022187 11.28125  C 2.89980736483121 11.68125  2.86126527328821 12.0875  2.86126527328821 12.5  C 2.86126527328821 12.9125  2.89980736483121 13.31875  2.95119682022187 13.71875  L 0.240403048364244 15.7875  C -0.00369686474141982 15.975  -0.0743573659035857 16.3125  0.0862346821922455 16.5875  L 2.65570745172554 20.91875  C 2.81629949982138 21.1875  3.1503309598607 21.3  3.4393966464332 21.1875  L 6.63839024450216 19.93125  C 7.30002948265698 20.425  8.02590554005014 20.84375  8.8095947347578 21.1625  L 9.29137087904529 24.475  C 9.34276033443595 24.76875  9.60613129331312 25  9.92731538950478 25  L 15.0662609285714 25  C 15.387445024763 25  15.6508159836402 24.76875  15.7022054390309 24.475  L 16.1839815833184 21.1625  C 16.967670778026 20.84375  17.6935468354192 20.43125  18.355186073574 19.93125  L 21.554179671643 21.1875  C 21.8432453582155 21.29375  22.1772768182548 21.1875  22.3378688663506 20.91875  L 24.9073416358839 16.5875  C 25.0679336839797 16.31875  24.9972731828176 15.98125  24.7531732697119 15.7875  Z M 16.9933655057214 12.5  C 16.9933655057214 14.91875  14.9827530635615 16.875  12.4967881590381 16.875  C 10.0108232545146 16.875  8.00021081235481 14.91875  8.00021081235481 12.5  C 8.00021081235481 10.08125  10.0108232545146 8.125  12.4967881590381 8.125  C 14.9827530635615 8.125  16.9933655057214 10.08125  16.9933655057214 12.5  Z " fill-rule="nonzero" fill="#7c7c7c" stroke="none" transform="matrix(1 0 0 1 512 334 )" />
  </g>
</svg>