<?xml version="1.0" encoding="utf-8"?>
<svg version="1.1" xmlns:xlink="http://www.w3.org/1999/xlink" width="169px" height="109px" xmlns="http://www.w3.org/2000/svg">
  <defs>
    <filter x="-12px" y="-6px" width="169px" height="109px" filterUnits="userSpaceOnUse" id="filter25">
      <feOffset dx="0" dy="6" in="SourceAlpha" result="shadowOffsetInner" />
      <feGaussianBlur stdDeviation="6" in="shadowOffsetInner" result="shadowGaussian" />
      <feComposite in2="shadowGaussian" operator="atop" in="SourceAlpha" result="shadowComposite" />
      <feColorMatrix type="matrix" values="0 0 0 0 0  0 0 0 0 0  0 0 0 0 0  0 0 0 0.168627450980392 0  " in="shadowComposite" />
    </filter>
    <g id="widget26">
      <path d="M 1 4  A 3 3 0 0 1 4 1 L 141 1  A 3 3 0 0 1 144 4 L 144 81  A 3 3 0 0 1 141 84 L 4 84  A 3 3 0 0 1 1 81 L 1 4  Z " fill-rule="nonzero" fill="#ffffff" stroke="none" />
      <path d="M 0.5 4  A 3.5 3.5 0 0 1 4 0.5 L 141 0.5  A 3.5 3.5 0 0 1 144.5 4 L 144.5 81  A 3.5 3.5 0 0 1 141 84.5 L 4 84.5  A 3.5 3.5 0 0 1 0.5 81 L 0.5 4  Z " stroke-width="1" stroke="#000000" fill="none" stroke-opacity="0.149019607843137" />
    </g>
  </defs>
  <g transform="matrix(1 0 0 1 12 6 )">
    <use xlink:href="#widget26" filter="url(#filter25)" />
    <use xlink:href="#widget26" />
  </g>
</svg>