<?xml version="1.0" encoding="utf-8"?>
<svg version="1.1" xmlns:xlink="http://www.w3.org/1999/xlink" width="141px" height="52px" xmlns="http://www.w3.org/2000/svg">
  <defs>
    <filter x="-12px" y="-6px" width="141px" height="52px" filterUnits="userSpaceOnUse" id="filter27">
      <feOffset dx="0" dy="6" in="SourceAlpha" result="shadowOffsetInner" />
      <feGaussianBlur stdDeviation="6" in="shadowOffsetInner" result="shadowGaussian" />
      <feComposite in2="shadowGaussian" operator="atop" in="SourceAlpha" result="shadowComposite" />
      <feColorMatrix type="matrix" values="0 0 0 0 0  0 0 0 0 0  0 0 0 0 0  0 0 0 0.168627450980392 0  " in="shadowComposite" />
    </filter>
    <g id="widget28">
      <path d="M 1 4  A 3 3 0 0 1 4 1 L 113 1  A 3 3 0 0 1 116 4 L 116 24  A 3 3 0 0 1 113 27 L 4 27  A 3 3 0 0 1 1 24 L 1 4  Z " fill-rule="nonzero" fill="#ffffff" stroke="none" />
      <path d="M 0.5 4  A 3.5 3.5 0 0 1 4 0.5 L 113 0.5  A 3.5 3.5 0 0 1 116.5 4 L 116.5 24  A 3.5 3.5 0 0 1 113 27.5 L 4 27.5  A 3.5 3.5 0 0 1 0.5 24 L 0.5 4  Z " stroke-width="1" stroke="#000000" fill="none" stroke-opacity="0.149019607843137" />
    </g>
  </defs>
  <g transform="matrix(1 0 0 1 12 6 )">
    <use xlink:href="#widget28" filter="url(#filter27)" />
    <use xlink:href="#widget28" />
  </g>
</svg>