<?xml version="1.0" encoding="utf-8"?>
<svg version="1.1" xmlns:xlink="http://www.w3.org/1999/xlink" width="12px" height="12px" viewBox="429 286  12 12" xmlns="http://www.w3.org/2000/svg">
  <path d="M 429.5 288  A 1.5 1.5 0 0 1 431 286.5 L 439 286.5  A 1.5 1.5 0 0 1 440.5 288 L 440.5 296  A 1.5 1.5 0 0 1 439 297.5 L 431 297.5  A 1.5 1.5 0 0 1 429.5 296 L 429.5 288  Z " fill-rule="nonzero" fill="#f2f1f1" stroke="none" />
  <path d="M 429.5 288  A 1.5 1.5 0 0 1 431 286.5 L 439 286.5  A 1.5 1.5 0 0 1 440.5 288 L 440.5 296  A 1.5 1.5 0 0 1 439 297.5 L 431 297.5  A 1.5 1.5 0 0 1 429.5 296 L 429.5 288  Z " stroke-width="1" stroke="#686868" fill="none" />
  <path d="M 431.571428571429 292  L 434.142857142857 294.571428571429  L 438.428571428571 288.571428571429  " stroke-width="2.57142857142857" stroke="#686868" fill="none" />
</svg>