<?xml version="1.0" encoding="utf-8"?>
<svg version="1.1" xmlns:xlink="http://www.w3.org/1999/xlink" width="12px" height="12px" viewBox="429 339  12 12" xmlns="http://www.w3.org/2000/svg">
  <path d="M 429.5 341  A 1.5 1.5 0 0 1 431 339.5 L 439 339.5  A 1.5 1.5 0 0 1 440.5 341 L 440.5 349  A 1.5 1.5 0 0 1 439 350.5 L 431 350.5  A 1.5 1.5 0 0 1 429.5 349 L 429.5 341  Z " fill-rule="nonzero" fill="#f2f1f1" stroke="none" />
  <path d="M 429.5 341  A 1.5 1.5 0 0 1 431 339.5 L 439 339.5  A 1.5 1.5 0 0 1 440.5 341 L 440.5 349  A 1.5 1.5 0 0 1 439 350.5 L 431 350.5  A 1.5 1.5 0 0 1 429.5 349 L 429.5 341  Z " stroke-width="1" stroke="#686868" fill="none" />
  <path d="M 431.571428571429 345  L 434.142857142857 347.571428571429  L 438.428571428571 341.571428571429  " stroke-width="2.57142857142857" stroke="#686868" fill="none" />
</svg>