<?xml version="1.0" encoding="utf-8"?>
<svg version="1.1" xmlns:xlink="http://www.w3.org/1999/xlink" width="12px" height="12px" viewBox="429 374  12 12" xmlns="http://www.w3.org/2000/svg">
  <path d="M 429.5 376  A 1.5 1.5 0 0 1 431 374.5 L 439 374.5  A 1.5 1.5 0 0 1 440.5 376 L 440.5 384  A 1.5 1.5 0 0 1 439 385.5 L 431 385.5  A 1.5 1.5 0 0 1 429.5 384 L 429.5 376  Z " fill-rule="nonzero" fill="#f2f1f1" stroke="none" />
  <path d="M 429.5 376  A 1.5 1.5 0 0 1 431 374.5 L 439 374.5  A 1.5 1.5 0 0 1 440.5 376 L 440.5 384  A 1.5 1.5 0 0 1 439 385.5 L 431 385.5  A 1.5 1.5 0 0 1 429.5 384 L 429.5 376  Z " stroke-width="1" stroke="#686868" fill="none" />
</svg>