<?xml version="1.0" encoding="utf-8"?>
<svg version="1.1" xmlns:xlink="http://www.w3.org/1999/xlink" width="12px" height="12px" viewBox="429 409  12 12" xmlns="http://www.w3.org/2000/svg">
  <path d="M 429.5 411  A 1.5 1.5 0 0 1 431 409.5 L 439 409.5  A 1.5 1.5 0 0 1 440.5 411 L 440.5 419  A 1.5 1.5 0 0 1 439 420.5 L 431 420.5  A 1.5 1.5 0 0 1 429.5 419 L 429.5 411  Z " fill-rule="nonzero" fill="#f2f1f1" stroke="none" />
  <path d="M 429.5 411  A 1.5 1.5 0 0 1 431 409.5 L 439 409.5  A 1.5 1.5 0 0 1 440.5 411 L 440.5 419  A 1.5 1.5 0 0 1 439 420.5 L 431 420.5  A 1.5 1.5 0 0 1 429.5 419 L 429.5 411  Z " stroke-width="1" stroke="#686868" fill="none" />
  <path d="M 431.571428571429 415  L 434.142857142857 417.571428571429  L 438.428571428571 411.571428571429  " stroke-width="2.57142857142857" stroke="#686868" fill="none" />
</svg>