<?xml version="1.0" encoding="utf-8"?>
<svg version="1.1" xmlns:xlink="http://www.w3.org/1999/xlink" width="143px" height="118px" xmlns="http://www.w3.org/2000/svg">
  <defs>
    <filter x="875px" y="579px" width="143px" height="118px" filterUnits="userSpaceOnUse" id="filter11">
      <feOffset dx="0" dy="6" in="SourceAlpha" result="shadowOffsetInner" />
      <feGaussianBlur stdDeviation="6" in="shadowOffsetInner" result="shadowGaussian" />
      <feComposite in2="shadowGaussian" operator="atop" in="SourceAlpha" result="shadowComposite" />
      <feColorMatrix type="matrix" values="0 0 0 0 0  0 0 0 0 0  0 0 0 0 0  0 0 0 0.168627450980392 0  " in="shadowComposite" />
    </filter>
    <g id="widget12">
      <path d="M 888 586  L 1005 586  L 1005 675  A 3 3 0 0 1 1002 678 L 891 678  A 3 3 0 0 1 888 675 L 888 586  Z " fill-rule="nonzero" fill="#ffffff" stroke="none" />
      <path d="M 887.5 585.5  L 1005.5 585.5  L 1005.5 675  A 3.5 3.5 0 0 1 1002 678.5 L 891 678.5  A 3.5 3.5 0 0 1 887.5 675 L 887.5 585.5  Z " stroke-width="1" stroke="#000000" fill="none" stroke-opacity="0.149019607843137" />
    </g>
  </defs>
  <g transform="matrix(1 0 0 1 -875 -579 )">
    <use xlink:href="#widget12" filter="url(#filter11)" />
    <use xlink:href="#widget12" />
  </g>
</svg>