<?xml version="1.0" encoding="utf-8"?>
<svg version="1.1" xmlns:xlink="http://www.w3.org/1999/xlink" width="391px" height="281px" xmlns="http://www.w3.org/2000/svg">
  <defs>
    <filter x="-13px" y="-7px" width="391px" height="281px" filterUnits="userSpaceOnUse" id="filter13">
      <feOffset dx="0" dy="6" in="SourceAlpha" result="shadowOffsetInner" />
      <feGaussianBlur stdDeviation="6" in="shadowOffsetInner" result="shadowGaussian" />
      <feComposite in2="shadowGaussian" operator="atop" in="SourceAlpha" result="shadowComposite" />
      <feColorMatrix type="matrix" values="0 0 0 0 0  0 0 0 0 0  0 0 0 0 0  0 0 0 0.168627450980392 0  " in="shadowComposite" />
    </filter>
    <g id="widget14">
      <path d="M 0 0  L 365 0  L 365 246  A 9 9 0 0 1 356 255 L 9 255  A 9 9 0 0 1 0 246 L 0 0  Z " fill-rule="nonzero" fill="#ffffff" stroke="none" />
      <path d="M -0.5 -0.5  L 365.5 -0.5  L 365.5 246  A 9.5 9.5 0 0 1 356 255.5 L 9 255.5  A 9.5 9.5 0 0 1 -0.5 246 L -0.5 -0.5  Z " stroke-width="1" stroke="#000000" fill="none" stroke-opacity="0.149019607843137" />
    </g>
  </defs>
  <g transform="matrix(1 0 0 1 13 7 )">
    <use xlink:href="#widget14" filter="url(#filter13)" />
    <use xlink:href="#widget14" />
  </g>
</svg>